G75*
G70*
%OFA0B0*%
%FSLAX24Y24*%
%IPPOS*%
%LPD*%
%AMOC8*
5,1,8,0,0,1.08239X$1,22.5*
%
%ADD10C,0.0000*%
%ADD11C,0.0030*%
%ADD12C,0.0040*%
%ADD13C,0.0060*%
%ADD14C,0.0080*%
%ADD15C,0.0050*%
%ADD16C,0.0100*%
%ADD17C,0.0200*%
%ADD18R,0.0500X0.0750*%
%ADD19R,0.0300X0.0700*%
%ADD20R,0.0500X0.0300*%
%ADD21R,0.0340X0.0240*%
%ADD22R,0.0240X0.0340*%
D10*
X000685Y000685D02*
X000685Y020370D01*
X020370Y020370D01*
X020370Y000685D01*
X000685Y000685D01*
D11*
X001950Y001499D02*
X001999Y001450D01*
X002095Y001450D01*
X002144Y001499D01*
X002144Y001547D01*
X002095Y001595D01*
X002047Y001595D01*
X002095Y001595D02*
X002144Y001644D01*
X002144Y001692D01*
X002095Y001741D01*
X001999Y001741D01*
X001950Y001692D01*
X002245Y001499D02*
X002293Y001499D01*
X002293Y001450D01*
X002245Y001450D01*
X002245Y001499D01*
X002392Y001499D02*
X002441Y001450D01*
X002537Y001450D01*
X002586Y001499D01*
X002586Y001547D01*
X002537Y001595D01*
X002489Y001595D01*
X002537Y001595D02*
X002586Y001644D01*
X002586Y001692D01*
X002537Y001741D01*
X002441Y001741D01*
X002392Y001692D01*
X002687Y001741D02*
X002687Y001547D01*
X002784Y001450D01*
X002880Y001547D01*
X002880Y001741D01*
X002685Y002450D02*
X002733Y002499D01*
X002733Y002692D01*
X002685Y002741D01*
X002540Y002741D01*
X002540Y002450D01*
X002685Y002450D01*
X002438Y002450D02*
X002438Y002741D01*
X002245Y002741D02*
X002438Y002450D01*
X002245Y002450D02*
X002245Y002741D01*
X002144Y002692D02*
X002095Y002741D01*
X001999Y002741D01*
X001950Y002692D01*
X001950Y002499D01*
X001999Y002450D01*
X002095Y002450D01*
X002144Y002499D01*
X002144Y002595D01*
X002047Y002595D01*
X002095Y003450D02*
X001950Y003450D01*
X001950Y003741D01*
X002095Y003741D01*
X002144Y003692D01*
X002144Y003644D01*
X002095Y003595D01*
X001950Y003595D01*
X002095Y003595D02*
X002144Y003547D01*
X002144Y003499D01*
X002095Y003450D01*
X002245Y003499D02*
X002293Y003450D01*
X002390Y003450D01*
X002438Y003499D01*
X002438Y003595D01*
X002390Y003644D01*
X002342Y003644D01*
X002245Y003595D01*
X002245Y003741D01*
X002438Y003741D01*
X002390Y004450D02*
X002390Y004741D01*
X002245Y004595D01*
X002438Y004595D01*
X002144Y004595D02*
X001950Y004595D01*
X001950Y004644D02*
X002047Y004741D01*
X002144Y004644D01*
X002144Y004450D01*
X001950Y004450D02*
X001950Y004644D01*
X001950Y006450D02*
X002095Y006450D01*
X002144Y006499D01*
X002144Y006547D01*
X002095Y006595D01*
X001950Y006595D01*
X001950Y006450D02*
X001950Y006741D01*
X002095Y006741D01*
X002144Y006692D01*
X002144Y006644D01*
X002095Y006595D01*
X002245Y006595D02*
X002438Y006595D01*
X002390Y006450D02*
X002390Y006741D01*
X002245Y006595D01*
X002293Y007450D02*
X002245Y007499D01*
X002293Y007450D02*
X002390Y007450D01*
X002438Y007499D01*
X002438Y007547D01*
X002390Y007595D01*
X002342Y007595D01*
X002390Y007595D02*
X002438Y007644D01*
X002438Y007692D01*
X002390Y007741D01*
X002293Y007741D01*
X002245Y007692D01*
X002144Y007692D02*
X002144Y007644D01*
X002095Y007595D01*
X001950Y007595D01*
X001950Y007450D02*
X002095Y007450D01*
X002144Y007499D01*
X002144Y007547D01*
X002095Y007595D01*
X002144Y007692D02*
X002095Y007741D01*
X001950Y007741D01*
X001950Y007450D01*
X001950Y008450D02*
X002095Y008450D01*
X002144Y008499D01*
X002144Y008547D01*
X002095Y008595D01*
X001950Y008595D01*
X001950Y008450D02*
X001950Y008741D01*
X002095Y008741D01*
X002144Y008692D01*
X002144Y008644D01*
X002095Y008595D01*
X002245Y008692D02*
X002293Y008741D01*
X002390Y008741D01*
X002438Y008692D01*
X002438Y008644D01*
X002245Y008450D01*
X002438Y008450D01*
X002438Y009450D02*
X002245Y009450D01*
X002342Y009450D02*
X002342Y009741D01*
X002245Y009644D01*
X002144Y009644D02*
X002095Y009595D01*
X001950Y009595D01*
X001950Y009450D02*
X002095Y009450D01*
X002144Y009499D01*
X002144Y009547D01*
X002095Y009595D01*
X002144Y009644D02*
X002144Y009692D01*
X002095Y009741D01*
X001950Y009741D01*
X001950Y009450D01*
X001950Y011450D02*
X002095Y011450D01*
X002144Y011499D01*
X002144Y011547D01*
X002095Y011595D01*
X001950Y011595D01*
X001950Y011450D02*
X001950Y011741D01*
X002095Y011741D01*
X002144Y011692D01*
X002144Y011644D01*
X002095Y011595D01*
X002245Y011499D02*
X002438Y011692D01*
X002438Y011499D01*
X002390Y011450D01*
X002293Y011450D01*
X002245Y011499D01*
X002245Y011692D01*
X002293Y011741D01*
X002390Y011741D01*
X002438Y011692D01*
X002438Y012450D02*
X002245Y012450D01*
X002342Y012450D02*
X002342Y012741D01*
X002245Y012644D01*
X002144Y012644D02*
X002144Y012450D01*
X002144Y012595D02*
X001950Y012595D01*
X001950Y012644D02*
X002047Y012741D01*
X002144Y012644D01*
X001950Y012644D02*
X001950Y012450D01*
X001950Y013450D02*
X001950Y013644D01*
X002047Y013741D01*
X002144Y013644D01*
X002144Y013450D01*
X002245Y013499D02*
X002438Y013692D01*
X002438Y013499D01*
X002390Y013450D01*
X002293Y013450D01*
X002245Y013499D01*
X002245Y013692D01*
X002293Y013741D01*
X002390Y013741D01*
X002438Y013692D01*
X002144Y013595D02*
X001950Y013595D01*
X001950Y014450D02*
X001950Y014741D01*
X002047Y014644D01*
X002144Y014741D01*
X002144Y014450D01*
X002245Y014499D02*
X002293Y014450D01*
X002390Y014450D01*
X002438Y014499D01*
X002540Y014450D02*
X002540Y014741D01*
X002438Y014692D02*
X002390Y014741D01*
X002293Y014741D01*
X002245Y014692D01*
X002245Y014499D01*
X002540Y014450D02*
X002733Y014450D01*
X002834Y014450D02*
X002834Y014741D01*
X002979Y014741D01*
X003028Y014692D01*
X003028Y014595D01*
X002979Y014547D01*
X002834Y014547D01*
X002931Y014547D02*
X003028Y014450D01*
X003112Y015950D02*
X003050Y016012D01*
X003050Y016136D01*
X003112Y016197D01*
X003359Y015950D01*
X003420Y016012D01*
X003420Y016136D01*
X003359Y016197D01*
X003112Y016197D01*
X003112Y015950D02*
X003359Y015950D01*
X003359Y016319D02*
X003359Y016380D01*
X003420Y016380D01*
X003420Y016319D01*
X003359Y016319D01*
X003420Y016503D02*
X003420Y016750D01*
X003420Y016626D02*
X003050Y016626D01*
X003174Y016503D01*
X003174Y016871D02*
X003359Y016871D01*
X003420Y016933D01*
X003420Y017118D01*
X003174Y017118D01*
X003235Y017239D02*
X003235Y017363D01*
X003050Y017239D02*
X003050Y017486D01*
X003050Y017239D02*
X003420Y017239D01*
X002858Y018200D02*
X002797Y018262D01*
X002797Y018509D01*
X002858Y018447D02*
X002735Y018447D01*
X002551Y018447D02*
X002551Y018200D01*
X002489Y018200D02*
X002613Y018200D01*
X002368Y018200D02*
X002182Y018324D01*
X002368Y018447D01*
X002489Y018447D02*
X002551Y018447D01*
X002551Y018571D02*
X002551Y018632D01*
X002182Y018571D02*
X002182Y018200D01*
X002061Y018200D02*
X001876Y018200D01*
X001814Y018262D01*
X001814Y018386D01*
X001876Y018447D01*
X002061Y018447D01*
X001692Y018200D02*
X001569Y018200D01*
X001630Y018200D02*
X001630Y018447D01*
X001569Y018447D01*
X001447Y018386D02*
X001447Y018262D01*
X001386Y018200D01*
X001200Y018200D01*
X001200Y018077D02*
X001200Y018447D01*
X001386Y018447D01*
X001447Y018386D01*
X001630Y018571D02*
X001630Y018632D01*
X004482Y019880D02*
X004482Y020171D01*
X004627Y020171D01*
X004675Y020122D01*
X004675Y020025D01*
X004627Y019977D01*
X004482Y019977D01*
X004776Y019880D02*
X004873Y019880D01*
X004825Y019880D02*
X004825Y020171D01*
X004873Y020171D02*
X004776Y020171D01*
X004973Y020122D02*
X004973Y019929D01*
X005021Y019880D01*
X005118Y019880D01*
X005166Y019929D01*
X005267Y019977D02*
X005412Y020074D01*
X005513Y020074D02*
X005561Y020074D01*
X005561Y019880D01*
X005513Y019880D02*
X005610Y019880D01*
X005758Y019929D02*
X005758Y020122D01*
X005806Y020074D02*
X005709Y020074D01*
X005758Y019929D02*
X005806Y019880D01*
X005906Y019929D02*
X005954Y019880D01*
X006051Y019880D01*
X006099Y019929D01*
X006099Y019977D01*
X006051Y020025D01*
X006002Y020025D01*
X006051Y020025D02*
X006099Y020074D01*
X006099Y020122D01*
X006051Y020171D01*
X005954Y020171D01*
X005906Y020122D01*
X005561Y020171D02*
X005561Y020219D01*
X005267Y020171D02*
X005267Y019880D01*
X005267Y019977D02*
X005412Y019880D01*
X005166Y020122D02*
X005118Y020171D01*
X005021Y020171D01*
X004973Y020122D01*
X005200Y018491D02*
X005297Y018394D01*
X005394Y018491D01*
X005394Y018200D01*
X005495Y018249D02*
X005495Y018442D01*
X005543Y018491D01*
X005640Y018491D01*
X005688Y018442D01*
X005790Y018491D02*
X005790Y018200D01*
X005983Y018200D01*
X006084Y018200D02*
X006084Y018491D01*
X006229Y018491D01*
X006278Y018442D01*
X006278Y018345D01*
X006229Y018297D01*
X006084Y018297D01*
X006181Y018297D02*
X006278Y018200D01*
X005688Y018249D02*
X005640Y018200D01*
X005543Y018200D01*
X005495Y018249D01*
X005200Y018200D02*
X005200Y018491D01*
X006800Y017486D02*
X006800Y017239D01*
X007170Y017239D01*
X007170Y017118D02*
X006924Y017118D01*
X006985Y017239D02*
X006985Y017363D01*
X007170Y017118D02*
X007170Y016933D01*
X007109Y016871D01*
X006924Y016871D01*
X006800Y016626D02*
X007170Y016626D01*
X007170Y016503D02*
X007170Y016750D01*
X006924Y016503D02*
X006800Y016626D01*
X007109Y016380D02*
X007170Y016380D01*
X007170Y016319D01*
X007109Y016319D01*
X007109Y016380D01*
X007109Y016197D02*
X007170Y016136D01*
X007170Y016012D01*
X007109Y015950D01*
X006862Y016197D01*
X007109Y016197D01*
X007109Y015950D02*
X006862Y015950D01*
X006800Y016012D01*
X006800Y016136D01*
X006862Y016197D01*
X007772Y018830D02*
X007965Y018830D01*
X007869Y018830D02*
X007869Y019121D01*
X007772Y019024D01*
X008066Y019072D02*
X008066Y018879D01*
X008260Y019072D01*
X008260Y018879D01*
X008212Y018830D01*
X008115Y018830D01*
X008066Y018879D01*
X008066Y019072D02*
X008115Y019121D01*
X008212Y019121D01*
X008260Y019072D01*
X008361Y019024D02*
X008361Y018879D01*
X008409Y018830D01*
X008555Y018830D01*
X008555Y019024D01*
X008656Y018975D02*
X008752Y018975D01*
X008656Y018830D02*
X008656Y019121D01*
X008849Y019121D01*
X012105Y014171D02*
X012043Y014109D01*
X012043Y013862D01*
X012290Y014109D01*
X012290Y013862D01*
X012228Y013800D01*
X012105Y013800D01*
X012043Y013862D01*
X012105Y014171D02*
X012228Y014171D01*
X012290Y014109D01*
X012411Y013862D02*
X012473Y013862D01*
X012473Y013800D01*
X012411Y013800D01*
X012411Y013862D01*
X012595Y013800D02*
X012842Y013800D01*
X012719Y013800D02*
X012719Y014171D01*
X012595Y014047D01*
X012964Y014047D02*
X012964Y013862D01*
X013025Y013800D01*
X013211Y013800D01*
X013211Y014047D01*
X013332Y013986D02*
X013455Y013986D01*
X013332Y013800D02*
X013332Y014171D01*
X013579Y014171D01*
X014543Y014109D02*
X014543Y013862D01*
X014790Y014109D01*
X014790Y013862D01*
X014728Y013800D01*
X014605Y013800D01*
X014543Y013862D01*
X014543Y014109D02*
X014605Y014171D01*
X014728Y014171D01*
X014790Y014109D01*
X014911Y013862D02*
X014973Y013862D01*
X014973Y013800D01*
X014911Y013800D01*
X014911Y013862D01*
X015095Y013800D02*
X015342Y013800D01*
X015219Y013800D02*
X015219Y014171D01*
X015095Y014047D01*
X015464Y014047D02*
X015464Y013862D01*
X015525Y013800D01*
X015711Y013800D01*
X015711Y014047D01*
X015832Y013986D02*
X015955Y013986D01*
X015832Y013800D02*
X015832Y014171D01*
X016079Y014171D01*
X015824Y016200D02*
X015630Y016200D01*
X015824Y016200D02*
X015920Y016297D01*
X015824Y016394D01*
X015630Y016394D01*
X015969Y016495D02*
X015969Y016688D01*
X015920Y016790D02*
X015630Y016790D01*
X015630Y016935D01*
X015679Y016983D01*
X015775Y016983D01*
X015824Y016935D01*
X015824Y016790D01*
X015824Y016886D02*
X015920Y016983D01*
X015920Y017084D02*
X015920Y017278D01*
X015872Y017379D02*
X015679Y017379D01*
X015630Y017427D01*
X015630Y017524D01*
X015679Y017572D01*
X015775Y017572D02*
X015775Y017476D01*
X015775Y017572D02*
X015872Y017572D01*
X015920Y017524D01*
X015920Y017427D01*
X015872Y017379D01*
X015775Y017181D02*
X015775Y017084D01*
X015630Y017084D02*
X015630Y017278D01*
X015630Y017084D02*
X015920Y017084D01*
X019800Y016963D02*
X019800Y016777D01*
X020170Y016777D01*
X020170Y016963D01*
X020109Y017024D01*
X020047Y017024D01*
X019985Y016963D01*
X019985Y016777D01*
X019985Y016963D02*
X019924Y017024D01*
X019862Y017024D01*
X019800Y016963D01*
X019985Y017146D02*
X020109Y017146D01*
X020170Y017207D01*
X020170Y017331D01*
X020109Y017393D01*
X019985Y017393D01*
X019924Y017331D01*
X019924Y017207D01*
X019985Y017146D01*
X020109Y017514D02*
X020047Y017576D01*
X020047Y017761D01*
X019985Y017761D02*
X020170Y017761D01*
X020170Y017576D01*
X020109Y017514D01*
X019924Y017576D02*
X019924Y017699D01*
X019985Y017761D01*
X019924Y017882D02*
X020170Y017882D01*
X020047Y017882D02*
X019924Y018006D01*
X019924Y018067D01*
X019985Y018189D02*
X019924Y018251D01*
X019924Y018436D01*
X019800Y018436D02*
X020170Y018436D01*
X020170Y018251D01*
X020109Y018189D01*
X019985Y018189D01*
X019985Y016288D02*
X019924Y016226D01*
X019924Y016102D01*
X019985Y016041D01*
X020109Y016041D01*
X020170Y016102D01*
X020170Y016226D01*
X020109Y016288D01*
X019985Y016288D01*
X019924Y015919D02*
X019924Y015795D01*
X019862Y015857D02*
X020109Y015857D01*
X020170Y015919D01*
X020109Y015674D02*
X019985Y015674D01*
X019924Y015612D01*
X019924Y015489D01*
X019985Y015427D01*
X020109Y015427D01*
X020170Y015489D01*
X020170Y015612D01*
X020109Y015674D01*
X019924Y015305D02*
X019924Y015243D01*
X020047Y015120D01*
X020170Y015120D02*
X019924Y015120D01*
X019985Y014999D02*
X020047Y014937D01*
X020047Y014752D01*
X020170Y014752D02*
X019800Y014752D01*
X019800Y014937D01*
X019862Y014999D01*
X019985Y014999D01*
X019985Y014262D02*
X020109Y014262D01*
X020170Y014200D01*
X020170Y014077D01*
X020109Y014015D01*
X019985Y014015D02*
X019924Y014139D01*
X019924Y014200D01*
X019985Y014262D01*
X019800Y014262D02*
X019800Y014015D01*
X019985Y014015D01*
X020170Y013894D02*
X020170Y013647D01*
X020170Y013770D02*
X019800Y013770D01*
X019924Y013647D01*
X019862Y013525D02*
X019800Y013464D01*
X019800Y013340D01*
X019862Y013279D01*
X020109Y013279D01*
X019862Y013525D01*
X020109Y013525D01*
X020170Y013464D01*
X020170Y013340D01*
X020109Y013279D01*
X020170Y013157D02*
X020170Y012910D01*
X019924Y013157D01*
X019862Y013157D01*
X019800Y013095D01*
X019800Y012972D01*
X019862Y012910D01*
X019862Y012420D02*
X019800Y012359D01*
X019800Y012235D01*
X019862Y012174D01*
X019862Y012052D02*
X019800Y011990D01*
X019800Y011867D01*
X019862Y011805D01*
X019985Y011684D02*
X019985Y011437D01*
X019800Y011622D01*
X020170Y011622D01*
X020109Y011805D02*
X020170Y011867D01*
X020170Y011990D01*
X020109Y012052D01*
X020047Y012052D01*
X019985Y011990D01*
X019985Y011929D01*
X019985Y011990D02*
X019924Y012052D01*
X019862Y012052D01*
X019985Y012297D02*
X019985Y012359D01*
X020047Y012420D01*
X020109Y012420D01*
X020170Y012359D01*
X020170Y012235D01*
X020109Y012174D01*
X019985Y012359D02*
X019924Y012420D01*
X019862Y012420D01*
X019800Y011316D02*
X019800Y011069D01*
X020170Y011069D01*
X020170Y011316D01*
X019985Y011192D02*
X019985Y011069D01*
X019800Y010947D02*
X020170Y010947D01*
X020170Y010700D02*
X019800Y010700D01*
X019924Y010824D01*
X019800Y010947D01*
X018849Y009921D02*
X018656Y009921D01*
X018656Y009775D01*
X018752Y009824D01*
X018801Y009824D01*
X018849Y009775D01*
X018849Y009679D01*
X018801Y009630D01*
X018704Y009630D01*
X018656Y009679D01*
X018555Y009630D02*
X018361Y009630D01*
X018458Y009630D02*
X018458Y009921D01*
X018361Y009824D01*
X018260Y009824D02*
X018212Y009775D01*
X018066Y009775D01*
X018066Y009630D02*
X018212Y009630D01*
X018260Y009679D01*
X018260Y009727D01*
X018212Y009775D01*
X018260Y009824D02*
X018260Y009872D01*
X018212Y009921D01*
X018066Y009921D01*
X018066Y009630D01*
X018066Y008921D02*
X018212Y008921D01*
X018260Y008872D01*
X018260Y008824D01*
X018212Y008775D01*
X018066Y008775D01*
X018066Y008630D02*
X018066Y008921D01*
X018212Y008775D02*
X018260Y008727D01*
X018260Y008679D01*
X018212Y008630D01*
X018066Y008630D01*
X018361Y008630D02*
X018555Y008630D01*
X018458Y008630D02*
X018458Y008921D01*
X018361Y008824D01*
X018656Y008775D02*
X018849Y008775D01*
X018801Y008630D02*
X018801Y008921D01*
X018656Y008775D01*
X018704Y007921D02*
X018801Y007921D01*
X018849Y007872D01*
X018849Y007824D01*
X018801Y007775D01*
X018849Y007727D01*
X018849Y007679D01*
X018801Y007630D01*
X018704Y007630D01*
X018656Y007679D01*
X018555Y007630D02*
X018361Y007630D01*
X018458Y007630D02*
X018458Y007921D01*
X018361Y007824D01*
X018260Y007824D02*
X018212Y007775D01*
X018066Y007775D01*
X018066Y007630D02*
X018066Y007921D01*
X018212Y007921D01*
X018260Y007872D01*
X018260Y007824D01*
X018212Y007775D02*
X018260Y007727D01*
X018260Y007679D01*
X018212Y007630D01*
X018066Y007630D01*
X018656Y007872D02*
X018704Y007921D01*
X018752Y007775D02*
X018801Y007775D01*
X018801Y006921D02*
X018704Y006921D01*
X018656Y006872D01*
X018656Y006824D01*
X018704Y006775D01*
X018849Y006775D01*
X018849Y006679D02*
X018849Y006872D01*
X018801Y006921D01*
X018849Y006679D02*
X018801Y006630D01*
X018704Y006630D01*
X018656Y006679D01*
X018555Y006679D02*
X018506Y006630D01*
X018361Y006630D01*
X018361Y006921D01*
X018506Y006921D01*
X018555Y006872D01*
X018555Y006824D01*
X018506Y006775D01*
X018361Y006775D01*
X018506Y006775D02*
X018555Y006727D01*
X018555Y006679D01*
X018506Y004921D02*
X018361Y004921D01*
X018361Y004630D01*
X018506Y004630D01*
X018555Y004679D01*
X018555Y004727D01*
X018506Y004775D01*
X018361Y004775D01*
X018506Y004775D02*
X018555Y004824D01*
X018555Y004872D01*
X018506Y004921D01*
X018656Y004872D02*
X018656Y004824D01*
X018704Y004775D01*
X018801Y004775D01*
X018849Y004727D01*
X018849Y004679D01*
X018801Y004630D01*
X018704Y004630D01*
X018656Y004679D01*
X018656Y004727D01*
X018704Y004775D01*
X018801Y004775D02*
X018849Y004824D01*
X018849Y004872D01*
X018801Y004921D01*
X018704Y004921D01*
X018656Y004872D01*
X018656Y003921D02*
X018849Y003921D01*
X018849Y003872D01*
X018656Y003679D01*
X018656Y003630D01*
X018555Y003679D02*
X018506Y003630D01*
X018361Y003630D01*
X018361Y003921D01*
X018506Y003921D01*
X018555Y003872D01*
X018555Y003824D01*
X018506Y003775D01*
X018361Y003775D01*
X018506Y003775D02*
X018555Y003727D01*
X018555Y003679D01*
X018555Y002921D02*
X018555Y002630D01*
X018361Y002921D01*
X018361Y002630D01*
X018260Y002679D02*
X018260Y002775D01*
X018163Y002775D01*
X018066Y002679D02*
X018115Y002630D01*
X018212Y002630D01*
X018260Y002679D01*
X018260Y002872D02*
X018212Y002921D01*
X018115Y002921D01*
X018066Y002872D01*
X018066Y002679D01*
X018656Y002630D02*
X018801Y002630D01*
X018849Y002679D01*
X018849Y002872D01*
X018801Y002921D01*
X018656Y002921D01*
X018656Y002630D01*
X018656Y001921D02*
X018656Y001727D01*
X018752Y001630D01*
X018849Y001727D01*
X018849Y001921D01*
X018555Y001921D02*
X018361Y001921D01*
X018361Y001775D01*
X018458Y001824D01*
X018506Y001824D01*
X018555Y001775D01*
X018555Y001679D01*
X018506Y001630D01*
X018409Y001630D01*
X018361Y001679D01*
X018069Y001447D02*
X017884Y001447D01*
X017822Y001386D01*
X017822Y001262D01*
X017884Y001200D01*
X018069Y001200D01*
X018069Y001139D02*
X018069Y001447D01*
X018069Y001139D02*
X018007Y001077D01*
X017945Y001077D01*
X017701Y001200D02*
X017701Y001386D01*
X017639Y001447D01*
X017454Y001447D01*
X017454Y001200D01*
X017332Y001200D02*
X017147Y001200D01*
X017085Y001262D01*
X017147Y001324D01*
X017332Y001324D01*
X017332Y001386D02*
X017332Y001200D01*
X017332Y001386D02*
X017271Y001447D01*
X017147Y001447D01*
X016964Y001571D02*
X016717Y001571D01*
X016717Y001200D01*
X016717Y001386D02*
X016841Y001386D01*
X016227Y001386D02*
X016227Y001200D01*
X016042Y001200D01*
X015980Y001262D01*
X016042Y001324D01*
X016227Y001324D01*
X016227Y001386D02*
X016166Y001447D01*
X016042Y001447D01*
X015859Y001447D02*
X015797Y001447D01*
X015674Y001324D01*
X015674Y001447D02*
X015674Y001200D01*
X015552Y001200D02*
X015367Y001200D01*
X015305Y001262D01*
X015305Y001386D01*
X015367Y001447D01*
X015552Y001447D01*
X015552Y001571D02*
X015552Y001200D01*
X015184Y001200D02*
X015184Y001386D01*
X015122Y001447D01*
X014937Y001447D01*
X014937Y001200D01*
X014816Y001200D02*
X014816Y001386D01*
X014754Y001447D01*
X014630Y001447D01*
X014630Y001324D02*
X014816Y001324D01*
X014816Y001200D02*
X014630Y001200D01*
X014569Y001262D01*
X014630Y001324D01*
X014447Y001324D02*
X014447Y001262D01*
X014386Y001200D01*
X014262Y001200D01*
X014200Y001262D01*
X014262Y001386D02*
X014386Y001386D01*
X014447Y001324D01*
X014447Y001509D02*
X014386Y001571D01*
X014262Y001571D01*
X014200Y001509D01*
X014200Y001447D01*
X014262Y001386D01*
X013539Y003850D02*
X013539Y004221D01*
X013292Y004221D02*
X013292Y003850D01*
X013415Y003974D01*
X013539Y003850D01*
X013170Y003912D02*
X013170Y004159D01*
X013109Y004221D01*
X012985Y004221D01*
X012924Y004159D01*
X012924Y003912D01*
X012985Y003850D01*
X013109Y003850D01*
X013170Y003912D01*
X012802Y003850D02*
X012555Y003850D01*
X012555Y004221D01*
X012187Y004221D02*
X012187Y003850D01*
X012434Y003850D01*
X012066Y003850D02*
X011819Y003850D01*
X011819Y004221D01*
X012066Y004221D01*
X011942Y004036D02*
X011819Y004036D01*
X011697Y004159D02*
X011697Y004221D01*
X011697Y004159D02*
X011574Y004036D01*
X011574Y003850D01*
X011574Y004036D02*
X011450Y004159D01*
X011450Y004221D01*
X011772Y007330D02*
X011965Y007330D01*
X011869Y007330D02*
X011869Y007621D01*
X011772Y007524D01*
X012066Y007572D02*
X012066Y007379D01*
X012260Y007572D01*
X012260Y007379D01*
X012212Y007330D01*
X012115Y007330D01*
X012066Y007379D01*
X012066Y007572D02*
X012115Y007621D01*
X012212Y007621D01*
X012260Y007572D01*
X012361Y007524D02*
X012361Y007379D01*
X012409Y007330D01*
X012555Y007330D01*
X012555Y007524D01*
X012656Y007475D02*
X012752Y007475D01*
X012656Y007330D02*
X012656Y007621D01*
X012849Y007621D01*
D12*
X012881Y011055D02*
X012574Y011055D01*
X012574Y011516D01*
X012881Y011516D01*
X013034Y011516D02*
X013034Y011055D01*
X013341Y011055D01*
X013495Y011055D02*
X013495Y011516D01*
X013802Y011055D01*
X013802Y011516D01*
X013341Y011516D02*
X013034Y011516D01*
X013034Y011286D02*
X013188Y011286D01*
X012728Y011286D02*
X012574Y011286D01*
X012421Y011286D02*
X012344Y011209D01*
X012114Y011209D01*
X012267Y011209D02*
X012421Y011055D01*
X012114Y011055D02*
X012114Y011516D01*
X012344Y011516D01*
X012421Y011439D01*
X012421Y011286D01*
X011960Y011286D02*
X011960Y011132D01*
X011884Y011055D01*
X011730Y011055D01*
X011653Y011132D01*
X011653Y011439D01*
X011730Y011516D01*
X011884Y011516D01*
X011960Y011439D01*
X011960Y011286D02*
X011807Y011286D01*
X015955Y011532D02*
X016032Y011455D01*
X016186Y011455D01*
X016262Y011532D01*
X016262Y011609D01*
X016186Y011686D01*
X016109Y011686D01*
X016186Y011686D02*
X016262Y011762D01*
X016262Y011839D01*
X016186Y011916D01*
X016032Y011916D01*
X015955Y011839D01*
X016416Y011839D02*
X016492Y011916D01*
X016646Y011916D01*
X016723Y011839D01*
X016723Y011762D01*
X016646Y011686D01*
X016723Y011609D01*
X016723Y011532D01*
X016646Y011455D01*
X016492Y011455D01*
X016416Y011532D01*
X016569Y011686D02*
X016646Y011686D01*
X016876Y011839D02*
X016953Y011916D01*
X017106Y011916D01*
X017183Y011839D01*
X016876Y011532D01*
X016953Y011455D01*
X017106Y011455D01*
X017183Y011532D01*
X017183Y011839D01*
X016876Y011839D02*
X016876Y011532D01*
X017824Y013305D02*
X017824Y013766D01*
X018054Y013766D01*
X018131Y013689D01*
X018131Y013536D01*
X018054Y013459D01*
X017824Y013459D01*
X017978Y013459D02*
X018131Y013305D01*
X018285Y013305D02*
X018591Y013305D01*
X018745Y013305D02*
X018975Y013305D01*
X019052Y013382D01*
X019052Y013689D01*
X018975Y013766D01*
X018745Y013766D01*
X018745Y013305D01*
X018438Y013536D02*
X018285Y013536D01*
X018285Y013766D02*
X018285Y013305D01*
X018285Y013766D02*
X018591Y013766D01*
X017693Y018796D02*
X017309Y018796D01*
X017309Y019103D02*
X017693Y019103D01*
X017770Y019026D01*
X017770Y018873D01*
X017693Y018796D01*
X017693Y019256D02*
X017770Y019333D01*
X017770Y019486D01*
X017693Y019563D01*
X017616Y019563D01*
X017540Y019486D01*
X017540Y019333D01*
X017463Y019256D01*
X017386Y019256D01*
X017309Y019333D01*
X017309Y019486D01*
X017386Y019563D01*
X017309Y019717D02*
X017309Y019947D01*
X017386Y020024D01*
X017463Y020024D01*
X017540Y019947D01*
X017540Y019717D01*
X017770Y019717D02*
X017770Y019947D01*
X017693Y020024D01*
X017616Y020024D01*
X017540Y019947D01*
X017770Y019717D02*
X017309Y019717D01*
X010165Y019779D02*
X009705Y019779D01*
X009705Y019626D02*
X009705Y019933D01*
X009782Y019473D02*
X009705Y019396D01*
X009705Y019242D01*
X009782Y019166D01*
X009858Y019166D01*
X009935Y019242D01*
X009935Y019396D01*
X010012Y019473D01*
X010089Y019473D01*
X010165Y019396D01*
X010165Y019242D01*
X010089Y019166D01*
X010165Y019012D02*
X010012Y018859D01*
X010012Y018936D02*
X010012Y018705D01*
X010165Y018705D02*
X009705Y018705D01*
X009705Y018936D01*
X009782Y019012D01*
X009935Y019012D01*
X010012Y018936D01*
X009935Y017393D02*
X009782Y017393D01*
X009705Y017317D01*
X009705Y017086D01*
X010165Y017086D01*
X010165Y016933D02*
X010165Y016626D01*
X009705Y016626D01*
X009705Y016933D01*
X009935Y016779D02*
X009935Y016626D01*
X010012Y016473D02*
X010089Y016473D01*
X010165Y016396D01*
X010165Y016242D01*
X010089Y016166D01*
X010089Y016012D02*
X009705Y016012D01*
X009782Y016166D02*
X009858Y016166D01*
X009935Y016242D01*
X009935Y016396D01*
X010012Y016473D01*
X009782Y016473D02*
X009705Y016396D01*
X009705Y016242D01*
X009782Y016166D01*
X010089Y016012D02*
X010165Y015936D01*
X010165Y015782D01*
X010089Y015705D01*
X009705Y015705D01*
X010012Y017086D02*
X010012Y017317D01*
X009935Y017393D01*
X010012Y017240D02*
X010165Y017393D01*
X005975Y008416D02*
X005822Y008416D01*
X005745Y008339D01*
X005745Y008032D01*
X005822Y007955D01*
X005975Y007955D01*
X006052Y008032D01*
X006052Y008339D02*
X005975Y008416D01*
X005591Y008339D02*
X005515Y008416D01*
X005361Y008416D01*
X005285Y008339D01*
X005285Y008262D01*
X005361Y008186D01*
X005515Y008186D01*
X005591Y008109D01*
X005591Y008032D01*
X005515Y007955D01*
X005361Y007955D01*
X005285Y008032D01*
X005131Y008032D02*
X005131Y008339D01*
X005054Y008416D01*
X004901Y008416D01*
X004824Y008339D01*
X004824Y008032D01*
X004901Y007955D01*
X005054Y007955D01*
X005131Y008032D01*
X005131Y005416D02*
X004978Y005262D01*
X004824Y005416D01*
X004824Y004955D01*
X004671Y005032D02*
X004594Y004955D01*
X004441Y004955D01*
X004364Y005032D01*
X004364Y005109D01*
X004441Y005186D01*
X004594Y005186D01*
X004671Y005109D01*
X004671Y005032D01*
X004594Y005186D02*
X004671Y005262D01*
X004671Y005339D01*
X004594Y005416D01*
X004441Y005416D01*
X004364Y005339D01*
X004364Y005262D01*
X004441Y005186D01*
X005131Y005416D02*
X005131Y004955D01*
X005285Y004955D02*
X005285Y005416D01*
X005285Y005186D02*
X005591Y005186D01*
X005745Y005032D02*
X005745Y004955D01*
X006052Y004955D01*
X005745Y005032D02*
X006052Y005339D01*
X006052Y005416D01*
X005745Y005416D01*
X005591Y005416D02*
X005591Y004955D01*
D13*
X008765Y005110D02*
X008765Y005323D01*
X008765Y005217D02*
X009405Y005217D01*
X009405Y005323D02*
X009405Y005110D01*
X009085Y004892D02*
X009192Y004786D01*
X009192Y004465D01*
X009405Y004465D02*
X008765Y004465D01*
X008765Y004786D01*
X008872Y004892D01*
X009085Y004892D01*
X008872Y005540D02*
X009299Y005540D01*
X009405Y005646D01*
X009405Y005860D01*
X009299Y005967D01*
X009299Y006184D02*
X009405Y006291D01*
X009405Y006504D01*
X009299Y006611D01*
X009192Y006611D01*
X009085Y006504D01*
X009085Y006398D01*
X009085Y006504D02*
X008978Y006611D01*
X008872Y006611D01*
X008765Y006504D01*
X008765Y006291D01*
X008872Y006184D01*
X008872Y005967D02*
X008765Y005860D01*
X008765Y005646D01*
X008872Y005540D01*
X008872Y006829D02*
X008765Y006935D01*
X008765Y007149D01*
X008872Y007256D01*
X008978Y007256D01*
X009405Y006829D01*
X009405Y007256D01*
X009405Y007473D02*
X008765Y007473D01*
X008978Y007687D01*
X008765Y007900D01*
X009405Y007900D01*
X009405Y008118D02*
X008765Y008545D01*
X008872Y008762D02*
X008765Y008869D01*
X008765Y009082D01*
X008872Y009189D01*
X008978Y009189D01*
X009405Y008762D01*
X009405Y009189D01*
X009299Y009407D02*
X009405Y009513D01*
X009405Y009727D01*
X009299Y009834D01*
X009085Y009834D01*
X008978Y009727D01*
X008978Y009620D01*
X009085Y009407D01*
X008765Y009407D01*
X008765Y009834D01*
X008872Y010051D02*
X008765Y010158D01*
X008765Y010371D01*
X008872Y010478D01*
X009299Y010051D01*
X009405Y010158D01*
X009405Y010371D01*
X009299Y010478D01*
X008872Y010478D01*
X008765Y010696D02*
X008765Y011123D01*
X008978Y011340D02*
X008765Y011554D01*
X009405Y011554D01*
X009405Y011767D02*
X009405Y011340D01*
X009085Y010909D02*
X009085Y010696D01*
X009405Y010696D02*
X008765Y010696D01*
X008872Y010051D02*
X009299Y010051D01*
X009405Y008545D02*
X008765Y008118D01*
X006535Y011435D02*
X005835Y011435D01*
X005818Y011437D01*
X005801Y011441D01*
X005785Y011448D01*
X005771Y011458D01*
X005758Y011471D01*
X005748Y011485D01*
X005741Y011501D01*
X005737Y011518D01*
X005735Y011535D01*
X005735Y011685D01*
X005785Y011735D01*
X005785Y013635D01*
X005735Y013685D01*
X005735Y013835D01*
X005737Y013852D01*
X005741Y013869D01*
X005748Y013885D01*
X005758Y013899D01*
X005771Y013912D01*
X005785Y013922D01*
X005801Y013929D01*
X005818Y013933D01*
X005835Y013935D01*
X006535Y013935D01*
X006552Y013933D01*
X006569Y013929D01*
X006585Y013922D01*
X006599Y013912D01*
X006612Y013899D01*
X006622Y013885D01*
X006629Y013869D01*
X006633Y013852D01*
X006635Y013835D01*
X006635Y013685D01*
X006585Y013635D01*
X006585Y011735D01*
X006635Y011685D01*
X006635Y011535D01*
X006633Y011518D01*
X006629Y011501D01*
X006622Y011485D01*
X006612Y011471D01*
X006599Y011458D01*
X006585Y011448D01*
X006569Y011441D01*
X006552Y011437D01*
X006535Y011435D01*
X008765Y012092D02*
X008872Y011985D01*
X008765Y012092D02*
X008765Y012305D01*
X008872Y012412D01*
X008978Y012412D01*
X009405Y011985D01*
X009405Y012412D01*
X009299Y012629D02*
X009192Y012629D01*
X009085Y012736D01*
X009085Y012950D01*
X009192Y013056D01*
X009299Y013056D01*
X009405Y012950D01*
X009405Y012736D01*
X009299Y012629D01*
X009085Y012736D02*
X008978Y012629D01*
X008872Y012629D01*
X008765Y012736D01*
X008765Y012950D01*
X008872Y013056D01*
X008978Y013056D01*
X009085Y012950D01*
X009085Y013274D02*
X009085Y013594D01*
X009192Y013701D01*
X009299Y013701D01*
X009405Y013594D01*
X009405Y013274D01*
X008765Y013274D01*
X008765Y013594D01*
X008872Y013701D01*
X008978Y013701D01*
X009085Y013594D01*
X006685Y015835D02*
X006685Y017535D01*
X006683Y017552D01*
X006679Y017569D01*
X006672Y017585D01*
X006662Y017599D01*
X006649Y017612D01*
X006635Y017622D01*
X006619Y017629D01*
X006602Y017633D01*
X006585Y017635D01*
X005785Y017635D01*
X005768Y017633D01*
X005751Y017629D01*
X005735Y017622D01*
X005721Y017612D01*
X005708Y017599D01*
X005698Y017585D01*
X005691Y017569D01*
X005687Y017552D01*
X005685Y017535D01*
X005685Y015835D01*
X005687Y015818D01*
X005691Y015801D01*
X005698Y015785D01*
X005708Y015771D01*
X005721Y015758D01*
X005735Y015748D01*
X005751Y015741D01*
X005768Y015737D01*
X005785Y015735D01*
X006585Y015735D01*
X006602Y015737D01*
X006619Y015741D01*
X006635Y015748D01*
X006649Y015758D01*
X006662Y015771D01*
X006672Y015785D01*
X006679Y015801D01*
X006683Y015818D01*
X006685Y015835D01*
X006185Y016535D02*
X006185Y016585D01*
X006185Y016785D02*
X006185Y016835D01*
X004685Y017535D02*
X004685Y015835D01*
X004683Y015818D01*
X004679Y015801D01*
X004672Y015785D01*
X004662Y015771D01*
X004649Y015758D01*
X004635Y015748D01*
X004619Y015741D01*
X004602Y015737D01*
X004585Y015735D01*
X003785Y015735D01*
X003768Y015737D01*
X003751Y015741D01*
X003735Y015748D01*
X003721Y015758D01*
X003708Y015771D01*
X003698Y015785D01*
X003691Y015801D01*
X003687Y015818D01*
X003685Y015835D01*
X003685Y017535D01*
X003687Y017552D01*
X003691Y017569D01*
X003698Y017585D01*
X003708Y017599D01*
X003721Y017612D01*
X003735Y017622D01*
X003751Y017629D01*
X003768Y017633D01*
X003785Y017635D01*
X004585Y017635D01*
X004602Y017633D01*
X004619Y017629D01*
X004635Y017622D01*
X004649Y017612D01*
X004662Y017599D01*
X004672Y017585D01*
X004679Y017569D01*
X004683Y017552D01*
X004685Y017535D01*
X004185Y016835D02*
X004185Y016785D01*
X004185Y016585D02*
X004185Y016535D01*
X011735Y015085D02*
X011735Y014285D01*
X011737Y014268D01*
X011741Y014251D01*
X011748Y014235D01*
X011758Y014221D01*
X011771Y014208D01*
X011785Y014198D01*
X011801Y014191D01*
X011818Y014187D01*
X011835Y014185D01*
X013535Y014185D01*
X013552Y014187D01*
X013569Y014191D01*
X013585Y014198D01*
X013599Y014208D01*
X013612Y014221D01*
X013622Y014235D01*
X013629Y014251D01*
X013633Y014268D01*
X013635Y014285D01*
X013635Y015085D01*
X013633Y015102D01*
X013629Y015119D01*
X013622Y015135D01*
X013612Y015149D01*
X013599Y015162D01*
X013585Y015172D01*
X013569Y015179D01*
X013552Y015183D01*
X013535Y015185D01*
X011835Y015185D01*
X011818Y015183D01*
X011801Y015179D01*
X011785Y015172D01*
X011771Y015162D01*
X011758Y015149D01*
X011748Y015135D01*
X011741Y015119D01*
X011737Y015102D01*
X011735Y015085D01*
X012535Y014685D02*
X012585Y014685D01*
X012785Y014685D02*
X012835Y014685D01*
X013585Y013392D02*
X013585Y012965D01*
X012685Y012085D02*
X012640Y012087D01*
X012594Y012092D01*
X012550Y012100D01*
X012506Y012112D01*
X012463Y012128D01*
X012421Y012146D01*
X012381Y012168D01*
X012343Y012192D01*
X012307Y012219D01*
X012272Y012249D01*
X012241Y012282D01*
X012211Y012317D01*
X012685Y012085D02*
X012730Y012087D01*
X012776Y012092D01*
X012820Y012100D01*
X012864Y012112D01*
X012907Y012128D01*
X012949Y012146D01*
X012989Y012168D01*
X013027Y012192D01*
X013063Y012219D01*
X013098Y012249D01*
X013129Y012282D01*
X013159Y012317D01*
X012685Y013285D02*
X012639Y013283D01*
X012593Y013278D01*
X012547Y013269D01*
X012502Y013257D01*
X012459Y013241D01*
X012417Y013222D01*
X012376Y013199D01*
X012337Y013174D01*
X012301Y013146D01*
X012266Y013115D01*
X012234Y013081D01*
X012205Y013045D01*
X012685Y013285D02*
X012732Y013283D01*
X012780Y013277D01*
X012826Y013268D01*
X012872Y013255D01*
X012916Y013239D01*
X012960Y013219D01*
X013001Y013195D01*
X013040Y013169D01*
X013077Y013139D01*
X013112Y013106D01*
X013144Y013071D01*
X013173Y013034D01*
X014335Y014185D02*
X016035Y014185D01*
X016052Y014187D01*
X016069Y014191D01*
X016085Y014198D01*
X016099Y014208D01*
X016112Y014221D01*
X016122Y014235D01*
X016129Y014251D01*
X016133Y014268D01*
X016135Y014285D01*
X016135Y015085D01*
X016133Y015102D01*
X016129Y015119D01*
X016122Y015135D01*
X016112Y015149D01*
X016099Y015162D01*
X016085Y015172D01*
X016069Y015179D01*
X016052Y015183D01*
X016035Y015185D01*
X014335Y015185D01*
X014318Y015183D01*
X014301Y015179D01*
X014285Y015172D01*
X014271Y015162D01*
X014258Y015149D01*
X014248Y015135D01*
X014241Y015119D01*
X014237Y015102D01*
X014235Y015085D01*
X014235Y014285D01*
X014237Y014268D01*
X014241Y014251D01*
X014248Y014235D01*
X014258Y014221D01*
X014271Y014208D01*
X014285Y014198D01*
X014301Y014191D01*
X014318Y014187D01*
X014335Y014185D01*
X015035Y014685D02*
X015085Y014685D01*
X015285Y014685D02*
X015335Y014685D01*
X015285Y015685D02*
X014135Y015685D01*
X015285Y015685D02*
X015385Y015785D01*
X015385Y019585D01*
X015285Y019685D01*
X014135Y019685D01*
X017965Y015536D02*
X018392Y015536D01*
X019285Y014685D02*
X019283Y014640D01*
X019278Y014594D01*
X019270Y014550D01*
X019258Y014506D01*
X019242Y014463D01*
X019224Y014421D01*
X019202Y014381D01*
X019178Y014343D01*
X019151Y014307D01*
X019121Y014272D01*
X019088Y014241D01*
X019053Y014211D01*
X019285Y014685D02*
X019283Y014730D01*
X019278Y014776D01*
X019270Y014820D01*
X019258Y014864D01*
X019242Y014907D01*
X019224Y014949D01*
X019202Y014989D01*
X019178Y015027D01*
X019151Y015063D01*
X019121Y015098D01*
X019088Y015129D01*
X019053Y015159D01*
X018085Y014685D02*
X018087Y014639D01*
X018092Y014593D01*
X018101Y014547D01*
X018113Y014502D01*
X018129Y014459D01*
X018148Y014417D01*
X018171Y014376D01*
X018196Y014337D01*
X018224Y014301D01*
X018255Y014266D01*
X018289Y014234D01*
X018325Y014205D01*
X018085Y014685D02*
X018087Y014732D01*
X018093Y014780D01*
X018102Y014826D01*
X018115Y014872D01*
X018131Y014916D01*
X018151Y014960D01*
X018175Y015001D01*
X018201Y015040D01*
X018231Y015077D01*
X018264Y015112D01*
X018299Y015144D01*
X018336Y015173D01*
X017835Y013385D02*
X017685Y013385D01*
X017635Y013335D01*
X015735Y013335D01*
X015685Y013385D01*
X015535Y013385D01*
X015518Y013383D01*
X015501Y013379D01*
X015485Y013372D01*
X015471Y013362D01*
X015458Y013349D01*
X015448Y013335D01*
X015441Y013319D01*
X015437Y013302D01*
X015435Y013285D01*
X015435Y012585D01*
X015437Y012568D01*
X015441Y012551D01*
X015448Y012535D01*
X015458Y012521D01*
X015471Y012508D01*
X015485Y012498D01*
X015501Y012491D01*
X015518Y012487D01*
X015535Y012485D01*
X015685Y012485D01*
X015735Y012535D01*
X017635Y012535D01*
X017685Y012485D01*
X017835Y012485D01*
X017852Y012487D01*
X017869Y012491D01*
X017885Y012498D01*
X017899Y012508D01*
X017912Y012521D01*
X017922Y012535D01*
X017929Y012551D01*
X017933Y012568D01*
X017935Y012585D01*
X017935Y013285D01*
X017933Y013302D01*
X017929Y013319D01*
X017922Y013335D01*
X017912Y013349D01*
X017899Y013362D01*
X017885Y013372D01*
X017869Y013379D01*
X017852Y013383D01*
X017835Y013385D01*
X017835Y012135D02*
X017685Y012135D01*
X017635Y012085D01*
X015735Y012085D01*
X015685Y012135D01*
X015535Y012135D01*
X015518Y012133D01*
X015501Y012129D01*
X015485Y012122D01*
X015471Y012112D01*
X015458Y012099D01*
X015448Y012085D01*
X015441Y012069D01*
X015437Y012052D01*
X015435Y012035D01*
X015435Y011335D01*
X015437Y011318D01*
X015441Y011301D01*
X015448Y011285D01*
X015458Y011271D01*
X015471Y011258D01*
X015485Y011248D01*
X015501Y011241D01*
X015518Y011237D01*
X015535Y011235D01*
X015685Y011235D01*
X015735Y011285D01*
X017635Y011285D01*
X017685Y011235D01*
X017835Y011235D01*
X017852Y011237D01*
X017869Y011241D01*
X017885Y011248D01*
X017899Y011258D01*
X017912Y011271D01*
X017922Y011285D01*
X017929Y011301D01*
X017933Y011318D01*
X017935Y011335D01*
X017935Y012035D01*
X017933Y012052D01*
X017929Y012069D01*
X017922Y012085D01*
X017912Y012099D01*
X017899Y012112D01*
X017885Y012122D01*
X017869Y012129D01*
X017852Y012133D01*
X017835Y012135D01*
X016035Y005685D02*
X015335Y005685D01*
X015318Y005683D01*
X015301Y005679D01*
X015285Y005672D01*
X015271Y005662D01*
X015258Y005649D01*
X015248Y005635D01*
X015241Y005619D01*
X015237Y005602D01*
X015235Y005585D01*
X015235Y005435D01*
X015285Y005385D01*
X015285Y003485D01*
X015235Y003435D01*
X015235Y003285D01*
X015237Y003268D01*
X015241Y003251D01*
X015248Y003235D01*
X015258Y003221D01*
X015271Y003208D01*
X015285Y003198D01*
X015301Y003191D01*
X015318Y003187D01*
X015335Y003185D01*
X016035Y003185D01*
X016052Y003187D01*
X016069Y003191D01*
X016085Y003198D01*
X016099Y003208D01*
X016112Y003221D01*
X016122Y003235D01*
X016129Y003251D01*
X016133Y003268D01*
X016135Y003285D01*
X016135Y003435D01*
X016085Y003485D01*
X016085Y005385D01*
X016135Y005435D01*
X016135Y005585D01*
X016133Y005602D01*
X016129Y005619D01*
X016122Y005635D01*
X016112Y005649D01*
X016099Y005662D01*
X016085Y005672D01*
X016069Y005679D01*
X016052Y005683D01*
X016035Y005685D01*
X014635Y005585D02*
X014635Y005435D01*
X014585Y005385D01*
X014585Y003485D01*
X014635Y003435D01*
X014635Y003285D01*
X014633Y003268D01*
X014629Y003251D01*
X014622Y003235D01*
X014612Y003221D01*
X014599Y003208D01*
X014585Y003198D01*
X014569Y003191D01*
X014552Y003187D01*
X014535Y003185D01*
X013835Y003185D01*
X013818Y003187D01*
X013801Y003191D01*
X013785Y003198D01*
X013771Y003208D01*
X013758Y003221D01*
X013748Y003235D01*
X013741Y003251D01*
X013737Y003268D01*
X013735Y003285D01*
X013735Y003435D01*
X013785Y003485D01*
X013785Y005385D01*
X013735Y005435D01*
X013735Y005585D01*
X013737Y005602D01*
X013741Y005619D01*
X013748Y005635D01*
X013758Y005649D01*
X013771Y005662D01*
X013785Y005672D01*
X013801Y005679D01*
X013818Y005683D01*
X013835Y005685D01*
X014535Y005685D01*
X014552Y005683D01*
X014569Y005679D01*
X014585Y005672D01*
X014599Y005662D01*
X014612Y005649D01*
X014622Y005635D01*
X014629Y005619D01*
X014633Y005602D01*
X014635Y005585D01*
X012317Y003159D02*
X012282Y003129D01*
X012249Y003098D01*
X012219Y003063D01*
X012192Y003027D01*
X012168Y002989D01*
X012146Y002949D01*
X012128Y002907D01*
X012112Y002864D01*
X012100Y002820D01*
X012092Y002776D01*
X012087Y002730D01*
X012085Y002685D01*
X012087Y002640D01*
X012092Y002594D01*
X012100Y002550D01*
X012112Y002506D01*
X012128Y002463D01*
X012146Y002421D01*
X012168Y002381D01*
X012192Y002343D01*
X012219Y002307D01*
X012249Y002272D01*
X012282Y002241D01*
X012317Y002211D01*
X012392Y001786D02*
X011965Y001786D01*
X013285Y002685D02*
X013283Y002731D01*
X013278Y002777D01*
X013269Y002823D01*
X013257Y002868D01*
X013241Y002911D01*
X013222Y002953D01*
X013199Y002994D01*
X013174Y003033D01*
X013146Y003069D01*
X013115Y003104D01*
X013081Y003136D01*
X013045Y003165D01*
X013285Y002685D02*
X013283Y002638D01*
X013277Y002590D01*
X013268Y002544D01*
X013255Y002498D01*
X013239Y002454D01*
X013219Y002410D01*
X013195Y002369D01*
X013169Y002330D01*
X013139Y002293D01*
X013106Y002258D01*
X013071Y002226D01*
X013034Y002197D01*
D14*
X011885Y005485D02*
X011885Y005885D01*
X011451Y006185D02*
X011453Y006247D01*
X011459Y006310D01*
X011469Y006371D01*
X011483Y006432D01*
X011500Y006492D01*
X011521Y006551D01*
X011547Y006608D01*
X011575Y006663D01*
X011607Y006717D01*
X011643Y006768D01*
X011681Y006818D01*
X011723Y006864D01*
X011767Y006908D01*
X011815Y006949D01*
X011864Y006987D01*
X011916Y007021D01*
X011970Y007052D01*
X012026Y007080D01*
X012084Y007104D01*
X012143Y007125D01*
X012203Y007141D01*
X012264Y007154D01*
X012326Y007163D01*
X012388Y007168D01*
X012451Y007169D01*
X012513Y007166D01*
X012575Y007159D01*
X012637Y007148D01*
X012697Y007133D01*
X012757Y007115D01*
X012815Y007093D01*
X012872Y007067D01*
X012927Y007037D01*
X012980Y007004D01*
X013031Y006968D01*
X013079Y006929D01*
X013125Y006886D01*
X013168Y006841D01*
X013208Y006793D01*
X013245Y006743D01*
X013279Y006690D01*
X013310Y006636D01*
X013336Y006580D01*
X013360Y006522D01*
X013379Y006462D01*
X013395Y006402D01*
X013407Y006340D01*
X013415Y006279D01*
X013419Y006216D01*
X013419Y006154D01*
X013415Y006091D01*
X013407Y006030D01*
X013395Y005968D01*
X013379Y005908D01*
X013360Y005848D01*
X013336Y005790D01*
X013310Y005734D01*
X013279Y005680D01*
X013245Y005627D01*
X013208Y005577D01*
X013168Y005529D01*
X013125Y005484D01*
X013079Y005441D01*
X013031Y005402D01*
X012980Y005366D01*
X012927Y005333D01*
X012872Y005303D01*
X012815Y005277D01*
X012757Y005255D01*
X012697Y005237D01*
X012637Y005222D01*
X012575Y005211D01*
X012513Y005204D01*
X012451Y005201D01*
X012388Y005202D01*
X012326Y005207D01*
X012264Y005216D01*
X012203Y005229D01*
X012143Y005245D01*
X012084Y005266D01*
X012026Y005290D01*
X011970Y005318D01*
X011916Y005349D01*
X011864Y005383D01*
X011815Y005421D01*
X011767Y005462D01*
X011723Y005506D01*
X011681Y005552D01*
X011643Y005602D01*
X011607Y005653D01*
X011575Y005707D01*
X011547Y005762D01*
X011521Y005819D01*
X011500Y005878D01*
X011483Y005938D01*
X011469Y005999D01*
X011459Y006060D01*
X011453Y006123D01*
X011451Y006185D01*
X019185Y006435D02*
X019185Y006935D01*
X019435Y007185D01*
X019185Y007435D01*
X019185Y007935D01*
X019435Y008185D01*
X019185Y008435D01*
X019185Y008935D01*
X019435Y009185D01*
X019185Y009435D01*
X019185Y009935D01*
X019435Y010185D01*
X019935Y010185D01*
X020185Y009935D01*
X020185Y009435D01*
X019935Y009185D01*
X020185Y008935D01*
X020185Y008435D01*
X019935Y008185D01*
X020185Y007935D01*
X020185Y007435D01*
X019935Y007185D01*
X020185Y006935D01*
X020185Y006435D01*
X019935Y006185D01*
X019435Y006185D01*
X019185Y006435D01*
X019435Y005185D02*
X019185Y004935D01*
X019185Y004435D01*
X019435Y004185D01*
X019185Y003935D01*
X019185Y003435D01*
X019435Y003185D01*
X019185Y002935D01*
X019185Y002435D01*
X019435Y002185D01*
X019185Y001935D01*
X019185Y001435D01*
X019435Y001185D01*
X019935Y001185D01*
X020185Y001435D01*
X020185Y001935D01*
X019935Y002185D01*
X020185Y002435D01*
X020185Y002935D01*
X019935Y003185D01*
X020185Y003435D01*
X020185Y003935D01*
X019935Y004185D01*
X020185Y004435D01*
X020185Y004935D01*
X019935Y005185D01*
X019435Y005185D01*
X008135Y016985D02*
X008135Y017385D01*
X007701Y017685D02*
X007703Y017747D01*
X007709Y017810D01*
X007719Y017871D01*
X007733Y017932D01*
X007750Y017992D01*
X007771Y018051D01*
X007797Y018108D01*
X007825Y018163D01*
X007857Y018217D01*
X007893Y018268D01*
X007931Y018318D01*
X007973Y018364D01*
X008017Y018408D01*
X008065Y018449D01*
X008114Y018487D01*
X008166Y018521D01*
X008220Y018552D01*
X008276Y018580D01*
X008334Y018604D01*
X008393Y018625D01*
X008453Y018641D01*
X008514Y018654D01*
X008576Y018663D01*
X008638Y018668D01*
X008701Y018669D01*
X008763Y018666D01*
X008825Y018659D01*
X008887Y018648D01*
X008947Y018633D01*
X009007Y018615D01*
X009065Y018593D01*
X009122Y018567D01*
X009177Y018537D01*
X009230Y018504D01*
X009281Y018468D01*
X009329Y018429D01*
X009375Y018386D01*
X009418Y018341D01*
X009458Y018293D01*
X009495Y018243D01*
X009529Y018190D01*
X009560Y018136D01*
X009586Y018080D01*
X009610Y018022D01*
X009629Y017962D01*
X009645Y017902D01*
X009657Y017840D01*
X009665Y017779D01*
X009669Y017716D01*
X009669Y017654D01*
X009665Y017591D01*
X009657Y017530D01*
X009645Y017468D01*
X009629Y017408D01*
X009610Y017348D01*
X009586Y017290D01*
X009560Y017234D01*
X009529Y017180D01*
X009495Y017127D01*
X009458Y017077D01*
X009418Y017029D01*
X009375Y016984D01*
X009329Y016941D01*
X009281Y016902D01*
X009230Y016866D01*
X009177Y016833D01*
X009122Y016803D01*
X009065Y016777D01*
X009007Y016755D01*
X008947Y016737D01*
X008887Y016722D01*
X008825Y016711D01*
X008763Y016704D01*
X008701Y016701D01*
X008638Y016702D01*
X008576Y016707D01*
X008514Y016716D01*
X008453Y016729D01*
X008393Y016745D01*
X008334Y016766D01*
X008276Y016790D01*
X008220Y016818D01*
X008166Y016849D01*
X008114Y016883D01*
X008065Y016921D01*
X008017Y016962D01*
X007973Y017006D01*
X007931Y017052D01*
X007893Y017102D01*
X007857Y017153D01*
X007825Y017207D01*
X007797Y017262D01*
X007771Y017319D01*
X007750Y017378D01*
X007733Y017438D01*
X007719Y017499D01*
X007709Y017560D01*
X007703Y017623D01*
X007701Y017685D01*
X006185Y018935D02*
X005935Y018685D01*
X005435Y018685D01*
X005185Y018935D01*
X004935Y018685D01*
X004435Y018685D01*
X004185Y018935D01*
X003935Y018685D01*
X003435Y018685D01*
X003185Y018935D01*
X002935Y018685D01*
X002435Y018685D01*
X002185Y018935D01*
X001935Y018685D01*
X001435Y018685D01*
X001185Y018935D01*
X001185Y019435D01*
X001435Y019685D01*
X001935Y019685D01*
X002185Y019435D01*
X002435Y019685D01*
X002935Y019685D01*
X003185Y019435D01*
X003435Y019685D01*
X003935Y019685D01*
X004185Y019435D01*
X004435Y019685D01*
X004935Y019685D01*
X005185Y019435D01*
X005435Y019685D01*
X005935Y019685D01*
X006185Y019435D01*
X006185Y018935D01*
X001685Y014935D02*
X001685Y014435D01*
X001435Y014185D01*
X001685Y013935D01*
X001685Y013435D01*
X001435Y013185D01*
X001685Y012935D01*
X001685Y012435D01*
X001435Y012185D01*
X001685Y011935D01*
X001685Y011435D01*
X001435Y011185D01*
X000935Y011185D01*
X000685Y011435D01*
X000685Y011935D01*
X000935Y012185D01*
X000685Y012435D01*
X000685Y012935D01*
X000935Y013185D01*
X000685Y013435D01*
X000685Y013935D01*
X000935Y014185D01*
X000685Y014435D01*
X000685Y014935D01*
X000935Y015185D01*
X001435Y015185D01*
X001685Y014935D01*
X001435Y010185D02*
X000935Y010185D01*
X000685Y009935D01*
X000685Y009435D01*
X000935Y009185D01*
X000685Y008935D01*
X000685Y008435D01*
X000935Y008185D01*
X000685Y007935D01*
X000685Y007435D01*
X000935Y007185D01*
X000685Y006935D01*
X000685Y006435D01*
X000935Y006185D01*
X001435Y006185D01*
X001685Y006435D01*
X001685Y006935D01*
X001435Y007185D01*
X001685Y007435D01*
X001685Y007935D01*
X001435Y008185D01*
X001685Y008435D01*
X001685Y008935D01*
X001435Y009185D01*
X001685Y009435D01*
X001685Y009935D01*
X001435Y010185D01*
X001435Y005185D02*
X000935Y005185D01*
X000685Y004935D01*
X000685Y004435D01*
X000935Y004185D01*
X000685Y003935D01*
X000685Y003435D01*
X000935Y003185D01*
X000685Y002935D01*
X000685Y002435D01*
X000935Y002185D01*
X000685Y001935D01*
X000685Y001435D01*
X000935Y001185D01*
X001435Y001185D01*
X001685Y001435D01*
X001685Y001935D01*
X001435Y002185D01*
X001685Y002435D01*
X001685Y002935D01*
X001435Y003185D01*
X001685Y003435D01*
X001685Y003935D01*
X001435Y004185D01*
X001685Y004435D01*
X001685Y004935D01*
X001435Y005185D01*
D15*
X002685Y006185D02*
X002685Y007185D01*
X003185Y007685D01*
X006185Y007685D01*
X006685Y007185D01*
X006685Y006185D01*
X006185Y005685D01*
X003185Y005685D01*
X002685Y006185D01*
X003185Y006435D02*
X003185Y006935D01*
X003435Y007185D01*
X003935Y007185D01*
X004185Y006935D01*
X004435Y007185D01*
X004935Y007185D01*
X005185Y006935D01*
X005435Y007185D01*
X005935Y007185D01*
X006185Y006935D01*
X006185Y006435D01*
X005935Y006185D01*
X005435Y006185D01*
X005185Y006435D01*
X004935Y006185D01*
X004435Y006185D01*
X004185Y006435D01*
X003935Y006185D01*
X003435Y006185D01*
X003185Y006435D01*
X006110Y011969D02*
X005960Y012119D01*
X006410Y012119D01*
X006410Y011969D02*
X006410Y012269D01*
X006335Y012430D02*
X006035Y012730D01*
X006335Y012730D01*
X006410Y012655D01*
X006410Y012505D01*
X006335Y012430D01*
X006035Y012430D01*
X005960Y012505D01*
X005960Y012655D01*
X006035Y012730D01*
X005960Y012890D02*
X006410Y012890D01*
X006260Y012890D02*
X005960Y013190D01*
X006185Y012965D02*
X006410Y013190D01*
X010685Y016685D02*
X010687Y016748D01*
X010693Y016810D01*
X010703Y016872D01*
X010716Y016934D01*
X010734Y016994D01*
X010755Y017053D01*
X010780Y017111D01*
X010809Y017167D01*
X010841Y017221D01*
X010876Y017273D01*
X010914Y017322D01*
X010956Y017370D01*
X011000Y017414D01*
X011048Y017456D01*
X011097Y017494D01*
X011149Y017529D01*
X011203Y017561D01*
X011259Y017590D01*
X011317Y017615D01*
X011376Y017636D01*
X011436Y017654D01*
X011498Y017667D01*
X011560Y017677D01*
X011622Y017683D01*
X011685Y017685D01*
X011748Y017683D01*
X011810Y017677D01*
X011872Y017667D01*
X011934Y017654D01*
X011994Y017636D01*
X012053Y017615D01*
X012111Y017590D01*
X012167Y017561D01*
X012221Y017529D01*
X012273Y017494D01*
X012322Y017456D01*
X012370Y017414D01*
X012414Y017370D01*
X012456Y017322D01*
X012494Y017273D01*
X012529Y017221D01*
X012561Y017167D01*
X012590Y017111D01*
X012615Y017053D01*
X012636Y016994D01*
X012654Y016934D01*
X012667Y016872D01*
X012677Y016810D01*
X012683Y016748D01*
X012685Y016685D01*
X012683Y016622D01*
X012677Y016560D01*
X012667Y016498D01*
X012654Y016436D01*
X012636Y016376D01*
X012615Y016317D01*
X012590Y016259D01*
X012561Y016203D01*
X012529Y016149D01*
X012494Y016097D01*
X012456Y016048D01*
X012414Y016000D01*
X012370Y015956D01*
X012322Y015914D01*
X012273Y015876D01*
X012221Y015841D01*
X012167Y015809D01*
X012111Y015780D01*
X012053Y015755D01*
X011994Y015734D01*
X011934Y015716D01*
X011872Y015703D01*
X011810Y015693D01*
X011748Y015687D01*
X011685Y015685D01*
X011622Y015687D01*
X011560Y015693D01*
X011498Y015703D01*
X011436Y015716D01*
X011376Y015734D01*
X011317Y015755D01*
X011259Y015780D01*
X011203Y015809D01*
X011149Y015841D01*
X011097Y015876D01*
X011048Y015914D01*
X011000Y015956D01*
X010956Y016000D01*
X010914Y016048D01*
X010876Y016097D01*
X010841Y016149D01*
X010809Y016203D01*
X010780Y016259D01*
X010755Y016317D01*
X010734Y016376D01*
X010716Y016436D01*
X010703Y016498D01*
X010693Y016560D01*
X010687Y016622D01*
X010685Y016685D01*
X010685Y019185D02*
X010687Y019248D01*
X010693Y019310D01*
X010703Y019372D01*
X010716Y019434D01*
X010734Y019494D01*
X010755Y019553D01*
X010780Y019611D01*
X010809Y019667D01*
X010841Y019721D01*
X010876Y019773D01*
X010914Y019822D01*
X010956Y019870D01*
X011000Y019914D01*
X011048Y019956D01*
X011097Y019994D01*
X011149Y020029D01*
X011203Y020061D01*
X011259Y020090D01*
X011317Y020115D01*
X011376Y020136D01*
X011436Y020154D01*
X011498Y020167D01*
X011560Y020177D01*
X011622Y020183D01*
X011685Y020185D01*
X011748Y020183D01*
X011810Y020177D01*
X011872Y020167D01*
X011934Y020154D01*
X011994Y020136D01*
X012053Y020115D01*
X012111Y020090D01*
X012167Y020061D01*
X012221Y020029D01*
X012273Y019994D01*
X012322Y019956D01*
X012370Y019914D01*
X012414Y019870D01*
X012456Y019822D01*
X012494Y019773D01*
X012529Y019721D01*
X012561Y019667D01*
X012590Y019611D01*
X012615Y019553D01*
X012636Y019494D01*
X012654Y019434D01*
X012667Y019372D01*
X012677Y019310D01*
X012683Y019248D01*
X012685Y019185D01*
X012683Y019122D01*
X012677Y019060D01*
X012667Y018998D01*
X012654Y018936D01*
X012636Y018876D01*
X012615Y018817D01*
X012590Y018759D01*
X012561Y018703D01*
X012529Y018649D01*
X012494Y018597D01*
X012456Y018548D01*
X012414Y018500D01*
X012370Y018456D01*
X012322Y018414D01*
X012273Y018376D01*
X012221Y018341D01*
X012167Y018309D01*
X012111Y018280D01*
X012053Y018255D01*
X011994Y018234D01*
X011934Y018216D01*
X011872Y018203D01*
X011810Y018193D01*
X011748Y018187D01*
X011685Y018185D01*
X011622Y018187D01*
X011560Y018193D01*
X011498Y018203D01*
X011436Y018216D01*
X011376Y018234D01*
X011317Y018255D01*
X011259Y018280D01*
X011203Y018309D01*
X011149Y018341D01*
X011097Y018376D01*
X011048Y018414D01*
X011000Y018456D01*
X010956Y018500D01*
X010914Y018548D01*
X010876Y018597D01*
X010841Y018649D01*
X010809Y018703D01*
X010780Y018759D01*
X010755Y018817D01*
X010734Y018876D01*
X010716Y018936D01*
X010703Y018998D01*
X010693Y019060D01*
X010687Y019122D01*
X010685Y019185D01*
X016044Y013161D02*
X016194Y013161D01*
X016269Y013086D01*
X016269Y013011D01*
X016194Y012936D01*
X016269Y012860D01*
X016269Y012785D01*
X016194Y012710D01*
X016044Y012710D01*
X015969Y012785D01*
X016119Y012936D02*
X016194Y012936D01*
X015969Y013086D02*
X016044Y013161D01*
X016430Y013086D02*
X016505Y013161D01*
X016655Y013161D01*
X016730Y013086D01*
X016730Y013011D01*
X016655Y012936D01*
X016730Y012860D01*
X016730Y012785D01*
X016655Y012710D01*
X016505Y012710D01*
X016430Y012785D01*
X016580Y012936D02*
X016655Y012936D01*
X016890Y013086D02*
X016965Y013161D01*
X017115Y013161D01*
X017190Y013086D01*
X016890Y012785D01*
X016965Y012710D01*
X017115Y012710D01*
X017190Y012785D01*
X017190Y013086D01*
X016890Y013086D02*
X016890Y012785D01*
X015910Y004940D02*
X015685Y004715D01*
X015760Y004640D02*
X015460Y004940D01*
X015460Y004640D02*
X015910Y004640D01*
X015835Y004480D02*
X015910Y004405D01*
X015910Y004255D01*
X015835Y004180D01*
X015535Y004480D01*
X015835Y004480D01*
X015535Y004480D02*
X015460Y004405D01*
X015460Y004255D01*
X015535Y004180D01*
X015835Y004180D01*
X015910Y004019D02*
X015910Y003719D01*
X015910Y003869D02*
X015460Y003869D01*
X015610Y003719D01*
X014410Y003794D02*
X014335Y003719D01*
X014410Y003794D02*
X014410Y003944D01*
X014335Y004019D01*
X014260Y004019D01*
X014185Y003944D01*
X014185Y003869D01*
X014185Y003944D02*
X014110Y004019D01*
X014035Y004019D01*
X013960Y003944D01*
X013960Y003794D01*
X014035Y003719D01*
X014035Y004180D02*
X013960Y004255D01*
X013960Y004405D01*
X014035Y004480D01*
X014110Y004480D01*
X014185Y004405D01*
X014260Y004480D01*
X014335Y004480D01*
X014410Y004405D01*
X014410Y004255D01*
X014335Y004180D01*
X014185Y004330D02*
X014185Y004405D01*
X014035Y004640D02*
X013960Y004715D01*
X013960Y004865D01*
X014035Y004940D01*
X014335Y004640D01*
X014410Y004715D01*
X014410Y004865D01*
X014335Y004940D01*
X014035Y004940D01*
X014035Y004640D02*
X014335Y004640D01*
D16*
X012288Y003380D02*
X012240Y003350D01*
X012195Y003317D01*
X012152Y003281D01*
X012111Y003243D01*
X012074Y003201D01*
X012039Y003157D01*
X012008Y003111D01*
X011979Y003062D01*
X011955Y003012D01*
X011934Y002960D01*
X011916Y002906D01*
X011903Y002852D01*
X011893Y002797D01*
X011887Y002741D01*
X011885Y002685D01*
X011887Y002632D01*
X011892Y002578D01*
X011901Y002526D01*
X011913Y002474D01*
X011929Y002423D01*
X011948Y002373D01*
X011971Y002324D01*
X011997Y002277D01*
X012025Y002232D01*
X012057Y002189D01*
X012091Y002149D01*
X012129Y002110D01*
X012168Y002074D01*
X013485Y002685D02*
X013483Y002739D01*
X013478Y002793D01*
X013469Y002846D01*
X013456Y002899D01*
X013440Y002950D01*
X013420Y003000D01*
X013397Y003049D01*
X013371Y003097D01*
X013342Y003142D01*
X013309Y003185D01*
X013274Y003226D01*
X013236Y003265D01*
X013196Y003301D01*
X013153Y003334D01*
X013108Y003364D01*
X013061Y003391D01*
X013485Y002685D02*
X013483Y002631D01*
X013478Y002578D01*
X013469Y002524D01*
X013456Y002472D01*
X013440Y002421D01*
X013420Y002370D01*
X013398Y002321D01*
X013372Y002274D01*
X013342Y002229D01*
X013310Y002186D01*
X013275Y002145D01*
X013237Y002106D01*
X013197Y002070D01*
X011979Y013061D02*
X012006Y013108D01*
X012036Y013153D01*
X012069Y013196D01*
X012105Y013236D01*
X012144Y013274D01*
X012185Y013309D01*
X012228Y013342D01*
X012273Y013371D01*
X012321Y013397D01*
X012370Y013420D01*
X012420Y013440D01*
X012471Y013456D01*
X012524Y013469D01*
X012577Y013478D01*
X012631Y013483D01*
X012685Y013485D01*
X011990Y012288D02*
X012020Y012240D01*
X012053Y012195D01*
X012089Y012152D01*
X012127Y012111D01*
X012169Y012074D01*
X012213Y012039D01*
X012259Y012008D01*
X012308Y011979D01*
X012358Y011955D01*
X012410Y011934D01*
X012464Y011916D01*
X012518Y011903D01*
X012573Y011893D01*
X012629Y011887D01*
X012685Y011885D01*
X012738Y011887D01*
X012792Y011892D01*
X012844Y011901D01*
X012896Y011913D01*
X012947Y011929D01*
X012997Y011948D01*
X013046Y011971D01*
X013093Y011997D01*
X013138Y012025D01*
X013181Y012057D01*
X013221Y012091D01*
X013260Y012129D01*
X013296Y012168D01*
X013300Y013197D02*
X013264Y013237D01*
X013225Y013275D01*
X013184Y013310D01*
X013141Y013342D01*
X013096Y013372D01*
X013049Y013398D01*
X013000Y013420D01*
X012949Y013440D01*
X012898Y013456D01*
X012846Y013469D01*
X012792Y013478D01*
X012739Y013483D01*
X012685Y013485D01*
X012585Y014385D02*
X012585Y014685D01*
X012585Y014985D01*
X012785Y014985D02*
X012785Y014685D01*
X012785Y014385D01*
X015085Y014385D02*
X015085Y014685D01*
X015085Y014985D01*
X015285Y014985D02*
X015285Y014685D01*
X015285Y014385D01*
X019082Y013990D02*
X019130Y014020D01*
X019175Y014053D01*
X019218Y014089D01*
X019259Y014127D01*
X019296Y014169D01*
X019331Y014213D01*
X019362Y014259D01*
X019391Y014308D01*
X019415Y014358D01*
X019436Y014410D01*
X019454Y014464D01*
X019467Y014518D01*
X019477Y014573D01*
X019483Y014629D01*
X019485Y014685D01*
X019483Y014738D01*
X019478Y014792D01*
X019469Y014844D01*
X019457Y014896D01*
X019441Y014947D01*
X019422Y014997D01*
X019399Y015046D01*
X019373Y015093D01*
X019345Y015138D01*
X019313Y015181D01*
X019279Y015221D01*
X019241Y015260D01*
X019202Y015296D01*
X017885Y014685D02*
X017887Y014631D01*
X017892Y014577D01*
X017901Y014524D01*
X017914Y014471D01*
X017930Y014420D01*
X017950Y014370D01*
X017973Y014321D01*
X017999Y014273D01*
X018028Y014228D01*
X018061Y014185D01*
X018096Y014144D01*
X018134Y014105D01*
X018174Y014069D01*
X018217Y014036D01*
X018262Y014006D01*
X018309Y013979D01*
X017885Y014685D02*
X017887Y014739D01*
X017892Y014792D01*
X017901Y014846D01*
X017914Y014898D01*
X017930Y014949D01*
X017950Y015000D01*
X017972Y015049D01*
X017998Y015096D01*
X018028Y015141D01*
X018060Y015184D01*
X018095Y015225D01*
X018133Y015264D01*
X018173Y015300D01*
X006485Y016585D02*
X006185Y016585D01*
X005885Y016585D01*
X005885Y016785D02*
X006185Y016785D01*
X006485Y016785D01*
X004485Y016785D02*
X004185Y016785D01*
X003885Y016785D01*
X003885Y016585D02*
X004185Y016585D01*
X004485Y016585D01*
D17*
X015145Y015865D03*
D18*
X013935Y015960D03*
X013935Y019410D03*
D19*
X013835Y018685D03*
X013835Y017685D03*
X013835Y016685D03*
D20*
X013935Y017185D03*
X013935Y018185D03*
D21*
X015265Y012935D03*
X015265Y011685D03*
X018105Y011685D03*
X018105Y012935D03*
D22*
X015685Y005855D03*
X014185Y005855D03*
X014185Y003015D03*
X015685Y003015D03*
X006185Y011265D03*
X006185Y014105D03*
M02*
