G75*
G70*
%OFA0B0*%
%FSLAX24Y24*%
%IPPOS*%
%LPD*%
%AMOC8*
5,1,8,0,0,1.08239X$1,22.5*
%
%ADD10C,0.0000*%
%ADD11R,0.0780X0.0780*%
%ADD12C,0.0780*%
%ADD13C,0.0740*%
%ADD14R,0.0740X0.0740*%
%ADD15OC8,0.0560*%
%ADD16C,0.0640*%
%ADD17C,0.0555*%
%ADD18C,0.1162*%
%ADD19OC8,0.0685*%
D10*
X000685Y000685D02*
X000685Y020370D01*
X020370Y020370D01*
X020370Y000685D01*
X000685Y000685D01*
D11*
X001185Y004685D03*
X001185Y009685D03*
X001185Y014685D03*
X005685Y019185D03*
X019685Y009685D03*
X019685Y004685D03*
D12*
X019685Y003685D03*
X019685Y002685D03*
X019685Y001685D03*
X019685Y006685D03*
X019685Y007685D03*
X019685Y008685D03*
X004685Y019185D03*
X003685Y019185D03*
X002685Y019185D03*
X001685Y019185D03*
X001185Y013685D03*
X001185Y012685D03*
X001185Y011685D03*
X001185Y008685D03*
X001185Y007685D03*
X001185Y006685D03*
X001185Y003685D03*
X001185Y002685D03*
X001185Y001685D03*
D13*
X003685Y006685D03*
X005685Y006685D03*
X007685Y006685D03*
X007685Y007685D03*
X007685Y008685D03*
X007685Y009685D03*
X007685Y010685D03*
X007685Y011685D03*
X007685Y012685D03*
X007685Y013685D03*
X010685Y013685D03*
X010685Y012685D03*
X010685Y011685D03*
X010685Y010685D03*
X010685Y009685D03*
X010685Y008685D03*
X010685Y007685D03*
X010685Y006685D03*
X010685Y005685D03*
X010685Y004685D03*
X010685Y003685D03*
X010685Y002685D03*
X010685Y001685D03*
X007685Y001685D03*
X007685Y002685D03*
X007685Y003685D03*
X007685Y004685D03*
X007685Y005685D03*
X012435Y005685D03*
X010685Y014685D03*
X010685Y016685D03*
X012685Y016685D03*
X012685Y019185D03*
X010685Y019185D03*
X008685Y017185D03*
D14*
X008685Y018185D03*
X007685Y014685D03*
X004685Y006685D03*
X012435Y006685D03*
D15*
X012685Y003185D03*
X012685Y002185D03*
X012185Y012685D03*
X013185Y012685D03*
X018685Y014185D03*
X018685Y015185D03*
D16*
X014985Y016685D02*
X014385Y016685D01*
X014385Y017685D02*
X014985Y017685D01*
X014985Y018685D02*
X014385Y018685D01*
D17*
X016985Y017085D03*
X017685Y017085D03*
X018355Y017085D03*
X018045Y017705D03*
X017355Y017705D03*
D18*
X016248Y019185D03*
X019122Y019185D03*
D19*
X015685Y014685D03*
X014685Y014685D03*
X013185Y014685D03*
X012185Y014685D03*
X014685Y012935D03*
X014685Y011685D03*
X018685Y011685D03*
X018685Y012935D03*
X015685Y006435D03*
X014185Y006435D03*
X014185Y002435D03*
X015685Y002435D03*
X006185Y010685D03*
X006185Y014685D03*
X006185Y016185D03*
X006185Y017185D03*
X004185Y017185D03*
X004185Y016185D03*
M02*
