G75*
G70*
%OFA0B0*%
%FSLAX24Y24*%
%IPPOS*%
%LPD*%
%AMOC8*
5,1,8,0,0,1.08239X$1,22.5*
%
%ADD10C,0.0000*%
%ADD11C,0.0030*%
%ADD12C,0.0050*%
D10*
X000685Y000685D02*
X000685Y020370D01*
X020370Y020370D01*
X020370Y000685D01*
X000685Y000685D01*
D11*
X001990Y001547D02*
X001990Y001741D01*
X002184Y001741D02*
X002184Y001547D01*
X002087Y001450D01*
X001990Y001547D01*
X002285Y001547D02*
X002285Y001499D01*
X002333Y001450D01*
X002430Y001450D01*
X002478Y001499D01*
X002577Y001499D02*
X002577Y001450D01*
X002626Y001450D01*
X002626Y001499D01*
X002577Y001499D01*
X002727Y001499D02*
X002775Y001450D01*
X002872Y001450D01*
X002920Y001499D01*
X002824Y001595D02*
X002775Y001595D01*
X002727Y001547D01*
X002727Y001499D01*
X002775Y001595D02*
X002727Y001644D01*
X002727Y001692D01*
X002775Y001741D01*
X002872Y001741D01*
X002920Y001692D01*
X002478Y001692D02*
X002430Y001741D01*
X002333Y001741D01*
X002285Y001692D01*
X002285Y001644D01*
X002333Y001595D01*
X002285Y001547D01*
X002333Y001595D02*
X002382Y001595D01*
X002432Y002450D02*
X002432Y002741D01*
X002331Y002741D02*
X002186Y002741D01*
X002138Y002692D01*
X002138Y002499D01*
X002186Y002450D01*
X002331Y002450D01*
X002331Y002741D01*
X002626Y002741D02*
X002432Y002450D01*
X002626Y002450D02*
X002626Y002741D01*
X002727Y002692D02*
X002775Y002741D01*
X002872Y002741D01*
X002920Y002692D01*
X002920Y002499D01*
X002872Y002450D01*
X002775Y002450D01*
X002727Y002499D01*
X002727Y002595D01*
X002824Y002595D01*
X002775Y003450D02*
X002920Y003450D01*
X002920Y003741D01*
X002775Y003741D01*
X002727Y003692D01*
X002727Y003644D01*
X002775Y003595D01*
X002920Y003595D01*
X002775Y003595D02*
X002727Y003547D01*
X002727Y003499D01*
X002775Y003450D01*
X002626Y003499D02*
X002577Y003450D01*
X002481Y003450D01*
X002432Y003499D01*
X002432Y003595D01*
X002481Y003644D01*
X002529Y003644D01*
X002626Y003595D01*
X002626Y003741D01*
X002432Y003741D01*
X002481Y004450D02*
X002481Y004741D01*
X002626Y004595D01*
X002432Y004595D01*
X002727Y004595D02*
X002920Y004595D01*
X002920Y004644D02*
X002824Y004741D01*
X002727Y004644D01*
X002727Y004450D01*
X002920Y004450D02*
X002920Y004644D01*
X002920Y006450D02*
X002775Y006450D01*
X002727Y006499D01*
X002727Y006547D01*
X002775Y006595D01*
X002920Y006595D01*
X002920Y006450D02*
X002920Y006741D01*
X002775Y006741D01*
X002727Y006692D01*
X002727Y006644D01*
X002775Y006595D01*
X002626Y006595D02*
X002432Y006595D01*
X002481Y006450D02*
X002481Y006741D01*
X002626Y006595D01*
X002577Y007450D02*
X002481Y007450D01*
X002432Y007499D01*
X002432Y007547D01*
X002481Y007595D01*
X002529Y007595D01*
X002481Y007595D02*
X002432Y007644D01*
X002432Y007692D01*
X002481Y007741D01*
X002577Y007741D01*
X002626Y007692D01*
X002727Y007692D02*
X002775Y007741D01*
X002920Y007741D01*
X002920Y007450D01*
X002775Y007450D01*
X002727Y007499D01*
X002727Y007547D01*
X002775Y007595D01*
X002920Y007595D01*
X002775Y007595D02*
X002727Y007644D01*
X002727Y007692D01*
X002626Y007499D02*
X002577Y007450D01*
X002626Y008450D02*
X002432Y008450D01*
X002626Y008450D02*
X002432Y008644D01*
X002432Y008692D01*
X002481Y008741D01*
X002577Y008741D01*
X002626Y008692D01*
X002727Y008692D02*
X002727Y008644D01*
X002775Y008595D01*
X002920Y008595D01*
X002920Y008450D02*
X002920Y008741D01*
X002775Y008741D01*
X002727Y008692D01*
X002775Y008595D02*
X002727Y008547D01*
X002727Y008499D01*
X002775Y008450D01*
X002920Y008450D01*
X002920Y009450D02*
X002775Y009450D01*
X002727Y009499D01*
X002727Y009547D01*
X002775Y009595D01*
X002920Y009595D01*
X002920Y009450D02*
X002920Y009741D01*
X002775Y009741D01*
X002727Y009692D01*
X002727Y009644D01*
X002775Y009595D01*
X002626Y009644D02*
X002529Y009741D01*
X002529Y009450D01*
X002626Y009450D02*
X002432Y009450D01*
X002481Y011450D02*
X002577Y011450D01*
X002626Y011499D01*
X002432Y011692D01*
X002432Y011499D01*
X002481Y011450D01*
X002626Y011499D02*
X002626Y011692D01*
X002577Y011741D01*
X002481Y011741D01*
X002432Y011692D01*
X002727Y011692D02*
X002727Y011644D01*
X002775Y011595D01*
X002920Y011595D01*
X002920Y011450D02*
X002775Y011450D01*
X002727Y011499D01*
X002727Y011547D01*
X002775Y011595D01*
X002727Y011692D02*
X002775Y011741D01*
X002920Y011741D01*
X002920Y011450D01*
X002920Y012450D02*
X002920Y012644D01*
X002824Y012741D01*
X002727Y012644D01*
X002727Y012450D01*
X002626Y012450D02*
X002432Y012450D01*
X002529Y012450D02*
X002529Y012741D01*
X002626Y012644D01*
X002727Y012595D02*
X002920Y012595D01*
X002920Y013450D02*
X002920Y013644D01*
X002824Y013741D01*
X002727Y013644D01*
X002727Y013450D01*
X002626Y013499D02*
X002626Y013692D01*
X002577Y013741D01*
X002481Y013741D01*
X002432Y013692D01*
X002626Y013499D01*
X002577Y013450D01*
X002481Y013450D01*
X002432Y013499D01*
X002432Y013692D01*
X002727Y013595D02*
X002920Y013595D01*
X002920Y014450D02*
X002920Y014741D01*
X002824Y014644D01*
X002727Y014741D01*
X002727Y014450D01*
X002626Y014499D02*
X002626Y014692D01*
X002577Y014741D01*
X002481Y014741D01*
X002432Y014692D01*
X002331Y014741D02*
X002331Y014450D01*
X002138Y014450D01*
X002036Y014450D02*
X002036Y014741D01*
X001891Y014741D01*
X001843Y014692D01*
X001843Y014595D01*
X001891Y014547D01*
X002036Y014547D01*
X001940Y014547D02*
X001843Y014450D01*
X002432Y014499D02*
X002481Y014450D01*
X002577Y014450D01*
X002626Y014499D01*
X017522Y008775D02*
X017715Y008775D01*
X017570Y008921D01*
X017570Y008630D01*
X017816Y008630D02*
X018010Y008630D01*
X017913Y008630D02*
X017913Y008921D01*
X018010Y008824D01*
X018111Y008824D02*
X018159Y008775D01*
X018304Y008775D01*
X018304Y008630D02*
X018304Y008921D01*
X018159Y008921D01*
X018111Y008872D01*
X018111Y008824D01*
X018159Y008775D02*
X018111Y008727D01*
X018111Y008679D01*
X018159Y008630D01*
X018304Y008630D01*
X018304Y007921D02*
X018159Y007921D01*
X018111Y007872D01*
X018111Y007824D01*
X018159Y007775D01*
X018304Y007775D01*
X018304Y007630D02*
X018304Y007921D01*
X018159Y007775D02*
X018111Y007727D01*
X018111Y007679D01*
X018159Y007630D01*
X018304Y007630D01*
X018010Y007630D02*
X017816Y007630D01*
X017913Y007630D02*
X017913Y007921D01*
X018010Y007824D01*
X017715Y007872D02*
X017667Y007921D01*
X017570Y007921D01*
X017522Y007872D01*
X017522Y007824D01*
X017570Y007775D01*
X017522Y007727D01*
X017522Y007679D01*
X017570Y007630D01*
X017667Y007630D01*
X017715Y007679D01*
X017618Y007775D02*
X017570Y007775D01*
X017570Y006921D02*
X017667Y006921D01*
X017715Y006872D01*
X017715Y006824D01*
X017667Y006775D01*
X017522Y006775D01*
X017522Y006679D02*
X017522Y006872D01*
X017570Y006921D01*
X017522Y006679D02*
X017570Y006630D01*
X017667Y006630D01*
X017715Y006679D01*
X017816Y006679D02*
X017865Y006630D01*
X018010Y006630D01*
X018010Y006921D01*
X017865Y006921D01*
X017816Y006872D01*
X017816Y006824D01*
X017865Y006775D01*
X018010Y006775D01*
X017865Y006775D02*
X017816Y006727D01*
X017816Y006679D01*
X017865Y004921D02*
X017816Y004872D01*
X017816Y004824D01*
X017865Y004775D01*
X018010Y004775D01*
X018010Y004630D02*
X017865Y004630D01*
X017816Y004679D01*
X017816Y004727D01*
X017865Y004775D01*
X017865Y004921D02*
X018010Y004921D01*
X018010Y004630D01*
X017715Y004679D02*
X017715Y004727D01*
X017667Y004775D01*
X017570Y004775D01*
X017522Y004727D01*
X017522Y004679D01*
X017570Y004630D01*
X017667Y004630D01*
X017715Y004679D01*
X017667Y004775D02*
X017715Y004824D01*
X017715Y004872D01*
X017667Y004921D01*
X017570Y004921D01*
X017522Y004872D01*
X017522Y004824D01*
X017570Y004775D01*
X017522Y003921D02*
X017522Y003872D01*
X017715Y003679D01*
X017715Y003630D01*
X017816Y003679D02*
X017865Y003630D01*
X018010Y003630D01*
X018010Y003921D01*
X017865Y003921D01*
X017816Y003872D01*
X017816Y003824D01*
X017865Y003775D01*
X018010Y003775D01*
X017865Y003775D02*
X017816Y003727D01*
X017816Y003679D01*
X017715Y003921D02*
X017522Y003921D01*
X017570Y002921D02*
X017522Y002872D01*
X017522Y002679D01*
X017570Y002630D01*
X017715Y002630D01*
X017715Y002921D01*
X017570Y002921D01*
X017816Y002921D02*
X017816Y002630D01*
X018010Y002921D01*
X018010Y002630D01*
X018111Y002679D02*
X018111Y002775D01*
X018208Y002775D01*
X018304Y002679D02*
X018304Y002872D01*
X018256Y002921D01*
X018159Y002921D01*
X018111Y002872D01*
X018111Y002679D02*
X018159Y002630D01*
X018256Y002630D01*
X018304Y002679D01*
X018010Y001921D02*
X017816Y001921D01*
X017715Y001921D02*
X017715Y001727D01*
X017618Y001630D01*
X017522Y001727D01*
X017522Y001921D01*
X017816Y001775D02*
X017816Y001679D01*
X017865Y001630D01*
X017961Y001630D01*
X018010Y001679D01*
X018010Y001775D02*
X017913Y001824D01*
X017865Y001824D01*
X017816Y001775D01*
X018010Y001775D02*
X018010Y001921D01*
X018070Y009630D02*
X018167Y009630D01*
X018215Y009679D01*
X018215Y009775D02*
X018118Y009824D01*
X018070Y009824D01*
X018022Y009775D01*
X018022Y009679D01*
X018070Y009630D01*
X018215Y009775D02*
X018215Y009921D01*
X018022Y009921D01*
X018316Y009630D02*
X018510Y009630D01*
X018413Y009630D02*
X018413Y009921D01*
X018510Y009824D01*
X018611Y009824D02*
X018659Y009775D01*
X018804Y009775D01*
X018804Y009630D02*
X018659Y009630D01*
X018611Y009679D01*
X018611Y009727D01*
X018659Y009775D01*
X018611Y009824D02*
X018611Y009872D01*
X018659Y009921D01*
X018804Y009921D01*
X018804Y009630D01*
X019700Y010700D02*
X020071Y010700D01*
X019947Y010824D01*
X020071Y010947D01*
X019700Y010947D01*
X019700Y011069D02*
X019700Y011316D01*
X019886Y011437D02*
X019886Y011684D01*
X020009Y011805D02*
X020071Y011867D01*
X020071Y011990D01*
X020009Y012052D01*
X019947Y012052D01*
X019886Y011990D01*
X019824Y012052D01*
X019762Y012052D01*
X019700Y011990D01*
X019700Y011867D01*
X019762Y011805D01*
X019886Y011929D02*
X019886Y011990D01*
X020009Y012174D02*
X020071Y012235D01*
X020071Y012359D01*
X020009Y012420D01*
X019947Y012420D01*
X019886Y012359D01*
X019824Y012420D01*
X019762Y012420D01*
X019700Y012359D01*
X019700Y012235D01*
X019762Y012174D01*
X019886Y012297D02*
X019886Y012359D01*
X020009Y012910D02*
X020071Y012972D01*
X020071Y013095D01*
X020009Y013157D01*
X019947Y013157D01*
X019700Y012910D01*
X019700Y013157D01*
X019762Y013279D02*
X020009Y013525D01*
X019762Y013525D01*
X019700Y013464D01*
X019700Y013340D01*
X019762Y013279D01*
X020009Y013279D01*
X020071Y013340D01*
X020071Y013464D01*
X020009Y013525D01*
X019947Y013647D02*
X020071Y013770D01*
X019700Y013770D01*
X019700Y013647D02*
X019700Y013894D01*
X019762Y014015D02*
X019700Y014077D01*
X019700Y014200D01*
X019762Y014262D01*
X019886Y014262D01*
X019947Y014200D01*
X019947Y014139D01*
X019886Y014015D01*
X020071Y014015D01*
X020071Y014262D01*
X020071Y014752D02*
X019700Y014752D01*
X019824Y014752D02*
X019824Y014937D01*
X019886Y014999D01*
X020009Y014999D01*
X020071Y014937D01*
X020071Y014752D01*
X019947Y015120D02*
X019700Y015120D01*
X019824Y015120D02*
X019947Y015243D01*
X019947Y015305D01*
X019886Y015427D02*
X019762Y015427D01*
X019700Y015489D01*
X019700Y015612D01*
X019762Y015674D01*
X019886Y015674D01*
X019947Y015612D01*
X019947Y015489D01*
X019886Y015427D01*
X019947Y015795D02*
X019947Y015919D01*
X020009Y015857D02*
X019762Y015857D01*
X019700Y015919D01*
X019762Y016041D02*
X019700Y016102D01*
X019700Y016226D01*
X019762Y016288D01*
X019886Y016288D01*
X019947Y016226D01*
X019947Y016102D01*
X019886Y016041D01*
X019762Y016041D01*
X019700Y016777D02*
X019700Y016963D01*
X019762Y017024D01*
X019824Y017024D01*
X019886Y016963D01*
X019886Y016777D01*
X020071Y016777D02*
X020071Y016963D01*
X020009Y017024D01*
X019947Y017024D01*
X019886Y016963D01*
X019886Y017146D02*
X019762Y017146D01*
X019700Y017207D01*
X019700Y017331D01*
X019762Y017393D01*
X019886Y017393D01*
X019947Y017331D01*
X019947Y017207D01*
X019886Y017146D01*
X019762Y017514D02*
X019824Y017576D01*
X019824Y017761D01*
X019886Y017761D02*
X019700Y017761D01*
X019700Y017576D01*
X019762Y017514D01*
X019947Y017576D02*
X019947Y017699D01*
X019886Y017761D01*
X019947Y017882D02*
X019700Y017882D01*
X019824Y017882D02*
X019947Y018006D01*
X019947Y018067D01*
X019886Y018189D02*
X019762Y018189D01*
X019700Y018251D01*
X019700Y018436D01*
X020071Y018436D01*
X019947Y018436D02*
X019947Y018251D01*
X019886Y018189D01*
X019700Y016777D02*
X020071Y016777D01*
X020071Y011622D02*
X019700Y011622D01*
X019886Y011437D02*
X020071Y011622D01*
X020071Y011316D02*
X020071Y011069D01*
X019700Y011069D01*
X019886Y011069D02*
X019886Y011192D01*
D12*
X019221Y017118D02*
X016150Y017118D01*
X016150Y020662D01*
X019221Y020662D01*
X019221Y017118D01*
X017981Y018496D02*
X017390Y018496D01*
X017193Y020465D01*
X016898Y020465D02*
X017095Y018693D01*
X016307Y018693D02*
X016504Y020465D01*
X016898Y020465D01*
X018177Y020465D02*
X017981Y018496D01*
X018276Y018890D02*
X018473Y020465D01*
X018866Y020465D01*
X019063Y018890D01*
M02*
