%
M48
M72
T01C0.0197
T02C0.0315
T03C0.0320
T04C0.0400
T05C0.0430
T06C0.0748
%
T01
X4185Y2685
X3185Y12185
X16185Y8685
X16685Y8185
X17185Y2185
X16685Y15185
X19685Y17185
T02
X16985Y17085
X17685Y17085
X18355Y17085
X18045Y17705
X17355Y17705
T03
X12185Y12685
X13185Y12685
X18685Y14185
X18685Y15185
X12685Y3185
X12685Y2185
T04
X1185Y1685
X1185Y2685
X1185Y3685
X1185Y4685
X1185Y6685
X1185Y7685
X1185Y8685
X1185Y9685
X1185Y11685
X1185Y12685
X1185Y13685
X1185Y14685
X1685Y19185
X2685Y19185
X3685Y19185
X4685Y19185
X5685Y19185
X14685Y18685
X14685Y17685
X14685Y16685
X19685Y9685
X19685Y8685
X19685Y7685
X19685Y6685
X19685Y4685
X19685Y3685
X19685Y2685
X19685Y1685
T05
X3685Y6685
X4685Y6685
X5685Y6685
X7685Y6685
X7685Y7685
X7685Y8685
X7685Y9685
X7685Y10685
X7685Y11685
X7685Y12685
X7685Y13685
X7685Y14685
X6185Y14685
X6185Y16185
X6185Y17185
X4185Y17185
X4185Y16185
X8685Y17185
X8685Y18185
X10685Y19185
X12685Y19185
X12685Y16685
X10685Y16685
X10685Y14685
X10685Y13685
X10685Y12685
X10685Y11685
X10685Y10685
X10685Y9685
X10685Y8685
X10685Y7685
X10685Y6685
X10685Y5685
X10685Y4685
X10685Y3685
X10685Y2685
X10685Y1685
X7685Y1685
X7685Y2685
X7685Y3685
X7685Y4685
X7685Y5685
X12435Y5685
X12435Y6685
X14185Y6435
X15685Y6435
X15685Y2435
X14185Y2435
X6185Y10685
X12185Y14685
X13185Y14685
X14685Y14685
X15685Y14685
X14685Y12935
X14685Y11685
X18685Y11685
X18685Y12935
T06
X16248Y19185
X19122Y19185
M30
