G75*
G70*
%OFA0B0*%
%FSLAX24Y24*%
%IPPOS*%
%LPD*%
%AMOC8*
5,1,8,0,0,1.08239X$1,22.5*
%
%ADD10C,0.0000*%
%ADD11R,0.0740X0.0740*%
%ADD12C,0.0740*%
%ADD13C,0.0700*%
%ADD14R,0.0700X0.0700*%
%ADD15OC8,0.0520*%
%ADD16C,0.0600*%
%ADD17C,0.0515*%
%ADD18C,0.1122*%
%ADD19OC8,0.0645*%
%ADD20C,0.0160*%
%ADD21C,0.0317*%
D10*
X000685Y000685D02*
X000685Y020370D01*
X020370Y020370D01*
X020370Y000685D01*
X000685Y000685D01*
D11*
X001185Y004685D03*
X001185Y009685D03*
X001185Y014685D03*
X005685Y019185D03*
X019685Y009685D03*
X019685Y004685D03*
D12*
X019685Y003685D03*
X019685Y002685D03*
X019685Y001685D03*
X019685Y006685D03*
X019685Y007685D03*
X019685Y008685D03*
X004685Y019185D03*
X003685Y019185D03*
X002685Y019185D03*
X001685Y019185D03*
X001185Y013685D03*
X001185Y012685D03*
X001185Y011685D03*
X001185Y008685D03*
X001185Y007685D03*
X001185Y006685D03*
X001185Y003685D03*
X001185Y002685D03*
X001185Y001685D03*
D13*
X003685Y006685D03*
X005685Y006685D03*
X007685Y006685D03*
X007685Y007685D03*
X007685Y008685D03*
X007685Y009685D03*
X007685Y010685D03*
X007685Y011685D03*
X007685Y012685D03*
X007685Y013685D03*
X010685Y013685D03*
X010685Y012685D03*
X010685Y011685D03*
X010685Y010685D03*
X010685Y009685D03*
X010685Y008685D03*
X010685Y007685D03*
X010685Y006685D03*
X010685Y005685D03*
X010685Y004685D03*
X010685Y003685D03*
X010685Y002685D03*
X010685Y001685D03*
X007685Y001685D03*
X007685Y002685D03*
X007685Y003685D03*
X007685Y004685D03*
X007685Y005685D03*
X012435Y005685D03*
X010685Y014685D03*
X010685Y016685D03*
X012685Y016685D03*
X012685Y019185D03*
X010685Y019185D03*
X008685Y017185D03*
D14*
X008685Y018185D03*
X007685Y014685D03*
X004685Y006685D03*
X012435Y006685D03*
D15*
X012685Y003185D03*
X012685Y002185D03*
X012185Y012685D03*
X013185Y012685D03*
X018685Y014185D03*
X018685Y015185D03*
D16*
X014985Y016685D02*
X014385Y016685D01*
X014385Y017685D02*
X014985Y017685D01*
X014985Y018685D02*
X014385Y018685D01*
D17*
X016985Y017085D03*
X017685Y017085D03*
X018355Y017085D03*
X018045Y017705D03*
X017355Y017705D03*
D18*
X016248Y019185D03*
X019122Y019185D03*
D19*
X015685Y014685D03*
X014685Y014685D03*
X013185Y014685D03*
X012185Y014685D03*
X014685Y012935D03*
X014685Y011685D03*
X018685Y011685D03*
X018685Y012935D03*
X015685Y006435D03*
X014185Y006435D03*
X014185Y002435D03*
X015685Y002435D03*
X006185Y010685D03*
X006185Y014685D03*
X006185Y016185D03*
X006185Y017185D03*
X004185Y017185D03*
X004185Y016185D03*
D20*
X004158Y016158D02*
X004213Y016158D01*
X004213Y016213D01*
X004688Y016213D01*
X004688Y016287D01*
X004905Y016069D01*
X004905Y012213D01*
X004900Y012186D01*
X004905Y012158D01*
X004905Y012130D01*
X004916Y012104D01*
X004921Y012076D01*
X004937Y012053D01*
X004948Y012027D01*
X004968Y012007D01*
X005688Y010927D01*
X005663Y010902D01*
X005663Y010469D01*
X005905Y010226D01*
X005905Y007741D01*
X005905Y007630D01*
X005948Y007527D01*
X006405Y007069D01*
X006405Y006301D01*
X006027Y005923D01*
X005948Y005844D01*
X005905Y005741D01*
X005905Y003241D01*
X005905Y003130D01*
X005948Y003027D01*
X006448Y002527D01*
X006527Y002448D01*
X006630Y002405D01*
X007206Y002405D01*
X007219Y002374D01*
X007374Y002219D01*
X007455Y002185D01*
X007374Y002152D01*
X007219Y001997D01*
X007135Y001795D01*
X007135Y001576D01*
X007219Y001374D01*
X007374Y001219D01*
X007576Y001135D01*
X007795Y001135D01*
X007997Y001219D01*
X008152Y001374D01*
X008235Y001576D01*
X008235Y001795D01*
X010136Y001795D01*
X010135Y001795D02*
X010135Y001576D01*
X010219Y001374D01*
X010374Y001219D01*
X010576Y001135D01*
X010795Y001135D01*
X010997Y001219D01*
X011152Y001374D01*
X011235Y001576D01*
X011235Y001795D01*
X012425Y001795D01*
X012495Y001725D02*
X012876Y001725D01*
X013145Y001995D01*
X013145Y002376D01*
X012876Y002645D01*
X012495Y002645D01*
X012225Y002376D01*
X012225Y001995D01*
X012495Y001725D01*
X012266Y001954D02*
X011169Y001954D01*
X011152Y001997D02*
X010997Y002152D01*
X010915Y002185D01*
X010997Y002219D01*
X011152Y002374D01*
X011235Y002576D01*
X011235Y002795D01*
X011152Y002997D01*
X010997Y003152D01*
X010915Y003185D01*
X010997Y003219D01*
X011152Y003374D01*
X011235Y003576D01*
X011235Y003795D01*
X011152Y003997D01*
X010997Y004152D01*
X010915Y004185D01*
X010997Y004219D01*
X011152Y004374D01*
X011235Y004576D01*
X011235Y004795D01*
X011152Y004997D01*
X010997Y005152D01*
X010891Y005195D01*
X010963Y005232D01*
X011031Y005281D01*
X011090Y005340D01*
X011139Y005408D01*
X011176Y005482D01*
X011202Y005561D01*
X011215Y005644D01*
X011215Y005658D01*
X010713Y005658D01*
X010713Y005713D01*
X011215Y005713D01*
X011215Y005727D01*
X011202Y005809D01*
X011176Y005889D01*
X011139Y005963D01*
X011090Y006031D01*
X011031Y006090D01*
X010963Y006139D01*
X010891Y006175D01*
X010997Y006219D01*
X011152Y006374D01*
X011235Y006576D01*
X011235Y006795D01*
X011152Y006997D01*
X010997Y007152D01*
X010915Y007185D01*
X010997Y007219D01*
X011152Y007374D01*
X011235Y007576D01*
X011235Y007795D01*
X011152Y007997D01*
X010997Y008152D01*
X010915Y008185D01*
X010997Y008219D01*
X011152Y008374D01*
X011235Y008576D01*
X011235Y008795D01*
X011152Y008997D01*
X010997Y009152D01*
X010915Y009185D01*
X010997Y009219D01*
X011126Y009349D01*
X013027Y007448D01*
X013130Y007405D01*
X013241Y007405D01*
X015569Y007405D01*
X016405Y006569D01*
X016405Y003301D01*
X015982Y002878D01*
X015902Y002958D01*
X015469Y002958D01*
X015163Y002652D01*
X015163Y002219D01*
X015469Y001913D01*
X015902Y001913D01*
X016208Y002219D01*
X016208Y002312D01*
X016844Y002948D01*
X016923Y003027D01*
X016965Y003130D01*
X016965Y006630D01*
X016965Y006741D01*
X016923Y006844D01*
X015923Y007844D01*
X015844Y007923D01*
X015741Y007965D01*
X013301Y007965D01*
X011423Y009844D01*
X011344Y009923D01*
X011241Y009965D01*
X011165Y009965D01*
X011152Y009997D01*
X010997Y010152D01*
X010915Y010185D01*
X010997Y010219D01*
X011152Y010374D01*
X011235Y010576D01*
X011235Y010795D01*
X011152Y010997D01*
X010997Y011152D01*
X010915Y011185D01*
X010997Y011219D01*
X011152Y011374D01*
X011235Y011576D01*
X011235Y011795D01*
X011152Y011997D01*
X010997Y012152D01*
X010915Y012185D01*
X010997Y012219D01*
X011152Y012374D01*
X011235Y012576D01*
X011725Y012576D01*
X011725Y012495D02*
X011995Y012225D01*
X012376Y012225D01*
X012645Y012495D01*
X012645Y012876D01*
X012376Y013145D01*
X011995Y013145D01*
X011725Y012876D01*
X011725Y012495D01*
X011803Y012418D02*
X011170Y012418D01*
X011235Y012576D02*
X011235Y012795D01*
X011152Y012997D01*
X010997Y013152D01*
X010891Y013195D01*
X010963Y013232D01*
X011031Y013281D01*
X011090Y013340D01*
X011139Y013408D01*
X011176Y013482D01*
X011202Y013561D01*
X011215Y013644D01*
X011215Y013658D01*
X010713Y013658D01*
X010713Y013713D01*
X011215Y013713D01*
X011215Y013727D01*
X011202Y013809D01*
X011176Y013889D01*
X011139Y013963D01*
X011090Y014031D01*
X011031Y014090D01*
X010963Y014139D01*
X010891Y014175D01*
X010997Y014219D01*
X011152Y014374D01*
X011235Y014576D01*
X011235Y014795D01*
X011152Y014997D01*
X010997Y015152D01*
X010795Y015235D01*
X010576Y015235D01*
X010374Y015152D01*
X010219Y014997D01*
X010135Y014795D01*
X010135Y014576D01*
X010219Y014374D01*
X010374Y014219D01*
X010480Y014175D01*
X010408Y014139D01*
X010340Y014090D01*
X010281Y014031D01*
X010232Y013963D01*
X010194Y013889D01*
X010168Y013809D01*
X010155Y013727D01*
X010155Y013713D01*
X010658Y013713D01*
X010658Y013658D01*
X010155Y013658D01*
X010155Y013644D01*
X010168Y013561D01*
X010194Y013482D01*
X010232Y013408D01*
X010281Y013340D01*
X010340Y013281D01*
X010408Y013232D01*
X010480Y013195D01*
X010374Y013152D01*
X010219Y012997D01*
X010135Y012795D01*
X010135Y012576D01*
X009965Y012576D01*
X009965Y012418D02*
X010201Y012418D01*
X010219Y012374D02*
X010374Y012219D01*
X010455Y012185D01*
X010374Y012152D01*
X010219Y011997D01*
X010135Y011795D01*
X010135Y011576D01*
X010219Y011374D01*
X010374Y011219D01*
X010455Y011185D01*
X010374Y011152D01*
X010244Y011022D01*
X009965Y011301D01*
X009965Y015069D01*
X010844Y015948D01*
X010923Y016027D01*
X010965Y016130D01*
X010965Y016206D01*
X010997Y016219D01*
X011152Y016374D01*
X011235Y016576D01*
X011235Y016795D01*
X011152Y016997D01*
X010997Y017152D01*
X010795Y017235D01*
X010576Y017235D01*
X010374Y017152D01*
X010219Y016997D01*
X010135Y016795D01*
X010135Y016576D01*
X010219Y016374D01*
X010349Y016244D01*
X009448Y015344D01*
X009405Y015241D01*
X009405Y015130D01*
X009405Y011130D01*
X009448Y011027D01*
X009527Y010948D01*
X010027Y010448D01*
X010130Y010405D01*
X010206Y010405D01*
X010219Y010374D01*
X010374Y010219D01*
X010455Y010185D01*
X010374Y010152D01*
X010219Y009997D01*
X010206Y009965D01*
X009130Y009965D01*
X009027Y009923D01*
X008948Y009844D01*
X008448Y009344D01*
X008405Y009241D01*
X008405Y009130D01*
X008405Y003301D01*
X008126Y003022D01*
X007997Y003152D01*
X007915Y003185D01*
X007997Y003219D01*
X008152Y003374D01*
X008235Y003576D01*
X008235Y003795D01*
X008152Y003997D01*
X007997Y004152D01*
X007915Y004185D01*
X007997Y004219D01*
X008152Y004374D01*
X008235Y004576D01*
X008235Y004795D01*
X008152Y004997D01*
X007997Y005152D01*
X007915Y005185D01*
X007997Y005219D01*
X008152Y005374D01*
X008235Y005576D01*
X008235Y005795D01*
X008152Y005997D01*
X007997Y006152D01*
X007915Y006185D01*
X007997Y006219D01*
X008152Y006374D01*
X008235Y006576D01*
X008235Y006795D01*
X008152Y006997D01*
X007997Y007152D01*
X007891Y007195D01*
X007963Y007232D01*
X008031Y007281D01*
X008090Y007340D01*
X008139Y007408D01*
X008176Y007482D01*
X008202Y007561D01*
X008215Y007644D01*
X008215Y007658D01*
X007713Y007658D01*
X007713Y007713D01*
X008215Y007713D01*
X008215Y007727D01*
X008202Y007809D01*
X008176Y007889D01*
X008139Y007963D01*
X008090Y008031D01*
X008031Y008090D01*
X007963Y008139D01*
X007891Y008175D01*
X007997Y008219D01*
X008152Y008374D01*
X008235Y008576D01*
X008235Y008795D01*
X008152Y008997D01*
X007997Y009152D01*
X007915Y009185D01*
X007997Y009219D01*
X008152Y009374D01*
X008235Y009576D01*
X008235Y009795D01*
X008152Y009997D01*
X007997Y010152D01*
X007915Y010185D01*
X007997Y010219D01*
X008152Y010374D01*
X008235Y010576D01*
X008235Y010795D01*
X008152Y010997D01*
X007997Y011152D01*
X007915Y011185D01*
X007997Y011219D01*
X008152Y011374D01*
X008235Y011576D01*
X008235Y011795D01*
X008152Y011997D01*
X007997Y012152D01*
X007915Y012185D01*
X007997Y012219D01*
X008152Y012374D01*
X008235Y012576D01*
X009405Y012576D01*
X009405Y012418D02*
X008170Y012418D01*
X008235Y012576D02*
X008235Y012795D01*
X008152Y012997D01*
X007997Y013152D01*
X007915Y013185D01*
X007997Y013219D01*
X008152Y013374D01*
X008235Y013576D01*
X008235Y013795D01*
X008152Y013997D01*
X008013Y014135D01*
X008118Y014135D01*
X008235Y014252D01*
X008235Y015118D01*
X008118Y015235D01*
X007965Y015235D01*
X007965Y018569D01*
X008301Y018905D01*
X010206Y018905D01*
X010219Y018874D01*
X010374Y018719D01*
X010576Y018635D01*
X010795Y018635D01*
X010997Y018719D01*
X011152Y018874D01*
X011235Y019076D01*
X011235Y019295D01*
X011152Y019497D01*
X010997Y019652D01*
X010795Y019735D01*
X010576Y019735D01*
X010374Y019652D01*
X010219Y019497D01*
X010206Y019465D01*
X008241Y019465D01*
X006255Y019465D01*
X006255Y019638D01*
X006138Y019755D01*
X005232Y019755D01*
X005115Y019638D01*
X005115Y019561D01*
X005008Y019669D01*
X004799Y019755D01*
X004572Y019755D01*
X004362Y019669D01*
X004202Y019508D01*
X004173Y019439D01*
X004156Y019474D01*
X004105Y019544D01*
X004044Y019605D01*
X003974Y019656D01*
X003896Y019695D01*
X003814Y019722D01*
X003729Y019735D01*
X003705Y019735D01*
X003705Y019206D01*
X003665Y019206D01*
X003665Y019735D01*
X003642Y019735D01*
X003557Y019722D01*
X003474Y019695D01*
X003397Y019656D01*
X003327Y019605D01*
X003266Y019544D01*
X003215Y019474D01*
X003197Y019439D01*
X003169Y019508D01*
X003008Y019669D01*
X002799Y019755D01*
X002572Y019755D01*
X002362Y019669D01*
X002202Y019508D01*
X002185Y019468D01*
X002169Y019508D01*
X002008Y019669D01*
X001799Y019755D01*
X001572Y019755D01*
X001362Y019669D01*
X001202Y019508D01*
X001115Y019299D01*
X001115Y019072D01*
X001202Y018862D01*
X001362Y018702D01*
X001405Y018684D01*
X001405Y015630D01*
X001448Y015527D01*
X001527Y015448D01*
X001905Y015069D01*
X001905Y010801D01*
X001359Y010255D01*
X000885Y010255D01*
X000885Y011193D01*
X001072Y011115D01*
X001299Y011115D01*
X001508Y011202D01*
X001669Y011362D01*
X001755Y011572D01*
X001755Y011799D01*
X001669Y012008D01*
X001508Y012169D01*
X001468Y012185D01*
X001508Y012202D01*
X001669Y012362D01*
X001755Y012572D01*
X001755Y012799D01*
X001669Y013008D01*
X001508Y013169D01*
X001468Y013185D01*
X001508Y013202D01*
X001669Y013362D01*
X001755Y013572D01*
X001755Y013799D01*
X001669Y014008D01*
X001561Y014115D01*
X001638Y014115D01*
X001755Y014232D01*
X001755Y015138D01*
X001638Y015255D01*
X000885Y015255D01*
X000885Y020170D01*
X020170Y020170D01*
X020170Y010223D01*
X020138Y010255D01*
X019232Y010255D01*
X019115Y010138D01*
X019115Y009232D01*
X019232Y009115D01*
X019309Y009115D01*
X019202Y009008D01*
X019115Y008799D01*
X019115Y008572D01*
X019202Y008362D01*
X019362Y008202D01*
X019403Y008185D01*
X019362Y008169D01*
X019202Y008008D01*
X019115Y007799D01*
X019115Y007572D01*
X019202Y007362D01*
X019362Y007202D01*
X019403Y007185D01*
X019362Y007169D01*
X019202Y007008D01*
X019115Y006799D01*
X019115Y006572D01*
X019202Y006362D01*
X019362Y006202D01*
X019572Y006115D01*
X019799Y006115D01*
X020008Y006202D01*
X020169Y006362D01*
X020170Y006367D01*
X020170Y005223D01*
X020138Y005255D01*
X019232Y005255D01*
X019115Y005138D01*
X019115Y004232D01*
X019232Y004115D01*
X019309Y004115D01*
X019202Y004008D01*
X019115Y003799D01*
X019115Y003572D01*
X019202Y003362D01*
X019362Y003202D01*
X019432Y003173D01*
X019397Y003156D01*
X019327Y003105D01*
X019266Y003044D01*
X019215Y002974D01*
X019176Y002896D01*
X019149Y002814D01*
X019135Y002729D01*
X019135Y002705D01*
X019665Y002705D01*
X019665Y002665D01*
X019135Y002665D01*
X019135Y002642D01*
X019149Y002557D01*
X019176Y002474D01*
X019215Y002397D01*
X019266Y002327D01*
X019327Y002266D01*
X019397Y002215D01*
X019432Y002197D01*
X019362Y002169D01*
X019202Y002008D01*
X019184Y001965D01*
X018801Y001965D01*
X017965Y002801D01*
X017965Y015561D01*
X017965Y015569D01*
X018365Y015969D01*
X018389Y015985D01*
X018404Y016008D01*
X018423Y016027D01*
X018434Y016054D01*
X018450Y016079D01*
X018455Y016105D01*
X018465Y016130D01*
X018465Y016159D01*
X018563Y016676D01*
X018614Y016698D01*
X018743Y016826D01*
X018813Y016994D01*
X018813Y017176D01*
X018743Y017344D01*
X018662Y017425D01*
X019049Y017425D01*
X019327Y017148D01*
X019327Y017114D01*
X019381Y016982D01*
X019482Y016881D01*
X019614Y016827D01*
X019757Y016827D01*
X019888Y016881D01*
X019989Y016982D01*
X020044Y017114D01*
X020044Y017257D01*
X019989Y017388D01*
X019888Y017489D01*
X019757Y017544D01*
X019723Y017544D01*
X019403Y017864D01*
X019324Y017943D01*
X019221Y017985D01*
X018412Y017985D01*
X018304Y018093D01*
X018136Y018163D01*
X017954Y018163D01*
X017786Y018093D01*
X017700Y018007D01*
X017614Y018093D01*
X017446Y018163D01*
X017264Y018163D01*
X017096Y018093D01*
X016968Y017964D01*
X016898Y017796D01*
X016898Y017614D01*
X016937Y017521D01*
X016883Y017512D01*
X016817Y017491D01*
X016756Y017459D01*
X016700Y017419D01*
X016652Y017370D01*
X016611Y017315D01*
X016580Y017253D01*
X016559Y017188D01*
X016548Y017120D01*
X016548Y017086D01*
X016985Y017086D01*
X016985Y017085D01*
X016986Y017085D01*
X016986Y016648D01*
X017020Y016648D01*
X017088Y016659D01*
X017153Y016680D01*
X017215Y016711D01*
X017270Y016752D01*
X017319Y016800D01*
X017321Y016803D01*
X017364Y016760D01*
X016948Y016344D01*
X016905Y016241D01*
X016905Y016130D01*
X016905Y015472D01*
X016888Y015489D01*
X016757Y015544D01*
X016614Y015544D01*
X016482Y015489D01*
X016381Y015388D01*
X016327Y015257D01*
X016327Y015114D01*
X016381Y014982D01*
X016405Y014958D01*
X016405Y009301D01*
X016148Y009044D01*
X016114Y009044D01*
X015982Y008989D01*
X015881Y008888D01*
X015827Y008757D01*
X015827Y008614D01*
X015881Y008482D01*
X015982Y008381D01*
X016114Y008327D01*
X016257Y008327D01*
X016377Y008377D01*
X016327Y008257D01*
X016327Y008114D01*
X016381Y007982D01*
X016482Y007881D01*
X016614Y007827D01*
X016757Y007827D01*
X016888Y007881D01*
X016989Y007982D01*
X017044Y008114D01*
X017044Y008148D01*
X017405Y008509D01*
X017405Y002741D01*
X017405Y002630D01*
X017448Y002527D01*
X018448Y001527D01*
X018527Y001448D01*
X018630Y001405D01*
X019184Y001405D01*
X019202Y001362D01*
X019362Y001202D01*
X019572Y001115D01*
X019799Y001115D01*
X020008Y001202D01*
X020169Y001362D01*
X020170Y001367D01*
X020170Y000885D01*
X000885Y000885D01*
X000885Y001193D01*
X001072Y001115D01*
X001299Y001115D01*
X001508Y001202D01*
X001669Y001362D01*
X001686Y001405D01*
X003241Y001405D01*
X003344Y001448D01*
X003423Y001527D01*
X004223Y002327D01*
X004257Y002327D01*
X004388Y002381D01*
X004489Y002482D01*
X004544Y002614D01*
X004544Y002757D01*
X004489Y002888D01*
X004388Y002989D01*
X004257Y003044D01*
X004114Y003044D01*
X003982Y002989D01*
X003881Y002888D01*
X003827Y002757D01*
X003827Y002723D01*
X003069Y001965D01*
X001686Y001965D01*
X001669Y002008D01*
X001508Y002169D01*
X001439Y002197D01*
X001474Y002215D01*
X001544Y002266D01*
X001605Y002327D01*
X001656Y002397D01*
X001695Y002474D01*
X001722Y002557D01*
X001735Y002642D01*
X001735Y002665D01*
X001206Y002665D01*
X001206Y002705D01*
X001735Y002705D01*
X001735Y002729D01*
X001722Y002814D01*
X001695Y002896D01*
X001656Y002974D01*
X001605Y003044D01*
X001544Y003105D01*
X001474Y003156D01*
X001439Y003173D01*
X001508Y003202D01*
X001669Y003362D01*
X001755Y003572D01*
X001755Y003799D01*
X001669Y004008D01*
X001561Y004115D01*
X001638Y004115D01*
X001755Y004232D01*
X001755Y005138D01*
X001638Y005255D01*
X000885Y005255D01*
X000885Y006193D01*
X001072Y006115D01*
X001299Y006115D01*
X001508Y006202D01*
X001669Y006362D01*
X001755Y006572D01*
X001755Y006799D01*
X001669Y007008D01*
X001508Y007169D01*
X001468Y007185D01*
X001508Y007202D01*
X001669Y007362D01*
X001755Y007572D01*
X001755Y007799D01*
X001669Y008008D01*
X001508Y008169D01*
X001468Y008185D01*
X001508Y008202D01*
X001669Y008362D01*
X001755Y008572D01*
X001755Y008799D01*
X001669Y009008D01*
X001561Y009115D01*
X001638Y009115D01*
X001755Y009232D01*
X001755Y009859D01*
X002423Y010527D01*
X002465Y010630D01*
X002465Y010741D01*
X002465Y015241D01*
X002423Y015344D01*
X002344Y015423D01*
X001965Y015801D01*
X001965Y018684D01*
X002008Y018702D01*
X002169Y018862D01*
X002185Y018903D01*
X002202Y018862D01*
X002362Y018702D01*
X002405Y018684D01*
X002405Y015741D01*
X002405Y015630D01*
X002448Y015527D01*
X002905Y015069D01*
X002905Y012412D01*
X002881Y012388D01*
X002827Y012257D01*
X002827Y012114D01*
X002881Y011982D01*
X002982Y011881D01*
X003114Y011827D01*
X003257Y011827D01*
X003388Y011881D01*
X003489Y011982D01*
X003544Y012114D01*
X003544Y012257D01*
X003489Y012388D01*
X003465Y012412D01*
X003465Y015241D01*
X003423Y015344D01*
X003344Y015423D01*
X002965Y015801D01*
X002965Y018684D01*
X003008Y018702D01*
X003169Y018862D01*
X003197Y018932D01*
X003215Y018897D01*
X003266Y018827D01*
X003327Y018766D01*
X003397Y018715D01*
X003474Y018676D01*
X003557Y018649D01*
X003642Y018635D01*
X003665Y018635D01*
X003665Y019165D01*
X003705Y019165D01*
X003705Y018635D01*
X003729Y018635D01*
X003814Y018649D01*
X003896Y018676D01*
X003974Y018715D01*
X004044Y018766D01*
X004105Y018827D01*
X004156Y018897D01*
X004173Y018932D01*
X004202Y018862D01*
X004362Y018702D01*
X004405Y018684D01*
X004405Y018301D01*
X003948Y017844D01*
X003905Y017741D01*
X003905Y017644D01*
X003663Y017402D01*
X003663Y016969D01*
X003961Y016671D01*
X003683Y016393D01*
X003683Y016213D01*
X004158Y016213D01*
X004158Y016158D01*
X004158Y015683D01*
X003977Y015683D01*
X003683Y015977D01*
X003683Y016158D01*
X004158Y016158D01*
X004213Y016158D02*
X004213Y015683D01*
X004393Y015683D01*
X004688Y015977D01*
X004688Y016158D01*
X004213Y016158D01*
X004213Y016064D02*
X004158Y016064D01*
X004158Y015906D02*
X004213Y015906D01*
X004213Y015747D02*
X004158Y015747D01*
X003913Y015747D02*
X003020Y015747D01*
X002965Y015906D02*
X003755Y015906D01*
X003683Y016064D02*
X002965Y016064D01*
X002965Y016223D02*
X003683Y016223D01*
X003683Y016381D02*
X002965Y016381D01*
X002965Y016540D02*
X003829Y016540D01*
X003934Y016698D02*
X002965Y016698D01*
X002965Y016857D02*
X003775Y016857D01*
X003663Y017015D02*
X002965Y017015D01*
X002965Y017174D02*
X003663Y017174D01*
X003663Y017332D02*
X002965Y017332D01*
X002965Y017491D02*
X003752Y017491D01*
X003905Y017649D02*
X002965Y017649D01*
X002965Y017808D02*
X003933Y017808D01*
X004071Y017967D02*
X002965Y017967D01*
X002965Y018125D02*
X004229Y018125D01*
X004388Y018284D02*
X002965Y018284D01*
X002965Y018442D02*
X004405Y018442D01*
X004405Y018601D02*
X002965Y018601D01*
X003065Y018759D02*
X003336Y018759D01*
X003204Y018918D02*
X003191Y018918D01*
X003665Y018918D02*
X003705Y018918D01*
X003705Y019076D02*
X003665Y019076D01*
X003665Y019235D02*
X003705Y019235D01*
X003705Y019393D02*
X003665Y019393D01*
X003665Y019552D02*
X003705Y019552D01*
X003705Y019711D02*
X003665Y019711D01*
X003522Y019711D02*
X002907Y019711D01*
X003125Y019552D02*
X003274Y019552D01*
X003849Y019711D02*
X004464Y019711D01*
X004246Y019552D02*
X004096Y019552D01*
X004166Y018918D02*
X004179Y018918D01*
X004305Y018759D02*
X004035Y018759D01*
X003705Y018759D02*
X003665Y018759D01*
X002685Y019185D02*
X002685Y015685D01*
X003185Y015185D01*
X003185Y012185D01*
X002922Y011942D02*
X002465Y011942D01*
X002465Y012100D02*
X002833Y012100D01*
X002828Y012259D02*
X002465Y012259D01*
X002465Y012418D02*
X002905Y012418D01*
X002905Y012576D02*
X002465Y012576D01*
X002465Y012735D02*
X002905Y012735D01*
X002905Y012893D02*
X002465Y012893D01*
X002465Y013052D02*
X002905Y013052D01*
X002905Y013210D02*
X002465Y013210D01*
X002465Y013369D02*
X002905Y013369D01*
X002905Y013527D02*
X002465Y013527D01*
X002465Y013686D02*
X002905Y013686D01*
X002905Y013844D02*
X002465Y013844D01*
X002465Y014003D02*
X002905Y014003D01*
X002905Y014162D02*
X002465Y014162D01*
X002465Y014320D02*
X002905Y014320D01*
X002905Y014479D02*
X002465Y014479D01*
X002465Y014637D02*
X002905Y014637D01*
X002905Y014796D02*
X002465Y014796D01*
X002465Y014954D02*
X002905Y014954D01*
X002862Y015113D02*
X002465Y015113D01*
X002453Y015271D02*
X002703Y015271D01*
X002545Y015430D02*
X002337Y015430D01*
X002422Y015588D02*
X002178Y015588D01*
X002020Y015747D02*
X002405Y015747D01*
X002405Y015906D02*
X001965Y015906D01*
X001965Y016064D02*
X002405Y016064D01*
X002405Y016223D02*
X001965Y016223D01*
X001965Y016381D02*
X002405Y016381D01*
X002405Y016540D02*
X001965Y016540D01*
X001965Y016698D02*
X002405Y016698D01*
X002405Y016857D02*
X001965Y016857D01*
X001965Y017015D02*
X002405Y017015D01*
X002405Y017174D02*
X001965Y017174D01*
X001965Y017332D02*
X002405Y017332D01*
X002405Y017491D02*
X001965Y017491D01*
X001965Y017649D02*
X002405Y017649D01*
X002405Y017808D02*
X001965Y017808D01*
X001965Y017967D02*
X002405Y017967D01*
X002405Y018125D02*
X001965Y018125D01*
X001965Y018284D02*
X002405Y018284D01*
X002405Y018442D02*
X001965Y018442D01*
X001965Y018601D02*
X002405Y018601D01*
X002305Y018759D02*
X002065Y018759D01*
X001685Y019185D02*
X001685Y015685D01*
X002185Y015185D01*
X002185Y010685D01*
X001185Y009685D01*
X001755Y009722D02*
X005905Y009722D01*
X005905Y009564D02*
X001755Y009564D01*
X001755Y009405D02*
X005905Y009405D01*
X005905Y009247D02*
X001755Y009247D01*
X001589Y009088D02*
X005905Y009088D01*
X005905Y008930D02*
X001701Y008930D01*
X001755Y008771D02*
X005905Y008771D01*
X005905Y008613D02*
X001755Y008613D01*
X001706Y008454D02*
X005905Y008454D01*
X005905Y008295D02*
X001602Y008295D01*
X001540Y008137D02*
X005905Y008137D01*
X005905Y007978D02*
X001681Y007978D01*
X001747Y007820D02*
X005905Y007820D01*
X005905Y007661D02*
X001755Y007661D01*
X001727Y007503D02*
X005972Y007503D01*
X006131Y007344D02*
X001650Y007344D01*
X001468Y007186D02*
X003456Y007186D01*
X003374Y007152D02*
X003219Y006997D01*
X003135Y006795D01*
X003135Y006576D01*
X003219Y006374D01*
X003374Y006219D01*
X003576Y006135D01*
X003795Y006135D01*
X003997Y006219D01*
X004152Y006374D01*
X004155Y006383D01*
X004155Y006312D01*
X004168Y006266D01*
X004191Y006225D01*
X004225Y006191D01*
X004266Y006168D01*
X004312Y006155D01*
X004658Y006155D01*
X004658Y006658D01*
X004713Y006658D01*
X004713Y006155D01*
X005059Y006155D01*
X005105Y006168D01*
X005146Y006191D01*
X005179Y006225D01*
X005203Y006266D01*
X005215Y006312D01*
X005215Y006383D01*
X005219Y006374D01*
X005374Y006219D01*
X005576Y006135D01*
X005795Y006135D01*
X005997Y006219D01*
X006152Y006374D01*
X006235Y006576D01*
X006235Y006795D01*
X006152Y006997D01*
X005997Y007152D01*
X005795Y007235D01*
X005576Y007235D01*
X005374Y007152D01*
X005219Y006997D01*
X005215Y006988D01*
X005215Y007059D01*
X005203Y007105D01*
X005179Y007146D01*
X005146Y007179D01*
X005105Y007203D01*
X005059Y007215D01*
X004713Y007215D01*
X004713Y006713D01*
X004658Y006713D01*
X004658Y007215D01*
X004312Y007215D01*
X004266Y007203D01*
X004225Y007179D01*
X004191Y007146D01*
X004168Y007105D01*
X004155Y007059D01*
X004155Y006988D01*
X004152Y006997D01*
X003997Y007152D01*
X003795Y007235D01*
X003576Y007235D01*
X003374Y007152D01*
X003249Y007027D02*
X001650Y007027D01*
X001726Y006869D02*
X003166Y006869D01*
X003135Y006710D02*
X001755Y006710D01*
X001747Y006551D02*
X003145Y006551D01*
X003211Y006393D02*
X001681Y006393D01*
X001540Y006234D02*
X003359Y006234D01*
X004012Y006234D02*
X004186Y006234D01*
X004658Y006234D02*
X004713Y006234D01*
X004713Y006393D02*
X004658Y006393D01*
X004658Y006551D02*
X004713Y006551D01*
X004713Y006869D02*
X004658Y006869D01*
X004658Y007027D02*
X004713Y007027D01*
X004713Y007186D02*
X004658Y007186D01*
X004236Y007186D02*
X003915Y007186D01*
X004121Y007027D02*
X004155Y007027D01*
X005135Y007186D02*
X005456Y007186D01*
X005249Y007027D02*
X005215Y007027D01*
X005915Y007186D02*
X006289Y007186D01*
X006405Y007027D02*
X006121Y007027D01*
X006205Y006869D02*
X006405Y006869D01*
X006405Y006710D02*
X006235Y006710D01*
X006225Y006551D02*
X006405Y006551D01*
X006405Y006393D02*
X006159Y006393D01*
X006012Y006234D02*
X006338Y006234D01*
X006180Y006076D02*
X000885Y006076D01*
X000885Y005917D02*
X006021Y005917D01*
X005913Y005759D02*
X000885Y005759D01*
X000885Y005600D02*
X005905Y005600D01*
X005905Y005442D02*
X000885Y005442D01*
X000885Y005283D02*
X005905Y005283D01*
X005905Y005125D02*
X001755Y005125D01*
X001755Y004966D02*
X005905Y004966D01*
X005905Y004807D02*
X001755Y004807D01*
X001755Y004649D02*
X005905Y004649D01*
X005905Y004490D02*
X001755Y004490D01*
X001755Y004332D02*
X005905Y004332D01*
X005905Y004173D02*
X001696Y004173D01*
X001662Y004015D02*
X005905Y004015D01*
X005905Y003856D02*
X001732Y003856D01*
X001755Y003698D02*
X005905Y003698D01*
X005905Y003539D02*
X001742Y003539D01*
X001676Y003381D02*
X005905Y003381D01*
X005905Y003222D02*
X001528Y003222D01*
X001585Y003064D02*
X005933Y003064D01*
X006070Y002905D02*
X004473Y002905D01*
X004544Y002746D02*
X006228Y002746D01*
X006387Y002588D02*
X004533Y002588D01*
X004436Y002429D02*
X006572Y002429D01*
X006685Y002685D02*
X007685Y002685D01*
X008185Y002685D01*
X008685Y003185D01*
X008685Y009185D01*
X009185Y009685D01*
X010685Y009685D01*
X011185Y009685D01*
X013185Y007685D01*
X015685Y007685D01*
X016685Y006685D01*
X016685Y003185D01*
X015935Y002435D01*
X015685Y002435D01*
X015269Y002112D02*
X014601Y002112D01*
X014708Y002219D02*
X014402Y001913D01*
X013969Y001913D01*
X013663Y002219D01*
X013663Y002652D01*
X013969Y002958D01*
X014402Y002958D01*
X014708Y002652D01*
X014708Y002219D01*
X014708Y002271D02*
X015163Y002271D01*
X015163Y002429D02*
X014708Y002429D01*
X014708Y002588D02*
X015163Y002588D01*
X015257Y002746D02*
X014613Y002746D01*
X014455Y002905D02*
X015416Y002905D01*
X015955Y002905D02*
X016009Y002905D01*
X016168Y003064D02*
X013145Y003064D01*
X013145Y002995D02*
X012876Y002725D01*
X012495Y002725D01*
X012225Y002995D01*
X012225Y003376D01*
X012495Y003645D01*
X012876Y003645D01*
X013145Y003376D01*
X013145Y002995D01*
X013055Y002905D02*
X013916Y002905D01*
X013757Y002746D02*
X012897Y002746D01*
X012933Y002588D02*
X013663Y002588D01*
X013663Y002429D02*
X013092Y002429D01*
X013145Y002271D02*
X013663Y002271D01*
X013769Y002112D02*
X013145Y002112D01*
X013104Y001954D02*
X013928Y001954D01*
X014443Y001954D02*
X015428Y001954D01*
X015943Y001954D02*
X018021Y001954D01*
X017862Y002112D02*
X016101Y002112D01*
X016208Y002271D02*
X017704Y002271D01*
X017545Y002429D02*
X016325Y002429D01*
X016484Y002588D02*
X017423Y002588D01*
X017405Y002746D02*
X016642Y002746D01*
X016801Y002905D02*
X017405Y002905D01*
X017405Y003064D02*
X016938Y003064D01*
X016965Y003222D02*
X017405Y003222D01*
X017405Y003381D02*
X016965Y003381D01*
X016965Y003539D02*
X017405Y003539D01*
X017405Y003698D02*
X016965Y003698D01*
X016965Y003856D02*
X017405Y003856D01*
X017405Y004015D02*
X016965Y004015D01*
X016965Y004173D02*
X017405Y004173D01*
X017405Y004332D02*
X016965Y004332D01*
X016965Y004490D02*
X017405Y004490D01*
X017405Y004649D02*
X016965Y004649D01*
X016965Y004807D02*
X017405Y004807D01*
X017405Y004966D02*
X016965Y004966D01*
X016965Y005125D02*
X017405Y005125D01*
X017405Y005283D02*
X016965Y005283D01*
X016965Y005442D02*
X017405Y005442D01*
X017405Y005600D02*
X016965Y005600D01*
X016965Y005759D02*
X017405Y005759D01*
X017405Y005917D02*
X016965Y005917D01*
X016965Y006076D02*
X017405Y006076D01*
X017405Y006234D02*
X016965Y006234D01*
X016965Y006393D02*
X017405Y006393D01*
X017405Y006551D02*
X016965Y006551D01*
X016965Y006710D02*
X017405Y006710D01*
X017405Y006869D02*
X016898Y006869D01*
X016740Y007027D02*
X017405Y007027D01*
X017405Y007186D02*
X016581Y007186D01*
X016422Y007344D02*
X017405Y007344D01*
X017405Y007503D02*
X016264Y007503D01*
X016105Y007661D02*
X017405Y007661D01*
X017405Y007820D02*
X015947Y007820D01*
X016385Y007978D02*
X013288Y007978D01*
X013130Y008137D02*
X016327Y008137D01*
X016343Y008295D02*
X012971Y008295D01*
X012813Y008454D02*
X015910Y008454D01*
X015828Y008613D02*
X012654Y008613D01*
X012496Y008771D02*
X015833Y008771D01*
X015923Y008930D02*
X012337Y008930D01*
X012178Y009088D02*
X016192Y009088D01*
X016351Y009247D02*
X012020Y009247D01*
X011861Y009405D02*
X016405Y009405D01*
X016405Y009564D02*
X011703Y009564D01*
X011544Y009722D02*
X016405Y009722D01*
X016405Y009881D02*
X011386Y009881D01*
X011109Y010039D02*
X016405Y010039D01*
X016405Y010198D02*
X010946Y010198D01*
X011134Y010356D02*
X016405Y010356D01*
X016405Y010515D02*
X011210Y010515D01*
X011235Y010674D02*
X016405Y010674D01*
X016405Y010832D02*
X011220Y010832D01*
X011154Y010991D02*
X016405Y010991D01*
X016405Y011149D02*
X010999Y011149D01*
X011086Y011308D02*
X014324Y011308D01*
X014469Y011163D02*
X014902Y011163D01*
X015208Y011469D01*
X015208Y011902D01*
X014902Y012208D01*
X014469Y012208D01*
X014163Y011902D01*
X014163Y011469D01*
X014469Y011163D01*
X014165Y011466D02*
X011190Y011466D01*
X011235Y011625D02*
X014163Y011625D01*
X014163Y011783D02*
X011235Y011783D01*
X011174Y011942D02*
X014203Y011942D01*
X014362Y012100D02*
X011048Y012100D01*
X011037Y012259D02*
X011961Y012259D01*
X012410Y012259D02*
X012961Y012259D01*
X012995Y012225D02*
X013376Y012225D01*
X013645Y012495D01*
X013645Y012876D01*
X013376Y013145D01*
X012995Y013145D01*
X012725Y012876D01*
X012725Y012495D01*
X012995Y012225D01*
X012803Y012418D02*
X012568Y012418D01*
X012645Y012576D02*
X012725Y012576D01*
X012725Y012735D02*
X012645Y012735D01*
X012628Y012893D02*
X012743Y012893D01*
X012901Y013052D02*
X012469Y013052D01*
X011901Y013052D02*
X011097Y013052D01*
X011195Y012893D02*
X011743Y012893D01*
X011725Y012735D02*
X011235Y012735D01*
X010920Y013210D02*
X014221Y013210D01*
X014163Y013152D02*
X014469Y013458D01*
X014562Y013458D01*
X015368Y014264D01*
X015171Y014461D01*
X014893Y014183D01*
X014713Y014183D01*
X014713Y014658D01*
X014658Y014658D01*
X014658Y014183D01*
X014477Y014183D01*
X014183Y014477D01*
X014183Y014658D01*
X014658Y014658D01*
X014658Y014713D01*
X014658Y015188D01*
X014477Y015188D01*
X014183Y014893D01*
X014183Y014713D01*
X014658Y014713D01*
X014713Y014713D01*
X014713Y015188D01*
X014893Y015188D01*
X015171Y014910D01*
X015405Y015144D01*
X015405Y016452D01*
X015396Y016434D01*
X015351Y016373D01*
X015298Y016319D01*
X015237Y016275D01*
X015170Y016241D01*
X015098Y016217D01*
X015023Y016205D01*
X014705Y016205D01*
X014705Y016665D01*
X014665Y016665D01*
X014665Y016205D01*
X014348Y016205D01*
X014273Y016217D01*
X014201Y016241D01*
X014134Y016275D01*
X014073Y016319D01*
X014019Y016373D01*
X013975Y016434D01*
X013941Y016501D01*
X013917Y016573D01*
X013905Y016648D01*
X013905Y016665D01*
X014665Y016665D01*
X014665Y016705D01*
X013905Y016705D01*
X013905Y016723D01*
X013917Y016798D01*
X013941Y016870D01*
X013975Y016937D01*
X014019Y016998D01*
X014073Y017051D01*
X014134Y017096D01*
X014201Y017130D01*
X014273Y017154D01*
X014348Y017165D01*
X014665Y017165D01*
X014665Y016706D01*
X014705Y016706D01*
X014705Y017165D01*
X015023Y017165D01*
X015098Y017154D01*
X015170Y017130D01*
X015237Y017096D01*
X015298Y017051D01*
X015351Y016998D01*
X015396Y016937D01*
X015405Y016918D01*
X015405Y017069D01*
X015229Y017245D01*
X015085Y017185D01*
X014286Y017185D01*
X014102Y017261D01*
X013961Y017402D01*
X013885Y017586D01*
X013885Y017785D01*
X013961Y017969D01*
X014102Y018109D01*
X014286Y018185D01*
X015085Y018185D01*
X015269Y018109D01*
X015409Y017969D01*
X015485Y017785D01*
X015485Y017781D01*
X015844Y017423D01*
X015844Y017423D01*
X015923Y017344D01*
X015965Y017241D01*
X015965Y015144D01*
X016208Y014902D01*
X016208Y014469D01*
X015965Y014226D01*
X015965Y014130D01*
X015923Y014027D01*
X015844Y013948D01*
X015128Y013232D01*
X015208Y013152D01*
X015208Y012719D01*
X014902Y012413D01*
X014469Y012413D01*
X014163Y012719D01*
X014163Y013152D01*
X014163Y013052D02*
X013469Y013052D01*
X013628Y012893D02*
X014163Y012893D01*
X014163Y012735D02*
X013645Y012735D01*
X013645Y012576D02*
X014306Y012576D01*
X014464Y012418D02*
X013568Y012418D01*
X013410Y012259D02*
X016405Y012259D01*
X016405Y012100D02*
X015009Y012100D01*
X015168Y011942D02*
X016405Y011942D01*
X016405Y011783D02*
X015208Y011783D01*
X015208Y011625D02*
X016405Y011625D01*
X016405Y011466D02*
X015205Y011466D01*
X015047Y011308D02*
X016405Y011308D01*
X016405Y012418D02*
X014906Y012418D01*
X015065Y012576D02*
X016405Y012576D01*
X016405Y012735D02*
X015208Y012735D01*
X015208Y012893D02*
X016405Y012893D01*
X016405Y013052D02*
X015208Y013052D01*
X015149Y013210D02*
X016405Y013210D01*
X016405Y013369D02*
X015265Y013369D01*
X015423Y013527D02*
X016405Y013527D01*
X016405Y013686D02*
X015582Y013686D01*
X015740Y013844D02*
X016405Y013844D01*
X016405Y014003D02*
X015899Y014003D01*
X015965Y014162D02*
X016405Y014162D01*
X016405Y014320D02*
X016059Y014320D01*
X016208Y014479D02*
X016405Y014479D01*
X016405Y014637D02*
X016208Y014637D01*
X016208Y014796D02*
X016405Y014796D01*
X016405Y014954D02*
X016155Y014954D01*
X015997Y015113D02*
X016327Y015113D01*
X016333Y015271D02*
X015965Y015271D01*
X015965Y015430D02*
X016423Y015430D01*
X016685Y015185D02*
X016685Y009185D01*
X016185Y008685D01*
X016685Y008185D02*
X017185Y008685D01*
X017185Y016185D01*
X017685Y016685D01*
X017685Y017085D01*
X017302Y016698D02*
X017189Y016698D01*
X017144Y016540D02*
X015965Y016540D01*
X015965Y016698D02*
X016781Y016698D01*
X016756Y016711D02*
X016817Y016680D01*
X016883Y016659D01*
X016951Y016648D01*
X016985Y016648D01*
X016985Y017085D01*
X016548Y017085D01*
X016548Y017051D01*
X016559Y016983D01*
X016580Y016917D01*
X016611Y016856D01*
X016652Y016800D01*
X016700Y016752D01*
X016756Y016711D01*
X016611Y016857D02*
X015965Y016857D01*
X015965Y017015D02*
X016554Y017015D01*
X016556Y017174D02*
X015965Y017174D01*
X015927Y017332D02*
X016624Y017332D01*
X016818Y017491D02*
X015776Y017491D01*
X015617Y017649D02*
X016898Y017649D01*
X016903Y017808D02*
X015476Y017808D01*
X015410Y017967D02*
X016970Y017967D01*
X017173Y018125D02*
X015230Y018125D01*
X015269Y018261D02*
X015085Y018185D01*
X014286Y018185D01*
X014141Y018245D01*
X013715Y017819D01*
X013715Y015725D01*
X013720Y015710D01*
X013715Y015670D01*
X013715Y015630D01*
X013709Y015615D01*
X013707Y015599D01*
X013688Y015564D01*
X013673Y015527D01*
X013661Y015516D01*
X013654Y015501D01*
X013622Y015476D01*
X013594Y015448D01*
X013579Y015442D01*
X013262Y015188D01*
X013393Y015188D01*
X013688Y014893D01*
X013688Y014713D01*
X013213Y014713D01*
X013213Y014658D01*
X013688Y014658D01*
X013688Y014477D01*
X013393Y014183D01*
X013213Y014183D01*
X013213Y014658D01*
X013158Y014658D01*
X013158Y014183D01*
X012977Y014183D01*
X012699Y014461D01*
X012402Y014163D01*
X011969Y014163D01*
X011663Y014469D01*
X011663Y014902D01*
X011969Y015208D01*
X012390Y015208D01*
X013155Y015820D01*
X013155Y016440D01*
X013139Y016408D01*
X013090Y016340D01*
X013031Y016281D01*
X012963Y016232D01*
X012889Y016194D01*
X012809Y016168D01*
X012727Y016155D01*
X012713Y016155D01*
X012713Y016658D01*
X012658Y016658D01*
X012658Y016155D01*
X012644Y016155D01*
X012561Y016168D01*
X012482Y016194D01*
X012408Y016232D01*
X012340Y016281D01*
X012281Y016340D01*
X012232Y016408D01*
X012194Y016482D01*
X012168Y016561D01*
X012155Y016644D01*
X012155Y016658D01*
X012658Y016658D01*
X012658Y016713D01*
X012658Y017215D01*
X012644Y017215D01*
X012561Y017202D01*
X012482Y017176D01*
X012408Y017139D01*
X012340Y017090D01*
X012281Y017031D01*
X012232Y016963D01*
X012194Y016889D01*
X012168Y016809D01*
X012155Y016727D01*
X012155Y016713D01*
X012658Y016713D01*
X012713Y016713D01*
X012713Y017215D01*
X012727Y017215D01*
X012809Y017202D01*
X012889Y017176D01*
X012963Y017139D01*
X013031Y017090D01*
X013090Y017031D01*
X013139Y016963D01*
X013155Y016930D01*
X013155Y017991D01*
X013198Y018094D01*
X013277Y018173D01*
X013885Y018781D01*
X013885Y018785D01*
X013961Y018969D01*
X014102Y019109D01*
X014286Y019185D01*
X015085Y019185D01*
X015269Y019109D01*
X015409Y018969D01*
X015485Y018785D01*
X015485Y018586D01*
X015409Y018402D01*
X015269Y018261D01*
X015291Y018284D02*
X020170Y018284D01*
X020170Y018442D02*
X019317Y018442D01*
X019274Y018424D02*
X019553Y018540D01*
X019767Y018754D01*
X019883Y019034D01*
X019883Y019337D01*
X019767Y019616D01*
X019553Y019830D01*
X019274Y019946D01*
X018971Y019946D01*
X018691Y019830D01*
X018477Y019616D01*
X018361Y019337D01*
X018361Y019034D01*
X018477Y018754D01*
X018691Y018540D01*
X018971Y018424D01*
X019274Y018424D01*
X019614Y018601D02*
X020170Y018601D01*
X020170Y018759D02*
X019770Y018759D01*
X019835Y018918D02*
X020170Y018918D01*
X020170Y019076D02*
X019883Y019076D01*
X019883Y019235D02*
X020170Y019235D01*
X020170Y019393D02*
X019860Y019393D01*
X019794Y019552D02*
X020170Y019552D01*
X020170Y019711D02*
X019673Y019711D01*
X019460Y019869D02*
X020170Y019869D01*
X020170Y020028D02*
X000885Y020028D01*
X000885Y019869D02*
X015910Y019869D01*
X015817Y019830D02*
X015603Y019616D01*
X015487Y019337D01*
X015487Y019034D01*
X015603Y018754D01*
X015817Y018540D01*
X016097Y018424D01*
X016400Y018424D01*
X016679Y018540D01*
X016893Y018754D01*
X017009Y019034D01*
X017009Y019337D01*
X016893Y019616D01*
X016679Y019830D01*
X016400Y019946D01*
X016097Y019946D01*
X015817Y019830D01*
X015697Y019711D02*
X012757Y019711D01*
X012727Y019715D02*
X012809Y019702D01*
X012889Y019676D01*
X012963Y019639D01*
X013031Y019590D01*
X013090Y019531D01*
X013139Y019463D01*
X013176Y019389D01*
X013202Y019309D01*
X013215Y019227D01*
X013215Y019213D01*
X012713Y019213D01*
X012713Y019158D01*
X013215Y019158D01*
X013215Y019144D01*
X013202Y019061D01*
X013176Y018982D01*
X013139Y018908D01*
X013090Y018840D01*
X013031Y018781D01*
X012963Y018732D01*
X012889Y018694D01*
X012809Y018668D01*
X012727Y018655D01*
X012713Y018655D01*
X012713Y019158D01*
X012658Y019158D01*
X012658Y018655D01*
X012644Y018655D01*
X012561Y018668D01*
X012482Y018694D01*
X012408Y018732D01*
X012340Y018781D01*
X012281Y018840D01*
X012232Y018908D01*
X012194Y018982D01*
X012168Y019061D01*
X012155Y019144D01*
X012155Y019158D01*
X012658Y019158D01*
X012658Y019213D01*
X012658Y019715D01*
X012644Y019715D01*
X012561Y019702D01*
X012482Y019676D01*
X012408Y019639D01*
X012340Y019590D01*
X012281Y019531D01*
X012232Y019463D01*
X012194Y019389D01*
X012168Y019309D01*
X012155Y019227D01*
X012155Y019213D01*
X012658Y019213D01*
X012713Y019213D01*
X012713Y019715D01*
X012727Y019715D01*
X012713Y019711D02*
X012658Y019711D01*
X012614Y019711D02*
X010855Y019711D01*
X011096Y019552D02*
X012303Y019552D01*
X012197Y019393D02*
X011194Y019393D01*
X011235Y019235D02*
X012157Y019235D01*
X012166Y019076D02*
X011235Y019076D01*
X011170Y018918D02*
X012227Y018918D01*
X012370Y018759D02*
X011037Y018759D01*
X010685Y019185D02*
X008185Y019185D01*
X005685Y019185D01*
X006255Y018905D02*
X006255Y018732D01*
X006138Y018615D01*
X005232Y018615D01*
X005115Y018732D01*
X005115Y018809D01*
X005008Y018702D01*
X004965Y018684D01*
X004965Y018130D01*
X004923Y018027D01*
X004844Y017948D01*
X004844Y017948D01*
X004503Y017607D01*
X004708Y017402D01*
X004708Y017059D01*
X005423Y016344D01*
X005465Y016241D01*
X005465Y016130D01*
X005465Y012270D01*
X006174Y011208D01*
X006402Y011208D01*
X006708Y010902D01*
X006708Y010469D01*
X006465Y010226D01*
X006465Y007801D01*
X006844Y007423D01*
X006923Y007344D01*
X006965Y007241D01*
X006965Y006241D01*
X006965Y006130D01*
X006923Y006027D01*
X006465Y005569D01*
X006465Y003301D01*
X006801Y002965D01*
X007206Y002965D01*
X007219Y002997D01*
X007374Y003152D01*
X007455Y003185D01*
X007374Y003219D01*
X007219Y003374D01*
X007135Y003576D01*
X007135Y003795D01*
X007219Y003997D01*
X007374Y004152D01*
X007455Y004185D01*
X007374Y004219D01*
X007219Y004374D01*
X007135Y004576D01*
X007135Y004795D01*
X007219Y004997D01*
X007374Y005152D01*
X007455Y005185D01*
X007374Y005219D01*
X007219Y005374D01*
X007135Y005576D01*
X007135Y005795D01*
X007219Y005997D01*
X007374Y006152D01*
X007455Y006185D01*
X007374Y006219D01*
X007219Y006374D01*
X007135Y006576D01*
X007135Y006795D01*
X007219Y006997D01*
X007374Y007152D01*
X007480Y007195D01*
X007408Y007232D01*
X007340Y007281D01*
X007281Y007340D01*
X007232Y007408D01*
X007194Y007482D01*
X007168Y007561D01*
X007155Y007644D01*
X007155Y007658D01*
X007658Y007658D01*
X007658Y007713D01*
X007155Y007713D01*
X007155Y007727D01*
X007168Y007809D01*
X007194Y007889D01*
X007232Y007963D01*
X007281Y008031D01*
X007340Y008090D01*
X007408Y008139D01*
X007480Y008175D01*
X007374Y008219D01*
X007219Y008374D01*
X007135Y008576D01*
X007135Y008795D01*
X007219Y008997D01*
X007374Y009152D01*
X007455Y009185D01*
X007374Y009219D01*
X007219Y009374D01*
X007135Y009576D01*
X007135Y009795D01*
X007219Y009997D01*
X007374Y010152D01*
X007455Y010185D01*
X007374Y010219D01*
X007219Y010374D01*
X007135Y010576D01*
X007135Y010795D01*
X007219Y010997D01*
X007374Y011152D01*
X007455Y011185D01*
X007374Y011219D01*
X007219Y011374D01*
X007135Y011576D01*
X007135Y011795D01*
X007219Y011997D01*
X007374Y012152D01*
X007455Y012185D01*
X007374Y012219D01*
X007219Y012374D01*
X007135Y012576D01*
X005465Y012576D01*
X005465Y012418D02*
X007201Y012418D01*
X007135Y012576D02*
X007135Y012795D01*
X007219Y012997D01*
X007374Y013152D01*
X007455Y013185D01*
X007374Y013219D01*
X007219Y013374D01*
X007135Y013576D01*
X007135Y013795D01*
X007219Y013997D01*
X007358Y014135D01*
X007252Y014135D01*
X007135Y014252D01*
X007135Y015118D01*
X007252Y015235D01*
X007405Y015235D01*
X007405Y018630D01*
X007405Y018741D01*
X007448Y018844D01*
X007509Y018905D01*
X006255Y018905D01*
X006255Y018759D02*
X007413Y018759D01*
X007405Y018601D02*
X004965Y018601D01*
X004965Y018442D02*
X007405Y018442D01*
X007405Y018284D02*
X004965Y018284D01*
X004963Y018125D02*
X007405Y018125D01*
X007405Y017967D02*
X004863Y017967D01*
X004704Y017808D02*
X007405Y017808D01*
X007405Y017649D02*
X006460Y017649D01*
X006402Y017708D02*
X005969Y017708D01*
X005663Y017402D01*
X005663Y016969D01*
X005961Y016671D01*
X005683Y016393D01*
X005683Y016213D01*
X006158Y016213D01*
X006158Y016158D01*
X005683Y016158D01*
X005683Y015977D01*
X005977Y015683D01*
X006158Y015683D01*
X006158Y016158D01*
X006213Y016158D01*
X006213Y016213D01*
X006688Y016213D01*
X006688Y016393D01*
X006410Y016671D01*
X006708Y016969D01*
X006708Y017402D01*
X006402Y017708D01*
X006619Y017491D02*
X007405Y017491D01*
X007405Y017332D02*
X006708Y017332D01*
X006708Y017174D02*
X007405Y017174D01*
X007405Y017015D02*
X006708Y017015D01*
X006596Y016857D02*
X007405Y016857D01*
X007405Y016698D02*
X006437Y016698D01*
X006542Y016540D02*
X007405Y016540D01*
X007405Y016381D02*
X006688Y016381D01*
X006688Y016223D02*
X007405Y016223D01*
X007405Y016064D02*
X006688Y016064D01*
X006688Y015977D02*
X006688Y016158D01*
X006213Y016158D01*
X006213Y015683D01*
X006393Y015683D01*
X006688Y015977D01*
X006616Y015906D02*
X007405Y015906D01*
X007405Y015747D02*
X006458Y015747D01*
X006213Y015747D02*
X006158Y015747D01*
X006158Y015906D02*
X006213Y015906D01*
X006213Y016064D02*
X006158Y016064D01*
X005913Y015747D02*
X005465Y015747D01*
X005465Y015906D02*
X005755Y015906D01*
X005683Y016064D02*
X005465Y016064D01*
X005465Y016223D02*
X005683Y016223D01*
X005683Y016381D02*
X005385Y016381D01*
X005227Y016540D02*
X005829Y016540D01*
X005934Y016698D02*
X005068Y016698D01*
X004910Y016857D02*
X005775Y016857D01*
X005663Y017015D02*
X004751Y017015D01*
X004708Y017174D02*
X005663Y017174D01*
X005663Y017332D02*
X004708Y017332D01*
X004619Y017491D02*
X005752Y017491D01*
X005911Y017649D02*
X004545Y017649D01*
X004185Y017685D02*
X004685Y018185D01*
X004685Y019185D01*
X005065Y018759D02*
X005115Y018759D01*
X005188Y019711D02*
X004907Y019711D01*
X006183Y019711D02*
X010516Y019711D01*
X010274Y019552D02*
X006255Y019552D01*
X007685Y018685D02*
X008185Y019185D01*
X008155Y018759D02*
X010334Y018759D01*
X009235Y018618D02*
X009235Y017752D01*
X009118Y017635D01*
X008968Y017635D01*
X009031Y017590D01*
X009090Y017531D01*
X009139Y017463D01*
X009176Y017389D01*
X009202Y017309D01*
X009215Y017227D01*
X009215Y017213D01*
X008713Y017213D01*
X008713Y017158D01*
X009215Y017158D01*
X009215Y017144D01*
X009202Y017061D01*
X009176Y016982D01*
X009139Y016908D01*
X009090Y016840D01*
X009031Y016781D01*
X008963Y016732D01*
X008889Y016694D01*
X008809Y016668D01*
X008727Y016655D01*
X008713Y016655D01*
X008713Y017158D01*
X008658Y017158D01*
X008155Y017158D01*
X008155Y017144D01*
X008168Y017061D01*
X008194Y016982D01*
X008232Y016908D01*
X008281Y016840D01*
X008340Y016781D01*
X008408Y016732D01*
X008482Y016694D01*
X008561Y016668D01*
X008644Y016655D01*
X008658Y016655D01*
X008658Y017158D01*
X008658Y017213D01*
X008155Y017213D01*
X008155Y017227D01*
X008168Y017309D01*
X008194Y017389D01*
X008232Y017463D01*
X008281Y017531D01*
X008340Y017590D01*
X008403Y017635D01*
X008252Y017635D01*
X008135Y017752D01*
X008135Y018618D01*
X008252Y018735D01*
X009118Y018735D01*
X009235Y018618D01*
X009235Y018601D02*
X013705Y018601D01*
X013863Y018759D02*
X013001Y018759D01*
X013144Y018918D02*
X013940Y018918D01*
X014069Y019076D02*
X013205Y019076D01*
X013214Y019235D02*
X015487Y019235D01*
X015487Y019076D02*
X015301Y019076D01*
X015430Y018918D02*
X015535Y018918D01*
X015485Y018759D02*
X015601Y018759D01*
X015485Y018601D02*
X015757Y018601D01*
X016054Y018442D02*
X015426Y018442D01*
X014685Y018685D02*
X014185Y018685D01*
X013435Y017935D01*
X013435Y015685D01*
X012185Y014685D01*
X011812Y014320D02*
X011098Y014320D01*
X011195Y014479D02*
X011663Y014479D01*
X011663Y014637D02*
X011235Y014637D01*
X011235Y014796D02*
X011663Y014796D01*
X011715Y014954D02*
X011169Y014954D01*
X011036Y015113D02*
X011874Y015113D01*
X012470Y015271D02*
X010167Y015271D01*
X010009Y015113D02*
X010335Y015113D01*
X010201Y014954D02*
X009965Y014954D01*
X009965Y014796D02*
X010136Y014796D01*
X010135Y014637D02*
X009965Y014637D01*
X009965Y014479D02*
X010176Y014479D01*
X010273Y014320D02*
X009965Y014320D01*
X009965Y014162D02*
X010453Y014162D01*
X010261Y014003D02*
X009965Y014003D01*
X009965Y013844D02*
X010180Y013844D01*
X009965Y013686D02*
X010658Y013686D01*
X010713Y013686D02*
X014790Y013686D01*
X014949Y013844D02*
X011191Y013844D01*
X011110Y014003D02*
X015107Y014003D01*
X015266Y014162D02*
X010918Y014162D01*
X011191Y013527D02*
X014631Y013527D01*
X014685Y013185D02*
X015685Y014185D01*
X015685Y014685D01*
X015685Y017185D01*
X015185Y017685D01*
X014685Y017685D01*
X014665Y017015D02*
X014705Y017015D01*
X014705Y016857D02*
X014665Y016857D01*
X014665Y016698D02*
X013715Y016698D01*
X013715Y016540D02*
X013928Y016540D01*
X014013Y016381D02*
X013715Y016381D01*
X013715Y016223D02*
X014256Y016223D01*
X014665Y016223D02*
X014705Y016223D01*
X014705Y016381D02*
X014665Y016381D01*
X014665Y016540D02*
X014705Y016540D01*
X015114Y016223D02*
X015405Y016223D01*
X015405Y016381D02*
X015358Y016381D01*
X015405Y016064D02*
X013715Y016064D01*
X013715Y015906D02*
X015405Y015906D01*
X015405Y015747D02*
X013715Y015747D01*
X013702Y015588D02*
X015405Y015588D01*
X015405Y015430D02*
X013564Y015430D01*
X013366Y015271D02*
X015405Y015271D01*
X015374Y015113D02*
X014969Y015113D01*
X015127Y014954D02*
X015215Y014954D01*
X014713Y014954D02*
X014658Y014954D01*
X014658Y014796D02*
X014713Y014796D01*
X014713Y014637D02*
X014658Y014637D01*
X014658Y014479D02*
X014713Y014479D01*
X014713Y014320D02*
X014658Y014320D01*
X014340Y014320D02*
X013531Y014320D01*
X013688Y014479D02*
X014183Y014479D01*
X014183Y014637D02*
X013688Y014637D01*
X013688Y014796D02*
X014183Y014796D01*
X014244Y014954D02*
X013627Y014954D01*
X013469Y015113D02*
X014402Y015113D01*
X014658Y015113D02*
X014713Y015113D01*
X015031Y014320D02*
X015312Y014320D01*
X014685Y013185D02*
X014685Y012935D01*
X014380Y013369D02*
X011110Y013369D01*
X010450Y013210D02*
X009965Y013210D01*
X009965Y013052D02*
X010274Y013052D01*
X010176Y012893D02*
X009965Y012893D01*
X009965Y012735D02*
X010135Y012735D01*
X010135Y012576D02*
X010219Y012374D01*
X010334Y012259D02*
X009965Y012259D01*
X009965Y012100D02*
X010323Y012100D01*
X010196Y011942D02*
X009965Y011942D01*
X009965Y011783D02*
X010135Y011783D01*
X010135Y011625D02*
X009965Y011625D01*
X009965Y011466D02*
X010181Y011466D01*
X010285Y011308D02*
X009965Y011308D01*
X010117Y011149D02*
X010371Y011149D01*
X010185Y010685D02*
X009685Y011185D01*
X009685Y015185D01*
X010685Y016185D01*
X010685Y016685D01*
X011235Y016698D02*
X012658Y016698D01*
X012658Y016540D02*
X012713Y016540D01*
X012713Y016381D02*
X012658Y016381D01*
X012658Y016223D02*
X012713Y016223D01*
X012426Y016223D02*
X011000Y016223D01*
X010938Y016064D02*
X013155Y016064D01*
X013155Y015906D02*
X010801Y015906D01*
X010643Y015747D02*
X013064Y015747D01*
X012866Y015588D02*
X010484Y015588D01*
X010326Y015430D02*
X012668Y015430D01*
X013158Y014637D02*
X013213Y014637D01*
X013213Y014479D02*
X013158Y014479D01*
X013158Y014320D02*
X013213Y014320D01*
X012840Y014320D02*
X012559Y014320D01*
X012945Y016223D02*
X013155Y016223D01*
X013155Y016381D02*
X013119Y016381D01*
X012713Y016857D02*
X012658Y016857D01*
X012658Y017015D02*
X012713Y017015D01*
X012713Y017174D02*
X012658Y017174D01*
X012477Y017174D02*
X010943Y017174D01*
X011133Y017015D02*
X012270Y017015D01*
X012184Y016857D02*
X011210Y016857D01*
X011220Y016540D02*
X012175Y016540D01*
X012251Y016381D02*
X011155Y016381D01*
X010327Y016223D02*
X007965Y016223D01*
X007965Y016381D02*
X010216Y016381D01*
X010150Y016540D02*
X007965Y016540D01*
X007965Y016698D02*
X008474Y016698D01*
X008658Y016698D02*
X008713Y016698D01*
X008713Y016857D02*
X008658Y016857D01*
X008658Y017015D02*
X008713Y017015D01*
X008713Y017174D02*
X010428Y017174D01*
X010238Y017015D02*
X009187Y017015D01*
X009102Y016857D02*
X010161Y016857D01*
X010135Y016698D02*
X008897Y016698D01*
X008658Y017174D02*
X007965Y017174D01*
X007965Y017332D02*
X008176Y017332D01*
X008252Y017491D02*
X007965Y017491D01*
X007965Y017649D02*
X008238Y017649D01*
X008135Y017808D02*
X007965Y017808D01*
X007965Y017967D02*
X008135Y017967D01*
X008135Y018125D02*
X007965Y018125D01*
X007965Y018284D02*
X008135Y018284D01*
X008135Y018442D02*
X007965Y018442D01*
X007997Y018601D02*
X008135Y018601D01*
X007685Y018685D02*
X007685Y014685D01*
X007135Y014637D02*
X006708Y014637D01*
X006708Y014479D02*
X007135Y014479D01*
X007135Y014320D02*
X006559Y014320D01*
X006708Y014469D02*
X006402Y014163D01*
X005969Y014163D01*
X005663Y014469D01*
X005663Y014902D01*
X005969Y015208D01*
X006402Y015208D01*
X006708Y014902D01*
X006708Y014469D01*
X006708Y014796D02*
X007135Y014796D01*
X007135Y014954D02*
X006655Y014954D01*
X006497Y015113D02*
X007135Y015113D01*
X007405Y015271D02*
X005465Y015271D01*
X005465Y015113D02*
X005874Y015113D01*
X005715Y014954D02*
X005465Y014954D01*
X005465Y014796D02*
X005663Y014796D01*
X005663Y014637D02*
X005465Y014637D01*
X005465Y014479D02*
X005663Y014479D01*
X005812Y014320D02*
X005465Y014320D01*
X005465Y014162D02*
X007226Y014162D01*
X007225Y014003D02*
X005465Y014003D01*
X005465Y013844D02*
X007156Y013844D01*
X007135Y013686D02*
X005465Y013686D01*
X005465Y013527D02*
X007155Y013527D01*
X007224Y013369D02*
X005465Y013369D01*
X005465Y013210D02*
X007395Y013210D01*
X007274Y013052D02*
X005465Y013052D01*
X005465Y012893D02*
X007176Y012893D01*
X007135Y012735D02*
X005465Y012735D01*
X005473Y012259D02*
X007334Y012259D01*
X007323Y012100D02*
X005578Y012100D01*
X005684Y011942D02*
X007196Y011942D01*
X007135Y011783D02*
X005790Y011783D01*
X005896Y011625D02*
X007135Y011625D01*
X007181Y011466D02*
X006001Y011466D01*
X006107Y011308D02*
X007285Y011308D01*
X007371Y011149D02*
X006460Y011149D01*
X006619Y010991D02*
X007217Y010991D01*
X007151Y010832D02*
X006708Y010832D01*
X006708Y010674D02*
X007135Y010674D01*
X007161Y010515D02*
X006708Y010515D01*
X006595Y010356D02*
X007236Y010356D01*
X007425Y010198D02*
X006465Y010198D01*
X006465Y010039D02*
X007262Y010039D01*
X007171Y009881D02*
X006465Y009881D01*
X006465Y009722D02*
X007135Y009722D01*
X007140Y009564D02*
X006465Y009564D01*
X006465Y009405D02*
X007206Y009405D01*
X007346Y009247D02*
X006465Y009247D01*
X006465Y009088D02*
X007310Y009088D01*
X007191Y008930D02*
X006465Y008930D01*
X006465Y008771D02*
X007135Y008771D01*
X007135Y008613D02*
X006465Y008613D01*
X006465Y008454D02*
X007186Y008454D01*
X007297Y008295D02*
X006465Y008295D01*
X006465Y008137D02*
X007405Y008137D01*
X007243Y007978D02*
X006465Y007978D01*
X006465Y007820D02*
X007172Y007820D01*
X007187Y007503D02*
X006764Y007503D01*
X006605Y007661D02*
X007658Y007661D01*
X007713Y007661D02*
X008405Y007661D01*
X008405Y007503D02*
X008183Y007503D01*
X008093Y007344D02*
X008405Y007344D01*
X008405Y007186D02*
X007915Y007186D01*
X008121Y007027D02*
X008405Y007027D01*
X008405Y006869D02*
X008205Y006869D01*
X008235Y006710D02*
X008405Y006710D01*
X008405Y006551D02*
X008225Y006551D01*
X008159Y006393D02*
X008405Y006393D01*
X008405Y006234D02*
X008012Y006234D01*
X008073Y006076D02*
X008405Y006076D01*
X008405Y005917D02*
X008185Y005917D01*
X008235Y005759D02*
X008405Y005759D01*
X008405Y005600D02*
X008235Y005600D01*
X008180Y005442D02*
X008405Y005442D01*
X008405Y005283D02*
X008061Y005283D01*
X008024Y005125D02*
X008405Y005125D01*
X008405Y004966D02*
X008164Y004966D01*
X008230Y004807D02*
X008405Y004807D01*
X008405Y004649D02*
X008235Y004649D01*
X008200Y004490D02*
X008405Y004490D01*
X008405Y004332D02*
X008110Y004332D01*
X007944Y004173D02*
X008405Y004173D01*
X008405Y004015D02*
X008134Y004015D01*
X008210Y003856D02*
X008405Y003856D01*
X008405Y003698D02*
X008235Y003698D01*
X008220Y003539D02*
X008405Y003539D01*
X008405Y003381D02*
X008154Y003381D01*
X008000Y003222D02*
X008326Y003222D01*
X008168Y003064D02*
X008085Y003064D01*
X008484Y002588D02*
X010135Y002588D01*
X010135Y002576D02*
X010219Y002374D01*
X010374Y002219D01*
X010455Y002185D01*
X010374Y002152D01*
X010219Y001997D01*
X010135Y001795D01*
X010135Y001637D02*
X008235Y001637D01*
X008235Y001795D02*
X008152Y001997D01*
X007997Y002152D01*
X007915Y002185D01*
X007997Y002219D01*
X008152Y002374D01*
X008165Y002405D01*
X008241Y002405D01*
X008344Y002448D01*
X008844Y002948D01*
X008923Y003027D01*
X008965Y003130D01*
X008965Y009069D01*
X009301Y009405D01*
X010206Y009405D01*
X010219Y009374D01*
X010374Y009219D01*
X010455Y009185D01*
X010374Y009152D01*
X010219Y008997D01*
X010135Y008795D01*
X010135Y008576D01*
X010219Y008374D01*
X010374Y008219D01*
X010455Y008185D01*
X010374Y008152D01*
X010219Y007997D01*
X010135Y007795D01*
X010135Y007576D01*
X010219Y007374D01*
X010374Y007219D01*
X010455Y007185D01*
X010374Y007152D01*
X010219Y006997D01*
X010135Y006795D01*
X010135Y006576D01*
X010219Y006374D01*
X010374Y006219D01*
X010480Y006175D01*
X010408Y006139D01*
X010340Y006090D01*
X010281Y006031D01*
X010232Y005963D01*
X010194Y005889D01*
X010168Y005809D01*
X010155Y005727D01*
X010155Y005713D01*
X010658Y005713D01*
X010658Y005658D01*
X010155Y005658D01*
X010155Y005644D01*
X010168Y005561D01*
X010194Y005482D01*
X010232Y005408D01*
X010281Y005340D01*
X010340Y005281D01*
X010408Y005232D01*
X010480Y005195D01*
X010374Y005152D01*
X010219Y004997D01*
X010135Y004795D01*
X010135Y004576D01*
X010219Y004374D01*
X010374Y004219D01*
X010455Y004185D01*
X010374Y004152D01*
X010219Y003997D01*
X010135Y003795D01*
X010135Y003576D01*
X010219Y003374D01*
X010374Y003219D01*
X010455Y003185D01*
X010374Y003152D01*
X010219Y002997D01*
X010135Y002795D01*
X010135Y002576D01*
X010196Y002429D02*
X008299Y002429D01*
X008049Y002271D02*
X010322Y002271D01*
X010334Y002112D02*
X008036Y002112D01*
X008169Y001954D02*
X010201Y001954D01*
X010176Y001478D02*
X008195Y001478D01*
X008097Y001320D02*
X010273Y001320D01*
X010514Y001161D02*
X007857Y001161D01*
X007514Y001161D02*
X001409Y001161D01*
X001626Y001320D02*
X007273Y001320D01*
X007176Y001478D02*
X003374Y001478D01*
X003533Y001637D02*
X007135Y001637D01*
X007136Y001795D02*
X003691Y001795D01*
X003850Y001954D02*
X007201Y001954D01*
X007334Y002112D02*
X004008Y002112D01*
X004167Y002271D02*
X007322Y002271D01*
X006685Y002685D02*
X006185Y003185D01*
X006185Y005685D01*
X006685Y006185D01*
X006685Y007185D01*
X006185Y007685D01*
X006185Y010685D01*
X005185Y012185D01*
X005185Y016185D01*
X004185Y017185D01*
X004185Y017685D01*
X004688Y016223D02*
X004752Y016223D01*
X004688Y016064D02*
X004905Y016064D01*
X004905Y015906D02*
X004616Y015906D01*
X004458Y015747D02*
X004905Y015747D01*
X004905Y015588D02*
X003178Y015588D01*
X003337Y015430D02*
X004905Y015430D01*
X004905Y015271D02*
X003453Y015271D01*
X003465Y015113D02*
X004905Y015113D01*
X004905Y014954D02*
X003465Y014954D01*
X003465Y014796D02*
X004905Y014796D01*
X004905Y014637D02*
X003465Y014637D01*
X003465Y014479D02*
X004905Y014479D01*
X004905Y014320D02*
X003465Y014320D01*
X003465Y014162D02*
X004905Y014162D01*
X004905Y014003D02*
X003465Y014003D01*
X003465Y013844D02*
X004905Y013844D01*
X004905Y013686D02*
X003465Y013686D01*
X003465Y013527D02*
X004905Y013527D01*
X004905Y013369D02*
X003465Y013369D01*
X003465Y013210D02*
X004905Y013210D01*
X004905Y013052D02*
X003465Y013052D01*
X003465Y012893D02*
X004905Y012893D01*
X004905Y012735D02*
X003465Y012735D01*
X003465Y012576D02*
X004905Y012576D01*
X004905Y012418D02*
X003465Y012418D01*
X003543Y012259D02*
X004905Y012259D01*
X004917Y012100D02*
X003538Y012100D01*
X003449Y011942D02*
X005011Y011942D01*
X005117Y011783D02*
X002465Y011783D01*
X002465Y011625D02*
X005222Y011625D01*
X005328Y011466D02*
X002465Y011466D01*
X002465Y011308D02*
X005434Y011308D01*
X005540Y011149D02*
X002465Y011149D01*
X002465Y010991D02*
X005645Y010991D01*
X005663Y010832D02*
X002465Y010832D01*
X002465Y010674D02*
X005663Y010674D01*
X005663Y010515D02*
X002411Y010515D01*
X002252Y010356D02*
X005775Y010356D01*
X005905Y010198D02*
X002094Y010198D01*
X001935Y010039D02*
X005905Y010039D01*
X005905Y009881D02*
X001777Y009881D01*
X001461Y010356D02*
X000885Y010356D01*
X000885Y010515D02*
X001619Y010515D01*
X001778Y010674D02*
X000885Y010674D01*
X000885Y010832D02*
X001905Y010832D01*
X001905Y010991D02*
X000885Y010991D01*
X000885Y011149D02*
X000990Y011149D01*
X001380Y011149D02*
X001905Y011149D01*
X001905Y011308D02*
X001614Y011308D01*
X001712Y011466D02*
X001905Y011466D01*
X001905Y011625D02*
X001755Y011625D01*
X001755Y011783D02*
X001905Y011783D01*
X001905Y011942D02*
X001696Y011942D01*
X001576Y012100D02*
X001905Y012100D01*
X001905Y012259D02*
X001565Y012259D01*
X001691Y012418D02*
X001905Y012418D01*
X001905Y012576D02*
X001755Y012576D01*
X001755Y012735D02*
X001905Y012735D01*
X001905Y012893D02*
X001716Y012893D01*
X001625Y013052D02*
X001905Y013052D01*
X001905Y013210D02*
X001516Y013210D01*
X001671Y013369D02*
X001905Y013369D01*
X001905Y013527D02*
X001737Y013527D01*
X001755Y013686D02*
X001905Y013686D01*
X001905Y013844D02*
X001736Y013844D01*
X001671Y014003D02*
X001905Y014003D01*
X001905Y014162D02*
X001684Y014162D01*
X001755Y014320D02*
X001905Y014320D01*
X001905Y014479D02*
X001755Y014479D01*
X001755Y014637D02*
X001905Y014637D01*
X001905Y014796D02*
X001755Y014796D01*
X001755Y014954D02*
X001905Y014954D01*
X001862Y015113D02*
X001755Y015113D01*
X001703Y015271D02*
X000885Y015271D01*
X000885Y015430D02*
X001545Y015430D01*
X001422Y015588D02*
X000885Y015588D01*
X000885Y015747D02*
X001405Y015747D01*
X001405Y015906D02*
X000885Y015906D01*
X000885Y016064D02*
X001405Y016064D01*
X001405Y016223D02*
X000885Y016223D01*
X000885Y016381D02*
X001405Y016381D01*
X001405Y016540D02*
X000885Y016540D01*
X000885Y016698D02*
X001405Y016698D01*
X001405Y016857D02*
X000885Y016857D01*
X000885Y017015D02*
X001405Y017015D01*
X001405Y017174D02*
X000885Y017174D01*
X000885Y017332D02*
X001405Y017332D01*
X001405Y017491D02*
X000885Y017491D01*
X000885Y017649D02*
X001405Y017649D01*
X001405Y017808D02*
X000885Y017808D01*
X000885Y017967D02*
X001405Y017967D01*
X001405Y018125D02*
X000885Y018125D01*
X000885Y018284D02*
X001405Y018284D01*
X001405Y018442D02*
X000885Y018442D01*
X000885Y018601D02*
X001405Y018601D01*
X001305Y018759D02*
X000885Y018759D01*
X000885Y018918D02*
X001179Y018918D01*
X001115Y019076D02*
X000885Y019076D01*
X000885Y019235D02*
X001115Y019235D01*
X001155Y019393D02*
X000885Y019393D01*
X000885Y019552D02*
X001246Y019552D01*
X001464Y019711D02*
X000885Y019711D01*
X001907Y019711D02*
X002464Y019711D01*
X002246Y019552D02*
X002125Y019552D01*
X005465Y015588D02*
X007405Y015588D01*
X007405Y015430D02*
X005465Y015430D01*
X003344Y015423D02*
X003344Y015423D01*
X007965Y015430D02*
X009534Y015430D01*
X009418Y015271D02*
X007965Y015271D01*
X008235Y015113D02*
X009405Y015113D01*
X009405Y014954D02*
X008235Y014954D01*
X008235Y014796D02*
X009405Y014796D01*
X009405Y014637D02*
X008235Y014637D01*
X008235Y014479D02*
X009405Y014479D01*
X009405Y014320D02*
X008235Y014320D01*
X008144Y014162D02*
X009405Y014162D01*
X009405Y014003D02*
X008145Y014003D01*
X008215Y013844D02*
X009405Y013844D01*
X009405Y013686D02*
X008235Y013686D01*
X008215Y013527D02*
X009405Y013527D01*
X009405Y013369D02*
X008147Y013369D01*
X007976Y013210D02*
X009405Y013210D01*
X009405Y013052D02*
X008097Y013052D01*
X008195Y012893D02*
X009405Y012893D01*
X009405Y012735D02*
X008235Y012735D01*
X008037Y012259D02*
X009405Y012259D01*
X009405Y012100D02*
X008048Y012100D01*
X008174Y011942D02*
X009405Y011942D01*
X009405Y011783D02*
X008235Y011783D01*
X008235Y011625D02*
X009405Y011625D01*
X009405Y011466D02*
X008190Y011466D01*
X008086Y011308D02*
X009405Y011308D01*
X009405Y011149D02*
X007999Y011149D01*
X008154Y010991D02*
X009484Y010991D01*
X009643Y010832D02*
X008220Y010832D01*
X008235Y010674D02*
X009801Y010674D01*
X009960Y010515D02*
X008210Y010515D01*
X008134Y010356D02*
X010236Y010356D01*
X010425Y010198D02*
X007946Y010198D01*
X008109Y010039D02*
X010262Y010039D01*
X010206Y009405D02*
X009301Y009405D01*
X009143Y009247D02*
X010346Y009247D01*
X010310Y009088D02*
X008984Y009088D01*
X008965Y008930D02*
X010191Y008930D01*
X010135Y008771D02*
X008965Y008771D01*
X008965Y008613D02*
X010135Y008613D01*
X010186Y008454D02*
X008965Y008454D01*
X008965Y008295D02*
X010297Y008295D01*
X010359Y008137D02*
X008965Y008137D01*
X008965Y007978D02*
X010211Y007978D01*
X010146Y007820D02*
X008965Y007820D01*
X008965Y007661D02*
X010135Y007661D01*
X010166Y007503D02*
X008965Y007503D01*
X008965Y007344D02*
X010249Y007344D01*
X010455Y007186D02*
X008965Y007186D01*
X008965Y007027D02*
X010249Y007027D01*
X010166Y006869D02*
X008965Y006869D01*
X008965Y006710D02*
X010135Y006710D01*
X010145Y006551D02*
X008965Y006551D01*
X008965Y006393D02*
X010211Y006393D01*
X010359Y006234D02*
X008965Y006234D01*
X008965Y006076D02*
X010326Y006076D01*
X010209Y005917D02*
X008965Y005917D01*
X008965Y005759D02*
X010160Y005759D01*
X010162Y005600D02*
X008965Y005600D01*
X008965Y005442D02*
X010215Y005442D01*
X010338Y005283D02*
X008965Y005283D01*
X008965Y005125D02*
X010347Y005125D01*
X010206Y004966D02*
X008965Y004966D01*
X008965Y004807D02*
X010141Y004807D01*
X010135Y004649D02*
X008965Y004649D01*
X008965Y004490D02*
X010171Y004490D01*
X010261Y004332D02*
X008965Y004332D01*
X008965Y004173D02*
X010426Y004173D01*
X010237Y004015D02*
X008965Y004015D01*
X008965Y003856D02*
X010161Y003856D01*
X010135Y003698D02*
X008965Y003698D01*
X008965Y003539D02*
X010151Y003539D01*
X010216Y003381D02*
X008965Y003381D01*
X008965Y003222D02*
X010371Y003222D01*
X010286Y003064D02*
X008938Y003064D01*
X008801Y002905D02*
X010181Y002905D01*
X010135Y002746D02*
X008642Y002746D01*
X007371Y003222D02*
X006545Y003222D01*
X006465Y003381D02*
X007216Y003381D01*
X007151Y003539D02*
X006465Y003539D01*
X006465Y003698D02*
X007135Y003698D01*
X007161Y003856D02*
X006465Y003856D01*
X006465Y004015D02*
X007237Y004015D01*
X007426Y004173D02*
X006465Y004173D01*
X006465Y004332D02*
X007261Y004332D01*
X007171Y004490D02*
X006465Y004490D01*
X006465Y004649D02*
X007135Y004649D01*
X007141Y004807D02*
X006465Y004807D01*
X006465Y004966D02*
X007206Y004966D01*
X007347Y005125D02*
X006465Y005125D01*
X006465Y005283D02*
X007310Y005283D01*
X007191Y005442D02*
X006465Y005442D01*
X006496Y005600D02*
X007135Y005600D01*
X007135Y005759D02*
X006655Y005759D01*
X006813Y005917D02*
X007186Y005917D01*
X007298Y006076D02*
X006943Y006076D01*
X006965Y006234D02*
X007359Y006234D01*
X007211Y006393D02*
X006965Y006393D01*
X006965Y006551D02*
X007145Y006551D01*
X007135Y006710D02*
X006965Y006710D01*
X006965Y006869D02*
X007166Y006869D01*
X007249Y007027D02*
X006965Y007027D01*
X006965Y007186D02*
X007456Y007186D01*
X007278Y007344D02*
X006922Y007344D01*
X007966Y008137D02*
X008405Y008137D01*
X008405Y008295D02*
X008073Y008295D01*
X008185Y008454D02*
X008405Y008454D01*
X008405Y008613D02*
X008235Y008613D01*
X008235Y008771D02*
X008405Y008771D01*
X008405Y008930D02*
X008179Y008930D01*
X008060Y009088D02*
X008405Y009088D01*
X008408Y009247D02*
X008024Y009247D01*
X008165Y009405D02*
X008509Y009405D01*
X008668Y009564D02*
X008230Y009564D01*
X008235Y009722D02*
X008826Y009722D01*
X008985Y009881D02*
X008200Y009881D01*
X008128Y007978D02*
X008405Y007978D01*
X008405Y007820D02*
X008199Y007820D01*
X010916Y007186D02*
X011953Y007186D01*
X012002Y007235D02*
X011885Y007118D01*
X011885Y006252D01*
X012002Y006135D01*
X012153Y006135D01*
X012090Y006090D01*
X012031Y006031D01*
X011982Y005963D01*
X011944Y005889D01*
X011918Y005809D01*
X011905Y005727D01*
X011905Y005713D01*
X012408Y005713D01*
X012408Y005658D01*
X011905Y005658D01*
X011905Y005644D01*
X011918Y005561D01*
X011944Y005482D01*
X011982Y005408D01*
X012031Y005340D01*
X012090Y005281D01*
X012158Y005232D01*
X012232Y005194D01*
X012311Y005168D01*
X012394Y005155D01*
X012408Y005155D01*
X012408Y005658D01*
X012463Y005658D01*
X012463Y005713D01*
X012965Y005713D01*
X012965Y005727D01*
X012952Y005809D01*
X012926Y005889D01*
X012889Y005963D01*
X012840Y006031D01*
X012781Y006090D01*
X012718Y006135D01*
X012868Y006135D01*
X012985Y006252D01*
X012985Y007118D01*
X012868Y007235D01*
X012002Y007235D01*
X011885Y007027D02*
X011121Y007027D01*
X011205Y006869D02*
X011885Y006869D01*
X011885Y006710D02*
X011235Y006710D01*
X011225Y006551D02*
X011885Y006551D01*
X011885Y006393D02*
X011159Y006393D01*
X011012Y006234D02*
X011903Y006234D01*
X012076Y006076D02*
X011044Y006076D01*
X011162Y005917D02*
X011959Y005917D01*
X011910Y005759D02*
X011210Y005759D01*
X011208Y005600D02*
X011912Y005600D01*
X011965Y005442D02*
X011156Y005442D01*
X011033Y005283D02*
X012088Y005283D01*
X012408Y005283D02*
X012463Y005283D01*
X012463Y005155D02*
X012477Y005155D01*
X012559Y005168D01*
X012639Y005194D01*
X012713Y005232D01*
X012781Y005281D01*
X012840Y005340D01*
X012889Y005408D01*
X012926Y005482D01*
X012952Y005561D01*
X012965Y005644D01*
X012965Y005658D01*
X012463Y005658D01*
X012463Y005155D01*
X012463Y005442D02*
X012408Y005442D01*
X012408Y005600D02*
X012463Y005600D01*
X012783Y005283D02*
X016405Y005283D01*
X016405Y005125D02*
X011024Y005125D01*
X011164Y004966D02*
X016405Y004966D01*
X016405Y004807D02*
X011230Y004807D01*
X011235Y004649D02*
X016405Y004649D01*
X016405Y004490D02*
X011200Y004490D01*
X011110Y004332D02*
X016405Y004332D01*
X016405Y004173D02*
X010944Y004173D01*
X011134Y004015D02*
X016405Y004015D01*
X016405Y003856D02*
X011210Y003856D01*
X011235Y003698D02*
X016405Y003698D01*
X016405Y003539D02*
X012982Y003539D01*
X013141Y003381D02*
X016405Y003381D01*
X016326Y003222D02*
X013145Y003222D01*
X012389Y003539D02*
X011220Y003539D01*
X011154Y003381D02*
X012230Y003381D01*
X012225Y003222D02*
X011000Y003222D01*
X011085Y003064D02*
X012225Y003064D01*
X012315Y002905D02*
X011190Y002905D01*
X011235Y002746D02*
X012474Y002746D01*
X012437Y002588D02*
X011235Y002588D01*
X011175Y002429D02*
X012279Y002429D01*
X012225Y002271D02*
X011049Y002271D01*
X011036Y002112D02*
X012225Y002112D01*
X012946Y001795D02*
X018180Y001795D01*
X018338Y001637D02*
X011235Y001637D01*
X011235Y001795D02*
X011152Y001997D01*
X011195Y001478D02*
X018497Y001478D01*
X018685Y001685D02*
X019685Y001685D01*
X019306Y002112D02*
X018654Y002112D01*
X018496Y002271D02*
X019322Y002271D01*
X019199Y002429D02*
X018337Y002429D01*
X018179Y002588D02*
X019144Y002588D01*
X019138Y002746D02*
X018020Y002746D01*
X017965Y002905D02*
X019180Y002905D01*
X019286Y003064D02*
X017965Y003064D01*
X017965Y003222D02*
X019343Y003222D01*
X019195Y003381D02*
X017965Y003381D01*
X017965Y003539D02*
X019129Y003539D01*
X019115Y003698D02*
X017965Y003698D01*
X017965Y003856D02*
X019139Y003856D01*
X019209Y004015D02*
X017965Y004015D01*
X017965Y004173D02*
X019175Y004173D01*
X019115Y004332D02*
X017965Y004332D01*
X017965Y004490D02*
X019115Y004490D01*
X019115Y004649D02*
X017965Y004649D01*
X017965Y004807D02*
X019115Y004807D01*
X019115Y004966D02*
X017965Y004966D01*
X017965Y005125D02*
X019115Y005125D01*
X020170Y005283D02*
X017965Y005283D01*
X017965Y005442D02*
X020170Y005442D01*
X020170Y005600D02*
X017965Y005600D01*
X017965Y005759D02*
X020170Y005759D01*
X020170Y005917D02*
X017965Y005917D01*
X017965Y006076D02*
X020170Y006076D01*
X020170Y006234D02*
X020040Y006234D01*
X019330Y006234D02*
X017965Y006234D01*
X017965Y006393D02*
X019189Y006393D01*
X019124Y006551D02*
X017965Y006551D01*
X017965Y006710D02*
X019115Y006710D01*
X019144Y006869D02*
X017965Y006869D01*
X017965Y007027D02*
X019221Y007027D01*
X019402Y007186D02*
X017965Y007186D01*
X017965Y007344D02*
X019220Y007344D01*
X019144Y007503D02*
X017965Y007503D01*
X017965Y007661D02*
X019115Y007661D01*
X019124Y007820D02*
X017965Y007820D01*
X017965Y007978D02*
X019190Y007978D01*
X019331Y008137D02*
X017965Y008137D01*
X017965Y008295D02*
X019269Y008295D01*
X019164Y008454D02*
X017965Y008454D01*
X017965Y008613D02*
X019115Y008613D01*
X019115Y008771D02*
X017965Y008771D01*
X017965Y008930D02*
X019170Y008930D01*
X019282Y009088D02*
X017965Y009088D01*
X017965Y009247D02*
X019115Y009247D01*
X019115Y009405D02*
X017965Y009405D01*
X017965Y009564D02*
X019115Y009564D01*
X019115Y009722D02*
X017965Y009722D01*
X017965Y009881D02*
X019115Y009881D01*
X019115Y010039D02*
X017965Y010039D01*
X017965Y010198D02*
X019175Y010198D01*
X020170Y010356D02*
X017965Y010356D01*
X017965Y010515D02*
X020170Y010515D01*
X020170Y010674D02*
X017965Y010674D01*
X017965Y010832D02*
X020170Y010832D01*
X020170Y010991D02*
X017965Y010991D01*
X017965Y011149D02*
X020170Y011149D01*
X020170Y011308D02*
X019018Y011308D01*
X018893Y011183D02*
X019188Y011477D01*
X019188Y011658D01*
X018713Y011658D01*
X018713Y011713D01*
X019188Y011713D01*
X019188Y011893D01*
X018893Y012188D01*
X018713Y012188D01*
X018713Y011713D01*
X018658Y011713D01*
X018658Y012188D01*
X018477Y012188D01*
X018183Y011893D01*
X018183Y011713D01*
X018658Y011713D01*
X018658Y011658D01*
X018713Y011658D01*
X018713Y011183D01*
X018893Y011183D01*
X018713Y011308D02*
X018658Y011308D01*
X018658Y011183D02*
X018477Y011183D01*
X018183Y011477D01*
X018183Y011658D01*
X018658Y011658D01*
X018658Y011183D01*
X018658Y011466D02*
X018713Y011466D01*
X018713Y011625D02*
X018658Y011625D01*
X018658Y011783D02*
X018713Y011783D01*
X018713Y011942D02*
X018658Y011942D01*
X018658Y012100D02*
X018713Y012100D01*
X018981Y012100D02*
X020170Y012100D01*
X020170Y011942D02*
X019139Y011942D01*
X019188Y011783D02*
X020170Y011783D01*
X020170Y011625D02*
X019188Y011625D01*
X019177Y011466D02*
X020170Y011466D01*
X020170Y012259D02*
X017965Y012259D01*
X017965Y012100D02*
X018390Y012100D01*
X018231Y011942D02*
X017965Y011942D01*
X017965Y011783D02*
X018183Y011783D01*
X018183Y011625D02*
X017965Y011625D01*
X017965Y011466D02*
X018194Y011466D01*
X018352Y011308D02*
X017965Y011308D01*
X017965Y012418D02*
X018464Y012418D01*
X018469Y012413D02*
X018902Y012413D01*
X019208Y012719D01*
X019208Y013152D01*
X018965Y013394D01*
X018965Y013815D01*
X019145Y013995D01*
X019145Y014376D01*
X018876Y014645D01*
X018495Y014645D01*
X018225Y014376D01*
X018225Y013995D01*
X018405Y013815D01*
X018405Y013394D01*
X018163Y013152D01*
X018163Y012719D01*
X018469Y012413D01*
X018306Y012576D02*
X017965Y012576D01*
X017965Y012735D02*
X018163Y012735D01*
X018163Y012893D02*
X017965Y012893D01*
X017965Y013052D02*
X018163Y013052D01*
X018221Y013210D02*
X017965Y013210D01*
X017965Y013369D02*
X018380Y013369D01*
X018405Y013527D02*
X017965Y013527D01*
X017965Y013686D02*
X018405Y013686D01*
X018376Y013844D02*
X017965Y013844D01*
X017965Y014003D02*
X018225Y014003D01*
X018225Y014162D02*
X017965Y014162D01*
X017965Y014320D02*
X018225Y014320D01*
X018328Y014479D02*
X017965Y014479D01*
X017965Y014637D02*
X018487Y014637D01*
X018503Y014745D02*
X018245Y015003D01*
X018245Y015185D01*
X018685Y015185D01*
X018685Y015186D01*
X018685Y015625D01*
X018503Y015625D01*
X018245Y015368D01*
X018245Y015186D01*
X018685Y015186D01*
X018686Y015186D01*
X018686Y015625D01*
X018868Y015625D01*
X019125Y015368D01*
X019125Y015186D01*
X018686Y015186D01*
X018686Y015185D01*
X019125Y015185D01*
X019125Y015003D01*
X018868Y014745D01*
X018686Y014745D01*
X018686Y015185D01*
X018685Y015185D01*
X018685Y014745D01*
X018503Y014745D01*
X018453Y014796D02*
X017965Y014796D01*
X017965Y014954D02*
X018294Y014954D01*
X018245Y015113D02*
X017965Y015113D01*
X017965Y015271D02*
X018245Y015271D01*
X018308Y015430D02*
X017965Y015430D01*
X017984Y015588D02*
X018466Y015588D01*
X018685Y015588D02*
X018686Y015588D01*
X018685Y015430D02*
X018686Y015430D01*
X018685Y015271D02*
X018686Y015271D01*
X018685Y015113D02*
X018686Y015113D01*
X018685Y014954D02*
X018686Y014954D01*
X018685Y014796D02*
X018686Y014796D01*
X018918Y014796D02*
X020170Y014796D01*
X020170Y014954D02*
X019076Y014954D01*
X019125Y015113D02*
X020170Y015113D01*
X020170Y015271D02*
X019125Y015271D01*
X019063Y015430D02*
X020170Y015430D01*
X020170Y015588D02*
X018904Y015588D01*
X018441Y016064D02*
X020170Y016064D01*
X020170Y015906D02*
X018301Y015906D01*
X018143Y015747D02*
X020170Y015747D01*
X020170Y016223D02*
X018477Y016223D01*
X018507Y016381D02*
X020170Y016381D01*
X020170Y016540D02*
X018537Y016540D01*
X018615Y016698D02*
X020170Y016698D01*
X020170Y016857D02*
X019829Y016857D01*
X020003Y017015D02*
X020170Y017015D01*
X020170Y017174D02*
X020044Y017174D01*
X020012Y017332D02*
X020170Y017332D01*
X020170Y017491D02*
X019884Y017491D01*
X019617Y017649D02*
X020170Y017649D01*
X020170Y017808D02*
X019459Y017808D01*
X019403Y017864D02*
X019403Y017864D01*
X019266Y017967D02*
X020170Y017967D01*
X020170Y018125D02*
X018227Y018125D01*
X017863Y018125D02*
X017537Y018125D01*
X018045Y017705D02*
X019165Y017705D01*
X019685Y017185D01*
X019542Y016857D02*
X018756Y016857D01*
X018813Y017015D02*
X019368Y017015D01*
X019301Y017174D02*
X018813Y017174D01*
X018748Y017332D02*
X019142Y017332D01*
X018355Y017085D02*
X018185Y016185D01*
X017685Y015685D01*
X017685Y015505D01*
X017685Y002685D01*
X018685Y001685D01*
X019245Y001320D02*
X011097Y001320D01*
X010857Y001161D02*
X019462Y001161D01*
X019909Y001161D02*
X020170Y001161D01*
X020170Y001002D02*
X000885Y001002D01*
X000885Y001161D02*
X000962Y001161D01*
X001185Y001685D02*
X003185Y001685D01*
X004185Y002685D01*
X003898Y002905D02*
X001691Y002905D01*
X001733Y002746D02*
X003827Y002746D01*
X003692Y002588D02*
X001727Y002588D01*
X001672Y002429D02*
X003533Y002429D01*
X003375Y002271D02*
X001549Y002271D01*
X001565Y002112D02*
X003216Y002112D01*
X006703Y003064D02*
X007286Y003064D01*
X005359Y006234D02*
X005185Y006234D01*
X010185Y010685D02*
X010685Y010685D01*
X011024Y009247D02*
X011228Y009247D01*
X011387Y009088D02*
X011060Y009088D01*
X011179Y008930D02*
X011545Y008930D01*
X011704Y008771D02*
X011235Y008771D01*
X011235Y008613D02*
X011862Y008613D01*
X012021Y008454D02*
X011185Y008454D01*
X011073Y008295D02*
X012179Y008295D01*
X012338Y008137D02*
X011012Y008137D01*
X011159Y007978D02*
X012496Y007978D01*
X012655Y007820D02*
X011225Y007820D01*
X011235Y007661D02*
X012813Y007661D01*
X012972Y007503D02*
X011205Y007503D01*
X011122Y007344D02*
X015631Y007344D01*
X015789Y007186D02*
X012918Y007186D01*
X012985Y007027D02*
X015948Y007027D01*
X015902Y006958D02*
X015469Y006958D01*
X015163Y006652D01*
X015163Y006219D01*
X015469Y005913D01*
X015902Y005913D01*
X016208Y006219D01*
X016208Y006652D01*
X015902Y006958D01*
X015991Y006869D02*
X016106Y006869D01*
X016150Y006710D02*
X016265Y006710D01*
X016208Y006551D02*
X016405Y006551D01*
X016405Y006393D02*
X016208Y006393D01*
X016208Y006234D02*
X016405Y006234D01*
X016405Y006076D02*
X016065Y006076D01*
X015906Y005917D02*
X016405Y005917D01*
X016405Y005759D02*
X012960Y005759D01*
X012958Y005600D02*
X016405Y005600D01*
X016405Y005442D02*
X012906Y005442D01*
X012912Y005917D02*
X015464Y005917D01*
X015306Y006076D02*
X014536Y006076D01*
X014393Y005933D02*
X014688Y006227D01*
X014688Y006408D01*
X014213Y006408D01*
X014213Y006463D01*
X014158Y006463D01*
X014158Y006938D01*
X013977Y006938D01*
X013683Y006643D01*
X013683Y006463D01*
X014158Y006463D01*
X014158Y006408D01*
X013683Y006408D01*
X013683Y006227D01*
X013977Y005933D01*
X014158Y005933D01*
X014158Y006408D01*
X014213Y006408D01*
X014213Y005933D01*
X014393Y005933D01*
X014213Y006076D02*
X014158Y006076D01*
X014158Y006234D02*
X014213Y006234D01*
X014213Y006393D02*
X014158Y006393D01*
X014213Y006463D02*
X014688Y006463D01*
X014688Y006643D01*
X014393Y006938D01*
X014213Y006938D01*
X014213Y006463D01*
X014213Y006551D02*
X014158Y006551D01*
X014158Y006710D02*
X014213Y006710D01*
X014213Y006869D02*
X014158Y006869D01*
X013908Y006869D02*
X012985Y006869D01*
X012985Y006710D02*
X013749Y006710D01*
X013683Y006551D02*
X012985Y006551D01*
X012985Y006393D02*
X013683Y006393D01*
X013683Y006234D02*
X012967Y006234D01*
X012794Y006076D02*
X013834Y006076D01*
X014463Y006869D02*
X015380Y006869D01*
X015221Y006710D02*
X014621Y006710D01*
X014688Y006551D02*
X015163Y006551D01*
X015163Y006393D02*
X014688Y006393D01*
X014688Y006234D02*
X015163Y006234D01*
X016985Y007978D02*
X017405Y007978D01*
X017405Y008137D02*
X017044Y008137D01*
X017191Y008295D02*
X017405Y008295D01*
X017405Y008454D02*
X017350Y008454D01*
X018906Y012418D02*
X020170Y012418D01*
X020170Y012576D02*
X019065Y012576D01*
X019208Y012735D02*
X020170Y012735D01*
X020170Y012893D02*
X019208Y012893D01*
X019208Y013052D02*
X020170Y013052D01*
X020170Y013210D02*
X019149Y013210D01*
X018991Y013369D02*
X020170Y013369D01*
X020170Y013527D02*
X018965Y013527D01*
X018965Y013686D02*
X020170Y013686D01*
X020170Y013844D02*
X018995Y013844D01*
X019145Y014003D02*
X020170Y014003D01*
X020170Y014162D02*
X019145Y014162D01*
X019145Y014320D02*
X020170Y014320D01*
X020170Y014479D02*
X019043Y014479D01*
X018884Y014637D02*
X020170Y014637D01*
X018685Y014185D02*
X018685Y012935D01*
X016905Y015588D02*
X015965Y015588D01*
X015965Y015747D02*
X016905Y015747D01*
X016905Y015906D02*
X015965Y015906D01*
X015965Y016064D02*
X016905Y016064D01*
X016905Y016223D02*
X015965Y016223D01*
X015965Y016381D02*
X016985Y016381D01*
X016985Y016698D02*
X016986Y016698D01*
X016985Y016857D02*
X016986Y016857D01*
X016985Y017015D02*
X016986Y017015D01*
X016443Y018442D02*
X018928Y018442D01*
X018631Y018601D02*
X016740Y018601D01*
X016896Y018759D02*
X018475Y018759D01*
X018409Y018918D02*
X016961Y018918D01*
X017009Y019076D02*
X018361Y019076D01*
X018361Y019235D02*
X017009Y019235D01*
X016986Y019393D02*
X018385Y019393D01*
X018451Y019552D02*
X016920Y019552D01*
X016799Y019711D02*
X018571Y019711D01*
X018784Y019869D02*
X016586Y019869D01*
X015577Y019552D02*
X013068Y019552D01*
X013174Y019393D02*
X015511Y019393D01*
X014141Y018125D02*
X014021Y018125D01*
X013961Y017967D02*
X013863Y017967D01*
X013895Y017808D02*
X013715Y017808D01*
X013715Y017649D02*
X013885Y017649D01*
X013925Y017491D02*
X013715Y017491D01*
X013715Y017332D02*
X014031Y017332D01*
X014036Y017015D02*
X013715Y017015D01*
X013715Y016857D02*
X013936Y016857D01*
X013715Y017174D02*
X015301Y017174D01*
X015334Y017015D02*
X015405Y017015D01*
X013546Y018442D02*
X009235Y018442D01*
X009235Y018284D02*
X013388Y018284D01*
X013229Y018125D02*
X009235Y018125D01*
X009235Y017967D02*
X013155Y017967D01*
X013155Y017808D02*
X009235Y017808D01*
X009132Y017649D02*
X013155Y017649D01*
X013155Y017491D02*
X009118Y017491D01*
X009195Y017332D02*
X013155Y017332D01*
X013155Y017174D02*
X012894Y017174D01*
X013101Y017015D02*
X013155Y017015D01*
X012713Y018759D02*
X012658Y018759D01*
X012658Y018918D02*
X012713Y018918D01*
X012713Y019076D02*
X012658Y019076D01*
X012658Y019235D02*
X012713Y019235D01*
X012713Y019393D02*
X012658Y019393D01*
X012658Y019552D02*
X012713Y019552D01*
X010168Y016064D02*
X007965Y016064D01*
X007965Y015906D02*
X010010Y015906D01*
X009851Y015747D02*
X007965Y015747D01*
X007965Y015588D02*
X009693Y015588D01*
X008269Y016857D02*
X007965Y016857D01*
X007965Y017015D02*
X008183Y017015D01*
X009965Y013527D02*
X010179Y013527D01*
X010260Y013369D02*
X009965Y013369D01*
X020126Y001320D02*
X020170Y001320D01*
D21*
X017185Y002185D03*
X016685Y008185D03*
X016185Y008685D03*
X016685Y015185D03*
X019685Y017185D03*
X004185Y002685D03*
X003185Y012185D03*
M02*
